<svg width="114" height="22" viewBox="0 0 114 22" fill="none" xmlns="http://www.w3.org/2000/svg">
<path d="M14.8138 0.0947738H19.6518V21H14.8138V0.0947738ZM5.31683 21H0.478762V0.0947738H5.31683V21ZM15.1722 12.4289H4.95845V8.33741H15.1722V12.4289ZM32.2433 21.2389C30.4116 21.2389 28.7989 20.8805 27.4052 20.1638C26.0314 19.447 24.9663 18.4715 24.2097 17.2371C23.4531 15.9827 23.0748 14.5592 23.0748 12.9664C23.0748 11.3537 23.4432 9.93018 24.1798 8.69578C24.9364 7.44147 25.9617 6.46589 27.2559 5.76905C28.55 5.0523 30.0134 4.69392 31.646 4.69392C33.2188 4.69392 34.6324 5.03239 35.8868 5.70932C37.161 6.36634 38.1664 7.32201 38.9031 8.57632C39.6397 9.81073 40.0081 11.294 40.0081 13.0261C40.0081 13.2053 39.9981 13.4144 39.9782 13.6533C39.9583 13.8723 39.9384 14.0814 39.9185 14.2805H26.8676V11.5628H37.4696L35.6777 12.3691C35.6777 11.5329 35.5085 10.8062 35.17 10.189C34.8315 9.57181 34.3637 9.09398 33.7664 8.75551C33.1691 8.39713 32.4722 8.21795 31.6758 8.21795C30.8795 8.21795 30.1727 8.39713 29.5555 8.75551C28.9582 9.09398 28.4903 9.58176 28.1518 10.2189C27.8134 10.8361 27.6441 11.5727 27.6441 12.4289V13.1456C27.6441 14.0216 27.8333 14.7981 28.2115 15.475C28.6097 16.1321 29.1573 16.6398 29.8541 16.9981C30.5709 17.3366 31.4071 17.5058 32.3627 17.5058C33.2188 17.5058 33.9655 17.3764 34.6026 17.1176C35.2596 16.8588 35.8569 16.4705 36.3945 15.9529L38.8732 18.6407C38.1366 19.4769 37.2108 20.124 36.0958 20.5819C34.9809 21.0199 33.6967 21.2389 32.2433 21.2389ZM43.1098 21V4.93284H47.5596V9.47226L46.9325 8.15822C47.4103 7.02336 48.1768 6.16724 49.232 5.58986C50.2872 4.99257 51.5714 4.69392 53.0846 4.69392V8.99443C52.8855 8.97452 52.7063 8.96456 52.547 8.96456C52.3877 8.94465 52.2185 8.9347 52.0393 8.9347C50.7651 8.9347 49.7298 9.30303 48.9334 10.0397C48.1569 10.7564 47.7687 11.8813 47.7687 13.4144V21H43.1098ZM63.3834 21.2389C61.6712 21.2389 60.1481 20.8805 58.8141 20.1638C57.5001 19.447 56.4548 18.4715 55.6784 17.2371C54.9218 15.9827 54.5435 14.5592 54.5435 12.9664C54.5435 11.3537 54.9218 9.93018 55.6784 8.69578C56.4548 7.44147 57.5001 6.46589 58.8141 5.76905C60.1481 5.0523 61.6712 4.69392 63.3834 4.69392C65.0757 4.69392 66.5889 5.0523 67.9228 5.76905C69.2568 6.46589 70.3021 7.43151 71.0586 8.66592C71.8152 9.90032 72.1935 11.3338 72.1935 12.9664C72.1935 14.5592 71.8152 15.9827 71.0586 17.2371C70.3021 18.4715 69.2568 19.447 67.9228 20.1638C66.5889 20.8805 65.0757 21.2389 63.3834 21.2389ZM63.3834 17.4162C64.1599 17.4162 64.8567 17.2371 65.4739 16.8787C66.0911 16.5203 66.5789 16.0126 66.9373 15.3556C67.2957 14.6787 67.4749 13.8823 67.4749 12.9664C67.4749 12.0307 67.2957 11.2343 66.9373 10.5773C66.5789 9.92023 66.0911 9.41253 65.4739 9.05416C64.8567 8.69578 64.1599 8.51659 63.3834 8.51659C62.6069 8.51659 61.9101 8.69578 61.2929 9.05416C60.6757 9.41253 60.178 9.92023 59.7997 10.5773C59.4413 11.2343 59.2621 12.0307 59.2621 12.9664C59.2621 13.8823 59.4413 14.6787 59.7997 15.3556C60.178 16.0126 60.6757 16.5203 61.2929 16.8787C61.9101 17.2371 62.6069 17.4162 63.3834 17.4162ZM79.9664 16.2217L79.6977 10.637L89.7023 0.0947738H95.0779L86.0588 9.80077L83.371 12.6678L79.9664 16.2217ZM75.6361 21V0.0947738H80.4443V21H75.6361ZM89.9412 21L82.5049 11.8913L85.6706 8.45686L95.5856 21H89.9412ZM103.698 21.2389C102.364 21.2389 101.169 20.9801 100.114 20.4624C99.0788 19.9448 98.2724 19.1583 97.6951 18.1031C97.1177 17.028 96.829 15.6642 96.829 14.0117V4.93284H101.488V13.3248C101.488 14.6587 101.767 15.6443 102.324 16.2814C102.901 16.8986 103.708 17.2072 104.743 17.2072C105.46 17.2072 106.097 17.0579 106.654 16.7592C107.212 16.4407 107.65 15.9628 107.968 15.3257C108.287 14.6687 108.446 13.8524 108.446 12.8768V4.93284H113.105V21H108.685V16.58L109.492 17.8642C108.954 18.9792 108.158 19.8253 107.102 20.4027C106.067 20.9602 104.932 21.2389 103.698 21.2389Z" fill="#3498FF"/>
</svg>
