<svg width="344" height="260" viewBox="0 0 344 260" fill="none" xmlns="http://www.w3.org/2000/svg">
<g clip-path="url(#clip0_183_649)">
<path d="M329.925 50.4552L324.817 75.1887L321.532 71.9833L315.937 75.9711L311.664 70.6657L302.076 77.6341L293.887 63.9342L284.749 69.2877L281.126 64.2907L269.523 70.8284L266.031 63.3567L274.164 23.9644L317.767 32.9672L329.925 50.4552Z" fill="#EBEBEB"/>
<path d="M317.768 32.964L329.925 50.4515L314.803 47.3294L317.768 32.964Z" fill="#DBDBDB"/>
<path d="M323.73 80.1323L316.24 116.421L257.51 104.298L264.944 68.2982L268.436 75.7699L280.039 69.2322L283.662 74.2291L292.801 68.8815L300.989 82.5814L310.577 75.6114L314.851 80.9168L320.445 76.9291L323.73 80.1323Z" fill="#EBEBEB"/>
<path d="M239.669 75.8799L179.815 79.5837L175.061 2.75012L219.502 0L235.82 13.6865L239.669 75.8799Z" fill="#EBEBEB"/>
<path d="M219.502 0L235.821 13.6865L220.408 14.6403L219.502 0Z" fill="#DBDBDB"/>
<path d="M202.91 51.6966L202.679 49.9637C202.075 46.3714 203.059 42.3543 206.18 38.151C208.994 34.4343 210.521 31.7296 210.353 28.718C210.162 25.3023 207.892 23.1478 203.671 23.317C201.258 23.4429 198.941 24.299 197.026 25.772L195.184 21.6444C197.303 19.9142 201.058 18.6296 204.606 18.431C212.304 17.9998 216.051 22.5575 216.336 27.6447C216.591 32.1971 214.231 35.6191 211.232 39.6149C208.482 43.2605 207.575 46.2658 207.967 49.6686L208.132 51.4052L202.91 51.6966ZM201.963 61.1504C201.824 58.6741 203.4 56.8398 205.743 56.7085C208.086 56.5772 209.79 58.228 209.928 60.7048C210.059 63.0472 208.621 64.9407 206.145 65.0811C203.802 65.2092 202.094 63.4912 201.963 61.1488V61.1504Z" fill="#DBDBDB"/>
<path d="M53.2223 38.6287L47.2017 35.8994L46.3665 37.7439C46.2449 38.0085 46.0522 38.2342 45.8098 38.3958C45.5674 38.5573 45.2849 38.6483 44.9938 38.6586C44.6641 38.673 44.3354 38.7052 44.0091 38.7552C43.7223 38.8011 43.4282 38.7666 43.1598 38.6554C42.8914 38.5442 42.659 38.3608 42.4887 38.1254L41.3092 36.4801L35.9312 40.3333L37.1101 41.9787C37.278 42.2159 37.3769 42.495 37.3957 42.785C37.4146 43.075 37.3526 43.3645 37.2168 43.6214C37.0647 43.9142 36.9284 44.2149 36.8086 44.5223C36.7053 44.7946 36.5284 45.0328 36.2976 45.2103C36.0668 45.3879 35.7912 45.4978 35.5016 45.5278L33.4863 45.7258L34.1358 52.3073L36.1575 52.1061C36.4476 52.0803 36.7392 52.1356 36.9998 52.2657C37.2605 52.3958 37.4799 52.5957 37.6337 52.8431C37.7206 52.9797 37.8119 53.1137 37.9069 53.2466C38.0019 53.3794 38.0996 53.5086 38.2004 53.6345C38.3845 53.8586 38.5029 54.1292 38.5425 54.4165C38.582 54.7037 38.5412 54.9963 38.4246 55.2618L37.5835 57.1196L43.6062 59.851L44.4452 58.0028C44.5671 57.7382 44.7602 57.5127 45.0028 57.3514C45.2455 57.1902 45.5282 57.0995 45.8194 57.0897C46.1477 57.0753 46.4749 57.0436 46.7998 56.9947C47.0866 56.9488 47.3804 56.9834 47.6486 57.0946C47.9169 57.2058 48.149 57.3892 48.3192 57.6244L49.4987 59.2703L54.8767 55.4176L53.6973 53.7712C53.5297 53.5341 53.4311 53.2554 53.4122 52.9657C53.3934 52.676 53.4551 52.3868 53.5905 52.1301C53.7418 51.8382 53.8772 51.5383 53.9961 51.2319C54.0993 50.9594 54.2761 50.7209 54.5069 50.5431C54.7377 50.3653 55.0134 50.2551 55.3031 50.2248L57.3226 50.0246L56.6731 43.4432L54.6526 43.6428C54.3633 43.6681 54.0727 43.6127 53.8131 43.4828C53.5534 43.3528 53.3349 43.1535 53.1817 42.9068C53.0935 42.7702 53.0015 42.6348 52.9058 42.5007C52.8101 42.3665 52.7122 42.237 52.6123 42.1121C52.4273 41.8871 52.3084 41.6151 52.2688 41.3265C52.2292 41.0379 52.2705 40.744 52.3881 40.4774L53.2223 38.6287ZM49.8066 44.7176C50.4303 45.5889 50.7815 46.6255 50.816 47.6965C50.8505 48.7674 50.5666 49.8245 50.0003 50.7341C49.434 51.6437 48.6107 52.3649 47.6345 52.8066C46.6583 53.2483 45.5731 53.3906 44.516 53.2155C43.4589 53.0404 42.4775 52.5557 41.6959 51.8229C40.9142 51.09 40.3674 50.1418 40.1247 49.0982C39.8819 48.0546 39.9541 46.9625 40.332 45.9599C40.7099 44.9573 41.3767 44.0892 42.248 43.4656C42.8263 43.0511 43.4806 42.7548 44.1735 42.5934C44.8664 42.432 45.5844 42.4088 46.2863 42.5251C46.9882 42.6414 47.6603 42.8949 48.2642 43.2711C48.868 43.6473 49.3918 44.1388 49.8056 44.7176H49.8066Z" fill="#EBEBEB"/>
<path d="M325.354 125.94L321.341 128.256L322.05 129.483C322.152 129.661 322.202 129.862 322.195 130.066C322.188 130.27 322.124 130.468 322.011 130.638C321.885 130.832 321.769 131.033 321.665 131.239C321.574 131.421 321.434 131.574 321.261 131.682C321.088 131.789 320.889 131.847 320.686 131.848H319.268V136.483H320.686C320.889 136.484 321.088 136.542 321.261 136.649C321.434 136.756 321.574 136.91 321.665 137.092C321.769 137.298 321.885 137.498 322.011 137.692C322.124 137.862 322.188 138.06 322.195 138.264C322.202 138.468 322.152 138.67 322.05 138.847L321.341 140.075L325.354 142.39L326.064 141.156C326.168 140.981 326.319 140.837 326.499 140.742C326.68 140.647 326.883 140.603 327.087 140.617C327.2 140.623 327.314 140.626 327.428 140.625C327.541 140.625 327.656 140.625 327.768 140.617C327.971 140.603 328.173 140.646 328.353 140.741C328.533 140.836 328.683 140.978 328.787 141.153L329.501 142.39L333.514 140.075L332.804 138.843C332.703 138.666 332.653 138.464 332.661 138.26C332.668 138.056 332.731 137.858 332.845 137.688C332.97 137.495 333.086 137.296 333.191 137.091C333.282 136.909 333.421 136.756 333.594 136.648C333.767 136.541 333.966 136.483 334.169 136.482H335.588V131.847H334.168C333.965 131.846 333.766 131.789 333.593 131.681C333.42 131.574 333.281 131.421 333.189 131.239C333.085 131.034 332.97 130.835 332.844 130.642C332.73 130.472 332.667 130.274 332.659 130.07C332.652 129.866 332.702 129.664 332.803 129.487L333.513 128.255L329.5 125.939L328.789 127.171C328.686 127.347 328.535 127.49 328.356 127.584C328.176 127.679 327.973 127.722 327.77 127.709C327.657 127.703 327.542 127.7 327.427 127.7C327.311 127.7 327.199 127.703 327.086 127.709C326.882 127.722 326.679 127.679 326.498 127.584C326.317 127.489 326.167 127.346 326.063 127.17L325.354 125.94ZM327.428 130.37C328.178 130.37 328.912 130.593 329.536 131.011C330.16 131.428 330.646 132.021 330.933 132.715C331.219 133.408 331.294 134.171 331.147 134.907C331.001 135.643 330.639 136.319 330.108 136.85C329.577 137.38 328.9 137.741 328.164 137.888C327.428 138.034 326.665 137.958 325.972 137.671C325.278 137.383 324.686 136.896 324.269 136.272C323.852 135.648 323.63 134.914 323.631 134.163C323.63 133.665 323.729 133.171 323.92 132.711C324.11 132.25 324.39 131.832 324.743 131.48C325.095 131.127 325.514 130.848 325.975 130.658C326.436 130.467 326.929 130.37 327.428 130.37V130.37Z" fill="#EBEBEB"/>
<path d="M65.4006 18.9082L61.7181 21.7224L62.58 22.849C62.703 23.0117 62.7785 23.2054 62.798 23.4084C62.8175 23.6115 62.7803 23.816 62.6905 23.9991C62.59 24.2076 62.5009 24.4214 62.4236 24.6395C62.3571 24.8319 62.2385 25.002 62.0811 25.131C61.9236 25.26 61.7335 25.3428 61.5318 25.3702L60.125 25.5532L60.7233 30.1488L62.1301 29.9658C62.3323 29.9409 62.5374 29.9727 62.7227 30.0575C62.9079 30.1423 63.066 30.2768 63.1793 30.4461C63.3097 30.6372 63.4502 30.821 63.6004 30.9969C63.7344 31.1508 63.8229 31.3389 63.8561 31.5402C63.8892 31.7415 63.8658 31.9481 63.7883 32.1369L63.2434 33.4465L67.5214 35.2248L68.0669 33.9092C68.1472 33.7217 68.278 33.5601 68.4447 33.4424C68.6113 33.3247 68.8074 33.2556 69.011 33.2427C69.1234 33.2338 69.2366 33.2218 69.3504 33.2069C69.4643 33.192 69.5765 33.1742 69.6872 33.1535C69.8864 33.1141 70.0926 33.1306 70.283 33.2012C70.4734 33.2719 70.6405 33.3939 70.7658 33.5538L71.6341 34.6884L75.3166 31.8743L74.453 30.7444C74.3304 30.5814 74.2555 30.3874 74.2367 30.1842C74.2178 29.9811 74.2558 29.7767 74.3463 29.5938C74.4469 29.3864 74.5359 29.1737 74.6131 28.9566C74.6802 28.7645 74.799 28.5947 74.9565 28.466C75.1139 28.3372 75.3039 28.2545 75.5055 28.227L76.9123 28.044L76.314 23.4483L74.9072 23.6314C74.7053 23.6564 74.5005 23.6251 74.3153 23.5409C74.1301 23.4566 73.9718 23.3229 73.858 23.1543C73.728 22.9643 73.5878 22.7815 73.438 22.6067C73.3029 22.453 73.2134 22.2647 73.1795 22.063C73.1456 21.8612 73.1685 21.654 73.2458 21.4646L73.7907 20.1512L69.5127 18.3729L68.9667 19.6863C68.8865 19.8733 68.7561 20.0344 68.5899 20.1518C68.4237 20.2692 68.2283 20.3382 68.0253 20.3513C67.9121 20.3599 67.7979 20.3721 67.6837 20.3871C67.5695 20.402 67.4579 20.4191 67.3464 20.4404C67.1461 20.4802 66.9388 20.4635 66.7474 20.3924C66.556 20.3213 66.3882 20.1984 66.2625 20.0375L65.4006 18.9082ZM68.0285 23.0337C68.7729 22.9371 69.5293 23.0634 70.202 23.3967C70.8747 23.7301 71.4334 24.2554 71.8075 24.9062C72.1816 25.5571 72.3543 26.3043 72.3038 27.0533C72.2532 27.8023 71.9817 28.5195 71.5235 29.1142C71.0654 29.7089 70.4411 30.1544 69.7298 30.3943C69.0184 30.6342 68.2519 30.6578 67.5271 30.4621C66.8024 30.2663 66.152 29.8601 65.6581 29.2947C65.1642 28.7292 64.8491 28.0301 64.7526 27.2856C64.6882 26.7911 64.7218 26.2888 64.8517 25.8074C64.9816 25.326 65.2051 24.8749 65.5095 24.4799C65.814 24.085 66.1933 23.754 66.6258 23.5058C67.0583 23.2576 67.5355 23.0972 68.0301 23.0337H68.0285Z" fill="#EBEBEB"/>
<path d="M37.9262 139.32C38.1294 134.155 38.0582 128.982 37.7128 123.824C36.9496 113.187 35.3254 102.629 32.8562 92.2546C31.5027 86.4123 29.836 80.6687 28.0988 74.9315C28.0455 74.7586 27.7701 74.8072 27.8181 74.9881C33.1892 95.2124 37.5959 116.082 37.2922 137.11C37.2073 142.994 36.5264 148.773 35.9676 154.619C35.9526 154.776 36.2099 154.838 36.2456 154.677C37.3579 149.672 37.7181 144.429 37.9262 139.32Z" fill="#EBEBEB"/>
<path d="M27.8212 74.988C27.8212 74.988 19.6846 95.6419 21.506 100.495C23.3275 105.348 27.0821 106.385 27.0821 106.385C27.0821 106.385 22.1038 113.493 25.5829 120.159C29.0621 126.826 36.7905 126.51 37.3049 134.069C37.306 134.069 37.7367 102.464 27.8212 74.988Z" fill="#EBEBEB"/>
<path d="M36.421 121.019C36.4306 120.984 36.4278 120.946 36.413 120.912C35.3441 106.811 32.6973 92.8748 28.5223 79.3638C28.5101 79.3238 28.4444 79.3371 28.4556 79.3782C30.0674 85.4196 31.4906 91.4938 32.7252 97.6006C31.6325 96.5647 30.2971 95.82 28.8415 95.4349C28.836 95.4329 28.8299 95.4332 28.8246 95.4357C28.8193 95.4382 28.8152 95.4427 28.8132 95.4482C28.8112 95.4538 28.8115 95.4598 28.814 95.4651C28.8165 95.4704 28.821 95.4745 28.8265 95.4765C30.3568 96.0392 31.7314 96.9576 32.8367 98.1562C33.0747 99.3527 33.306 100.551 33.5305 101.75C31.7122 99.7178 29.19 98.7075 26.6672 97.7506C26.6607 97.7499 26.6542 97.7514 26.6486 97.7548C26.6431 97.7583 26.6389 97.7635 26.6366 97.7696C26.6343 97.7757 26.6342 97.7824 26.6361 97.7886C26.6381 97.7949 26.6421 97.8003 26.6475 97.804C29.2754 98.874 31.8926 100.253 33.6735 102.517C34.2944 105.944 34.8391 109.383 35.3077 112.834C33.9933 111.457 32.3077 110.491 30.4554 110.053C30.3988 110.039 30.3673 110.123 30.425 110.14C32.3363 110.691 34.0461 111.786 35.3456 113.292C35.3546 113.301 35.3648 113.308 35.376 113.315C35.539 114.528 35.6923 115.743 35.8361 116.96C34.8187 116.1 33.6708 115.407 32.4354 114.909C32.4023 114.895 32.382 114.947 32.4172 114.962C33.676 115.508 34.8289 116.271 35.8233 117.216C35.8371 117.23 35.8521 117.228 35.8665 117.234C36.002 118.391 36.1371 119.547 36.2539 120.706C34.4211 118.492 32.0425 116.793 29.3528 115.779C29.2994 115.758 29.2722 115.84 29.3234 115.862C31.9797 117.032 34.3133 118.828 36.1248 121.095C36.1439 121.121 36.1708 121.141 36.2017 121.15C36.2325 121.16 36.2656 121.159 36.2961 121.149C36.4719 122.926 36.6265 124.706 36.7599 126.489C36.7599 126.513 36.802 126.516 36.8004 126.489C36.6962 124.667 36.5697 122.844 36.421 121.019Z" fill="white"/>
<path d="M29.8837 93.3823C28.4107 92.4659 26.7279 91.9414 24.9951 91.8586C24.9545 91.8548 24.9513 91.9119 24.9908 91.9205C26.6644 92.2319 28.2897 92.7627 29.8245 93.4991C29.8944 93.529 29.9446 93.4244 29.8837 93.3823Z" fill="white"/>
<path d="M30.8714 115.248C29.7387 114.601 28.4934 114.175 27.2017 113.993C27.1569 113.986 27.1531 114.055 27.1969 114.063C28.4603 114.315 29.6819 114.744 30.826 115.336C30.8778 115.36 30.9194 115.277 30.8714 115.248Z" fill="white"/>
<path d="M59.3163 100.832C55.8756 103.211 52.716 105.973 49.8983 109.065C46.9927 112.336 44.7496 116.14 43.2933 120.265C40.202 128.868 38.5399 137.918 38.3732 147.057C38.269 152.118 38.7558 157.174 39.8237 162.122C39.8308 162.16 39.8524 162.193 39.8838 162.214C39.9152 162.235 39.9538 162.243 39.991 162.236C40.0283 162.229 40.0613 162.208 40.0827 162.176C40.104 162.145 40.1121 162.106 40.105 162.069C38.7776 153.337 38.8275 144.451 40.2528 135.734C41.6516 127.19 43.8462 117.895 49.2776 110.952C52.2348 107.171 55.922 104.197 59.5666 101.122C59.7577 100.956 59.5127 100.693 59.3163 100.832Z" fill="#EBEBEB"/>
<path d="M39.5703 140.903C41.5288 137.734 43.831 134.791 46.4352 132.128C50.5057 128.058 53.9341 125.166 54.463 122.474C54.9919 119.783 50.3856 117.801 50.3856 117.801C50.3856 117.801 56.0187 118.812 57.56 116.448C59.1013 114.085 59.8453 100.392 59.8453 100.392C59.8453 100.392 49.5984 107.709 44.8229 117.965C40.0474 128.221 39.5703 140.903 39.5703 140.903Z" fill="#EBEBEB"/>
<path d="M56.2995 103.902C51.9878 108.137 47.6483 112.65 45.109 118.214C44.2419 120.136 43.4862 122.106 42.8456 124.115C42.8456 124.118 42.8456 124.121 42.8424 124.124C42.7117 124.529 42.5793 124.933 42.4555 125.34C42.4436 125.36 42.4364 125.383 42.4347 125.406C41.2294 129.565 40.2577 133.788 39.5239 138.055C39.5186 138.082 39.5597 138.096 39.5655 138.068C40.0074 135.934 40.4942 133.775 41.0385 131.624C41.0594 131.624 41.0801 131.62 41.0994 131.612C41.9549 131.246 42.8622 131.016 43.7886 130.929C43.85 130.924 43.8452 130.817 43.7828 130.822C42.8784 130.864 41.9837 131.027 41.1229 131.307C41.6192 129.369 42.1593 127.434 42.7656 125.528C44.7571 125.046 46.7947 124.78 48.8433 124.733C48.8641 124.733 48.8678 124.702 48.8465 124.701C46.8404 124.608 44.8308 124.778 42.8691 125.208C42.9758 124.881 43.0826 124.556 43.1941 124.23C44.5255 123.912 45.8766 123.683 47.2384 123.545C47.263 123.542 47.2614 123.501 47.2384 123.501C45.9056 123.526 44.5787 123.687 43.2784 123.981C43.8361 122.332 44.4387 120.706 45.1069 119.121C45.661 117.825 46.3076 116.57 47.0415 115.366C48.1206 115.097 49.2166 114.901 50.3221 114.779C50.3536 114.776 50.3499 114.726 50.3194 114.726C49.2872 114.646 48.2491 114.749 47.2523 115.029C47.7913 114.158 48.3576 113.306 48.9639 112.479C51.2619 111.971 53.5915 111.498 55.9419 111.94C55.9825 111.947 55.9953 111.879 55.9574 111.868C53.7196 111.281 51.4984 111.62 49.2718 112.06C49.5146 111.737 49.7633 111.419 50.0142 111.099C51.4058 110.67 52.8517 110.443 54.3077 110.425C54.3136 110.424 54.3192 110.422 54.3235 110.418C54.3278 110.414 54.3304 110.409 54.3309 110.403C54.3315 110.397 54.3298 110.391 54.3263 110.386C54.3228 110.382 54.3177 110.378 54.312 110.377C52.9672 110.254 51.6112 110.374 50.3093 110.733C52.2098 108.372 54.3077 106.155 56.3827 103.963C56.4767 103.861 56.4019 103.802 56.2995 103.902Z" fill="white"/>
<path d="M56.1855 113.236C55.5109 113.138 54.8276 113.114 54.1479 113.165C54.1308 113.168 54.1156 113.178 54.105 113.192C54.0944 113.206 54.089 113.223 54.0899 113.24C54.0908 113.258 54.0979 113.274 54.1099 113.287C54.1219 113.3 54.138 113.308 54.1553 113.31C54.8299 113.33 55.504 113.279 56.1791 113.316C56.1893 113.316 56.199 113.312 56.2065 113.305C56.214 113.299 56.2186 113.289 56.2194 113.279C56.2202 113.269 56.2171 113.259 56.2109 113.251C56.2046 113.243 56.1955 113.237 56.1855 113.236Z" fill="white"/>
<path d="M48.8082 126.52C47.7264 126.545 46.6573 126.76 45.6498 127.154C45.6247 127.163 45.6391 127.208 45.6647 127.199C46.7081 126.951 47.7627 126.85 48.8135 126.676C48.8319 126.672 48.8484 126.662 48.8601 126.648C48.8717 126.633 48.8778 126.615 48.8771 126.596C48.8765 126.577 48.8692 126.559 48.8566 126.545C48.8439 126.532 48.8268 126.523 48.8082 126.52Z" fill="white"/>
<path d="M46.5975 121.931C46.1477 121.926 45.6985 121.966 45.2568 122.052C45.2474 122.054 45.2389 122.059 45.233 122.067C45.2271 122.074 45.2242 122.084 45.2247 122.094C45.2252 122.103 45.2291 122.112 45.2358 122.119C45.2425 122.126 45.2515 122.131 45.2611 122.132C45.7099 122.156 46.1599 122.135 46.6044 122.069C46.6209 122.066 46.6357 122.056 46.6461 122.043C46.6564 122.03 46.6617 122.013 46.6608 121.997C46.66 121.98 46.6531 121.964 46.6415 121.952C46.6298 121.94 46.6142 121.932 46.5975 121.931Z" fill="white"/>
<path d="M9.52912 115.362C12.8632 116.492 16.0583 117.996 19.0534 119.845C22.161 121.821 24.8556 124.381 26.9878 127.384C31.4776 133.63 34.9143 140.569 37.1616 147.926C38.4157 151.998 39.1905 156.203 39.4703 160.454C39.4724 160.486 39.4621 160.517 39.4417 160.54C39.4213 160.564 39.3923 160.579 39.3609 160.582C39.3296 160.585 39.2984 160.576 39.2739 160.556C39.2495 160.536 39.2338 160.507 39.2302 160.476C38.2858 153.103 36.1916 145.923 33.0239 139.198C29.9167 132.607 25.9919 125.592 19.9922 121.228C16.7249 118.852 13.0542 117.297 9.39303 115.651C9.20197 115.567 9.33752 115.296 9.52912 115.362Z" fill="#EBEBEB"/>
<path d="M34.7715 143.225C32.454 141.114 29.9109 139.266 27.1882 137.712C22.9534 135.36 19.5105 133.812 18.4602 131.756C17.4099 129.7 20.6799 127.031 20.6799 127.031C20.6799 127.031 16.3569 129.152 14.5611 127.595C12.7652 126.038 9 115.129 9 115.129C9 115.129 18.9843 118.682 25.2189 125.878C31.4535 133.074 34.7715 143.225 34.7715 143.225Z" fill="#EBEBEB"/>
<path d="M34.2515 140.977C29.2577 131.604 22.5945 123.125 13.4641 117.528C13.4634 117.528 13.4625 117.528 13.4617 117.528C13.4609 117.528 13.4602 117.529 13.4597 117.529C13.4592 117.53 13.459 117.531 13.459 117.532C13.459 117.533 13.4593 117.533 13.4599 117.534C15.8443 119.067 18.0815 120.818 20.1428 122.764C18.285 122.664 16.4335 123.054 14.7749 123.897C14.7712 123.899 14.7679 123.902 14.7652 123.905C14.7625 123.908 14.7604 123.911 14.7591 123.915C14.7577 123.919 14.7572 123.923 14.7574 123.927C14.7576 123.931 14.7587 123.935 14.7605 123.939C14.7623 123.943 14.7648 123.946 14.7678 123.949C14.7709 123.951 14.7744 123.953 14.7783 123.955C14.7822 123.956 14.7863 123.957 14.7903 123.956C14.7944 123.956 14.7984 123.955 14.8021 123.953C16.5664 123.291 18.4414 122.974 20.3253 123.02C20.348 123.019 20.3698 123.01 20.3877 122.996C20.7119 123.304 21.0321 123.616 21.3484 123.931C20.3831 123.977 19.4234 124.104 18.4798 124.312C18.475 124.314 18.471 124.317 18.4685 124.321C18.466 124.325 18.4652 124.33 18.4662 124.335C18.4672 124.34 18.4699 124.345 18.4739 124.348C18.4779 124.351 18.4828 124.352 18.4878 124.351C19.4863 124.163 20.5017 124.08 21.5176 124.102C23.1876 125.793 24.7601 127.578 26.2274 129.448C25.5561 129.354 24.8725 129.404 24.2218 129.594C24.2117 129.596 24.2028 129.602 24.1971 129.61C24.1913 129.619 24.1892 129.629 24.1911 129.639C24.193 129.649 24.1988 129.658 24.2073 129.664C24.2157 129.669 24.2261 129.672 24.2362 129.67C24.9471 129.589 25.6644 129.579 26.3774 129.64C26.6506 129.988 26.9271 130.334 27.195 130.686C25.1566 130.561 23.1113 130.76 21.1349 131.273C21.1319 131.274 21.1289 131.275 21.1264 131.277C21.1238 131.279 21.1215 131.281 21.1198 131.283C21.1181 131.286 21.1169 131.289 21.1163 131.292C21.1156 131.295 21.1156 131.298 21.1162 131.301C21.1168 131.304 21.118 131.307 21.1197 131.31C21.1214 131.312 21.1236 131.315 21.1262 131.316C21.1288 131.318 21.1317 131.319 21.1347 131.32C21.1378 131.32 21.1409 131.321 21.144 131.32C23.1928 130.92 25.2845 130.784 27.3679 130.916C27.6225 131.254 27.8637 131.601 28.1151 131.943C26.8993 131.913 25.6853 132.052 24.5078 132.356C24.4625 132.367 24.4753 132.439 24.5217 132.428C25.748 132.161 27.0048 132.064 28.2576 132.137C29.3319 133.617 30.3603 135.129 31.3492 136.661C30.8215 136.566 30.2789 136.599 29.7663 136.756C29.761 136.758 29.7565 136.761 29.7536 136.766C29.7508 136.771 29.7498 136.776 29.7509 136.782C29.7519 136.787 29.755 136.792 29.7594 136.795C29.7638 136.799 29.7693 136.8 29.7748 136.8C30.347 136.755 30.9225 136.782 31.488 136.88C32.3775 138.265 33.235 139.661 34.0604 141.069C34.126 141.19 34.3176 141.101 34.2515 140.977Z" fill="white"/>
<path d="M26.484 133.202C25.5034 133.135 24.519 133.256 23.5834 133.557C23.5567 133.566 23.5631 133.606 23.5914 133.6C24.5446 133.44 25.5073 133.341 26.4733 133.305C26.4849 133.303 26.4955 133.297 26.5036 133.289C26.5116 133.28 26.5166 133.269 26.5179 133.258C26.5191 133.246 26.5164 133.234 26.5103 133.224C26.5042 133.214 26.4949 133.206 26.484 133.202Z" fill="white"/>
<path d="M17.7742 121.78C17.3269 121.745 16.8771 121.771 16.4368 121.857C16.3834 121.865 16.401 121.942 16.4517 121.936C16.8915 121.89 17.3254 121.906 17.7657 121.893C17.7802 121.893 17.7943 121.888 17.805 121.878C17.8157 121.868 17.8223 121.855 17.8234 121.84C17.8245 121.826 17.82 121.812 17.8109 121.8C17.8017 121.789 17.7886 121.782 17.7742 121.78Z" fill="white"/>
<path d="M47.6486 174.222H25.1113L28.3247 150.682L29.146 144.646H43.6139L44.4353 150.682L47.6486 174.222Z" fill="#DBDBDB"/>
<path d="M44.4343 150.682H28.3242L29.1456 144.647H43.6134L44.4343 150.682Z" fill="#C7C7C7"/>
<path d="M45.6818 142.553H27.0762V147.665H45.6818V142.553Z" fill="#DBDBDB"/>
<path d="M10.7852 174.222H335.309" stroke="#263238" stroke-linecap="round" stroke-linejoin="round"/>
<path d="M174.114 214C258.631 214 327.146 206.493 327.146 197.232C327.146 187.971 258.631 180.463 174.114 180.463C89.5968 180.463 21.082 187.971 21.082 197.232C21.082 206.493 89.5968 214 174.114 214Z" fill="#EBEBEB"/>
<path d="M138.49 194.452C137.246 194.874 101.589 194.999 100.225 194.145C99.7058 193.824 99.3845 188.631 99.1748 182.346C99.1294 180.989 99.0905 179.588 99.0595 178.164L96.168 159.145L120.005 158.992L122.255 178.015L122.164 182.199C122.164 182.199 135.838 188.257 137.232 189.355C138.626 190.453 139.735 194.032 138.49 194.452Z" fill="#EB9481"/>
<path d="M138.489 194.453C137.245 194.874 101.588 194.999 100.224 194.145C99.5939 193.75 99.2502 186.168 99.0586 178.164L122.254 178.015L122.163 182.199C122.163 182.199 135.837 188.257 137.231 189.355C138.625 190.453 139.734 194.032 138.489 194.453Z" fill="white"/>
<path d="M138.489 194.453C137.245 194.874 101.588 194.999 100.224 194.145C99.7048 193.824 99.3836 188.631 99.1738 182.346L122.163 182.199C122.163 182.199 135.837 188.257 137.231 189.355C138.625 190.453 139.734 194.033 138.489 194.453Z" fill="#A6A6A6"/>
<path d="M137.973 193.028C131.996 192.903 107.873 192.959 101.954 193.289C101.906 193.289 101.906 193.325 101.954 193.327C107.878 193.581 131.998 193.327 137.973 193.126C138.1 193.122 138.099 193.031 137.973 193.028Z" fill="#263238"/>
<path d="M134.934 188.08C134.269 188.065 133.609 188.188 132.994 188.442C132.38 188.695 131.825 189.074 131.364 189.553C130.528 190.408 130.053 191.553 130.039 192.749C130.039 192.784 130.106 192.785 130.111 192.749C130.31 191.565 130.888 190.477 131.757 189.649C132.627 188.82 133.742 188.297 134.935 188.156C134.945 188.156 134.954 188.152 134.961 188.145C134.968 188.138 134.972 188.128 134.972 188.118C134.972 188.108 134.968 188.098 134.961 188.091C134.954 188.084 134.944 188.08 134.934 188.08Z" fill="#263238"/>
<path d="M124.485 182.785C122.093 182.76 119.322 183.615 117.842 185.577C117.785 185.652 117.896 185.733 117.964 185.696C120.053 184.593 122.254 183.716 124.529 183.081C124.564 183.071 124.595 183.049 124.615 183.018C124.635 182.987 124.644 182.95 124.638 182.914C124.633 182.877 124.614 182.844 124.586 182.821C124.558 182.797 124.522 182.784 124.485 182.785Z" fill="#263238"/>
<path d="M126.335 183.499C123.942 183.474 121.172 184.328 119.692 186.29C119.634 186.366 119.745 186.447 119.814 186.41C121.902 185.306 124.103 184.429 126.378 183.795C126.414 183.785 126.445 183.763 126.465 183.732C126.485 183.701 126.493 183.664 126.488 183.628C126.482 183.591 126.464 183.558 126.436 183.534C126.408 183.511 126.372 183.498 126.335 183.499Z" fill="#263238"/>
<path d="M128.185 184.213C125.792 184.187 123.021 185.042 121.541 187.004C121.484 187.08 121.595 187.16 121.664 187.123C123.752 186.02 125.953 185.143 128.228 184.508C128.264 184.499 128.295 184.476 128.315 184.445C128.335 184.415 128.343 184.377 128.338 184.341C128.332 184.305 128.314 184.271 128.286 184.248C128.257 184.224 128.221 184.212 128.185 184.213Z" fill="#263238"/>
<path d="M130.034 184.926C127.641 184.901 124.871 185.755 123.391 187.717C123.333 187.793 123.444 187.874 123.513 187.837C125.602 186.733 127.802 185.856 130.078 185.222C130.113 185.212 130.144 185.19 130.164 185.159C130.184 185.128 130.192 185.091 130.187 185.054C130.182 185.018 130.163 184.985 130.135 184.961C130.107 184.938 130.071 184.925 130.034 184.926Z" fill="#263238"/>
<path d="M103.457 187.606C100.772 187.624 100.795 191.795 103.483 191.778C106.172 191.761 106.145 187.589 103.457 187.606Z" fill="#263238"/>
<path d="M127.049 176.392C125.834 175.392 124.312 176.379 123.569 177.424C122.327 179.242 121.584 181.354 121.416 183.55C121.415 183.559 121.417 183.569 121.42 183.579C121.424 183.588 121.43 183.596 121.437 183.603C121.444 183.609 121.453 183.614 121.462 183.617C121.472 183.619 121.482 183.62 121.492 183.618C121.501 183.663 121.521 183.705 121.55 183.741C121.579 183.776 121.616 183.804 121.658 183.823C121.7 183.842 121.746 183.85 121.792 183.848C121.838 183.846 121.882 183.832 121.922 183.81C123.622 182.625 125.585 181.568 126.87 179.9C127.62 178.925 128.197 177.338 127.049 176.392ZM124.131 181.487C123.31 182.09 122.463 182.649 121.664 183.282C122.049 182.077 122.494 180.892 122.999 179.732C123.251 179.174 123.541 178.634 123.867 178.115C124.384 177.323 126.725 175.315 126.973 177.917C127.11 179.352 125.111 180.769 124.131 181.487Z" fill="#263238"/>
<path d="M115.474 184.458C117.556 184.77 119.705 184.169 121.751 183.845C121.795 183.834 121.837 183.812 121.871 183.782C121.906 183.752 121.933 183.714 121.951 183.672C121.968 183.629 121.975 183.583 121.971 183.537C121.967 183.492 121.953 183.447 121.928 183.408C121.937 183.403 121.944 183.396 121.949 183.387C121.954 183.379 121.957 183.369 121.958 183.36C121.958 183.35 121.957 183.34 121.953 183.331C121.949 183.322 121.943 183.314 121.935 183.307C120.292 181.842 118.293 180.834 116.137 180.385C114.877 180.147 113.095 180.492 112.914 182.054C112.742 183.532 114.258 184.275 115.474 184.458ZM114.025 183.101C112.399 181.054 115.478 180.878 116.4 181.09C116.995 181.238 117.578 181.427 118.147 181.654C119.315 182.14 120.458 182.685 121.571 183.286C120.557 183.384 119.559 183.568 118.549 183.703C117.345 183.864 114.922 184.23 114.025 183.101Z" fill="#263238"/>
<path d="M61.1406 71.2299C61.1406 71.2299 88.8232 118.323 89.5645 121.629C90.7034 126.709 96.7411 176.885 96.7411 176.885L125.545 176.366C125.545 176.366 120.582 132.127 115.879 117.553C112.492 107.056 88.0617 72.238 88.0617 72.238L61.1406 71.2299Z" fill="#37474F"/>
<path d="M122.926 171.951C118.789 171.922 104.131 171.757 98.625 172.272C98.5828 172.276 98.5839 172.345 98.625 172.351C100.52 172.623 118.792 172.2 122.927 172.067C122.934 172.067 122.942 172.066 122.949 172.063C122.956 172.06 122.962 172.055 122.967 172.05C122.973 172.044 122.977 172.038 122.98 172.031C122.983 172.024 122.984 172.016 122.984 172.009C122.984 172.001 122.982 171.994 122.979 171.987C122.976 171.98 122.972 171.973 122.967 171.968C122.961 171.963 122.955 171.958 122.948 171.956C122.941 171.953 122.933 171.951 122.926 171.951Z" fill="#263238"/>
<path d="M65.8655 75.5527C67.6801 78.3978 69.5934 81.1837 71.4479 84.0043C73.3025 86.8248 75.1528 89.6518 76.977 92.4932C80.6235 98.1717 84.1852 103.902 87.6621 109.684C89.35 112.347 90.7944 115.157 91.9775 118.079C93.061 121.012 93.8744 124.037 94.4074 127.118C94.9715 130.209 95.3435 133.33 95.6947 136.45C96.0682 139.773 96.4392 143.095 96.8074 146.418L99.0841 166.814C99.1777 167.648 99.2667 168.482 99.351 169.317C99.3633 169.439 99.1444 169.463 99.129 169.341C98.2815 162.585 97.5775 155.809 96.8074 149.045L95.6605 138.942C95.304 135.811 94.9667 132.676 94.4794 129.561C94.0311 126.492 93.3532 123.46 92.4514 120.492C91.4541 117.416 90.1186 114.46 88.4695 111.679C85.1313 105.922 81.5993 100.264 78.0652 94.6194C74.5012 88.927 70.9073 83.2518 67.1779 77.6576C66.7178 76.967 66.2535 76.2807 65.7764 75.6007C65.739 75.5484 65.8303 75.4993 65.8655 75.5527Z" fill="#263238"/>
<path d="M70.2152 197.23C68.9018 197.15 34.9915 183.411 34.0485 182.109C34.008 182.032 33.9895 181.945 33.9951 181.858C34.0015 180.692 36.3492 176.611 38.3121 171.256C38.4354 170.913 39.3102 169.325 40.5248 167.181C43.8642 161.296 49.7716 151.212 49.7716 151.212L71.9353 160.018L61.3271 175.899L59.6759 179.741C59.6759 179.741 70.0775 190.491 70.956 192.029C71.8344 193.568 71.5238 197.305 70.2152 197.23Z" fill="#EB9481"/>
<path d="M70.2152 197.23C68.9018 197.15 34.9915 183.411 34.0485 182.109C34.008 182.032 33.9895 181.945 33.9951 181.858C34.0015 180.692 36.3492 176.611 38.3121 171.256C38.4354 170.913 39.3102 169.325 40.5248 167.181L61.3271 175.899L59.6759 179.742C59.6759 179.742 70.0775 190.491 70.956 192.03C71.8344 193.569 71.5238 197.305 70.2152 197.23Z" fill="white"/>
<path d="M70.2122 197.228C68.9003 197.151 34.9911 183.411 34.0481 182.108C33.6884 181.616 35.2041 176.984 38.3102 171.257L59.676 179.743C59.676 179.743 70.0782 190.489 70.9588 192.029C71.8394 193.569 71.5234 197.304 70.2122 197.228Z" fill="#A6A6A6"/>
<path d="M70.2678 195.714C64.774 193.355 42.3915 184.358 36.7813 182.443C36.7359 182.428 36.7237 182.458 36.7674 182.478C42.162 184.936 64.6166 193.751 70.2299 195.805C70.35 195.847 70.3836 195.763 70.2678 195.714Z" fill="#263238"/>
<path d="M69.3062 189.987C68.6958 189.724 68.0374 189.59 67.3726 189.594C66.7079 189.599 66.0513 189.741 65.4444 190.012C64.3485 190.492 63.4794 191.375 63.0171 192.478C63.0054 192.511 63.0657 192.536 63.0844 192.504C63.7131 191.481 64.6568 190.69 65.7737 190.248C66.8907 189.807 68.1206 189.74 69.2789 190.057C69.2882 190.061 69.2985 190.06 69.3076 190.056C69.3167 190.052 69.3239 190.045 69.3275 190.036C69.3311 190.026 69.3309 190.016 69.3269 190.007C69.3229 189.998 69.3154 189.991 69.3062 189.987Z" fill="#263238"/>
<path d="M61.6064 181.159C59.398 180.238 56.5091 179.99 54.4016 181.254C54.3199 181.303 54.3904 181.418 54.4699 181.411C56.8197 181.171 59.1883 181.183 61.5355 181.447C61.5712 181.45 61.6068 181.441 61.6359 181.42C61.6651 181.399 61.6858 181.368 61.6943 181.333C61.7029 181.299 61.6987 181.262 61.6826 181.23C61.6665 181.198 61.6395 181.173 61.6064 181.159Z" fill="#263238"/>
<path d="M63.0516 182.514C60.8432 181.594 57.9543 181.346 55.8468 182.609C55.7651 182.658 55.8361 182.774 55.9156 182.766C58.2652 182.526 60.6337 182.538 62.9806 182.802C63.0165 182.806 63.0524 182.796 63.0818 182.776C63.1112 182.755 63.1322 182.724 63.1408 182.689C63.1494 182.654 63.1451 182.617 63.1288 182.585C63.1124 182.553 63.085 182.528 63.0516 182.514Z" fill="#263238"/>
<path d="M64.5008 183.869C62.2919 182.949 59.403 182.701 57.296 183.964C57.2143 184.013 57.2853 184.129 57.3648 184.121C59.7144 183.881 62.0829 183.893 64.4299 184.158C64.4656 184.161 64.5012 184.151 64.5303 184.13C64.5595 184.109 64.5802 184.079 64.5887 184.044C64.5973 184.009 64.5931 183.973 64.577 183.941C64.5609 183.908 64.5339 183.883 64.5008 183.869Z" fill="#263238"/>
<path d="M65.9463 185.226C63.7378 184.306 60.849 184.058 58.7414 185.322C58.6598 185.371 58.7302 185.486 58.8103 185.478C61.1598 185.238 63.5283 185.251 65.8753 185.515C65.911 185.518 65.9466 185.508 65.9758 185.488C66.0049 185.467 66.0256 185.436 66.0341 185.401C66.0427 185.366 66.0386 185.33 66.0224 185.298C66.0063 185.266 65.9793 185.24 65.9463 185.226Z" fill="#263238"/>
<path d="M40.3051 177.739C37.8106 176.748 36.2667 180.621 38.7649 181.616C41.2631 182.611 42.8044 178.732 40.3051 177.739Z" fill="#263238"/>
<path d="M66.3822 176.194C65.6313 174.811 63.8503 175.155 62.7691 175.845C60.9357 177.064 59.4552 178.744 58.4761 180.716C58.4715 180.725 58.469 180.735 58.4688 180.744C58.4686 180.754 58.4707 180.764 58.4749 180.773C58.4792 180.782 58.4855 180.79 58.4933 180.796C58.5011 180.802 58.5102 180.806 58.5198 180.808C58.5038 180.985 58.6383 181.194 58.8475 181.146C60.867 180.686 63.0829 180.445 64.9006 179.378C65.9622 178.756 67.092 177.502 66.3822 176.194ZM61.7663 179.823C60.7784 180.074 59.7847 180.274 58.8064 180.561C59.6155 179.589 60.4731 178.658 61.3761 177.772C61.8195 177.349 62.2912 176.957 62.7877 176.598C63.5643 176.057 66.4878 175.075 65.7407 177.579C65.3287 178.96 62.9452 179.524 61.7663 179.823V179.823Z" fill="#263238"/>
<path d="M52.6274 179.329C54.442 180.4 56.6574 180.649 58.6752 181.115C58.8845 181.164 59.0195 180.955 59.004 180.777C59.0137 180.775 59.0229 180.771 59.0307 180.765C59.0386 180.759 59.0449 180.752 59.0492 180.743C59.0535 180.734 59.0557 180.724 59.0555 180.714C59.0554 180.704 59.0529 180.695 59.0483 180.686C58.0751 178.711 56.5995 177.027 54.7697 175.803C53.6911 175.109 51.9107 174.76 51.1561 176.14C50.442 177.446 51.5681 178.703 52.6274 179.329ZM51.7933 177.527C51.0536 175.019 53.9739 176.012 54.7489 176.555C55.2442 176.915 55.7146 177.309 56.1567 177.732C57.0572 178.621 57.9122 179.555 58.7185 180.529C57.7413 180.24 56.7481 180.036 55.7613 179.782C54.5845 179.48 52.2005 178.91 51.7933 177.527Z" fill="#263238"/>
<path d="M63.0392 175.01L38.2305 164.993C38.2305 164.993 68.9904 119.765 69.2183 116.398C69.4195 113.417 55.909 87.468 55.3764 79.9055C54.8016 71.7443 58.7317 65.4275 63.0498 61.5076L88.6431 72.3864C88.6431 72.3864 85.942 76.7093 81.6874 79.1109C81.6874 79.1109 94.812 109.104 94.0691 118.327C93.3187 127.602 63.0392 175.01 63.0392 175.01Z" fill="#37474F"/>
<path d="M64.1417 170.292C60.5543 168.749 61.6056 169.142 58.0005 167.639C56.2394 166.904 44.6406 162.083 42.8752 161.686C42.8663 161.686 42.8575 161.688 42.8499 161.692C42.8424 161.697 42.8365 161.704 42.8331 161.712C42.8298 161.72 42.8292 161.73 42.8314 161.738C42.8335 161.747 42.8384 161.754 42.8453 161.76C44.3887 162.705 56.067 167.323 57.8447 168.024C61.4776 169.456 60.4502 169.005 64.0991 170.397C64.106 170.4 64.1133 170.402 64.1208 170.402C64.1282 170.401 64.1356 170.4 64.1425 170.397C64.1493 170.394 64.1556 170.39 64.1608 170.385C64.166 170.379 64.1702 170.373 64.173 170.366C64.1758 170.359 64.1772 170.352 64.1771 170.344C64.1771 170.337 64.1756 170.33 64.1727 170.323C64.1698 170.316 64.1655 170.31 64.1602 170.304C64.1549 170.299 64.1486 170.295 64.1417 170.292Z" fill="#263238"/>
<path d="M85.9006 78.5644C83.2363 79.1843 80.6296 80.0299 78.1087 81.092C78.089 81.0997 78.0731 81.1148 78.0642 81.134C78.0553 81.1532 78.0542 81.1752 78.0611 81.1952C78.068 81.2152 78.0823 81.2318 78.1011 81.2415C78.12 81.2512 78.1418 81.2533 78.1621 81.2473C80.7772 80.4836 83.4387 79.77 86.0074 78.8676C86.0476 78.8534 86.0805 78.8239 86.0989 78.7854C86.1173 78.747 86.1197 78.7028 86.1056 78.6626C86.0914 78.6224 86.0619 78.5895 86.0234 78.5711C85.985 78.5527 85.9408 78.5503 85.9006 78.5644Z" fill="#263238"/>
<path d="M82.8643 77.511C82.6151 77.9529 82.3956 78.4109 82.2073 78.882C82.0228 79.2402 81.9087 79.6304 81.8711 80.0316C81.8711 80.1084 81.9778 80.1271 82.0227 80.0802C82.2911 79.7544 82.5071 79.3889 82.6631 78.9968C82.8808 78.5741 83.1082 78.1557 83.3131 77.7276C83.4524 77.4432 83.0196 77.2398 82.8643 77.511Z" fill="#263238"/>
<path d="M83.1731 75.105C83.33 74.7112 83.488 74.3178 83.6535 73.9277C83.8248 73.5237 84.027 73.1272 84.1637 72.7098C84.1855 72.6442 84.2891 72.6879 84.2629 72.7541C84.1071 73.1485 84.0046 73.5691 83.8792 73.9747C83.7538 74.3803 83.6204 74.7869 83.4859 75.1915C83.235 75.9445 82.9282 76.6922 82.6048 77.4186C83.0248 77.4406 83.4443 77.3676 83.8323 77.2051C84.2227 76.957 84.5258 76.5929 84.699 76.1639C84.9242 75.723 85.1318 75.2726 85.3645 74.836C85.644 74.3627 85.8816 73.8657 86.0743 73.3508C86.0956 73.2846 86.1976 73.3289 86.1741 73.3951C85.8264 74.49 85.3696 75.5472 84.8105 76.5508C84.5746 76.942 84.3835 77.3513 83.9497 77.5024C83.4746 77.6346 82.9774 77.6678 82.4889 77.6C82.4292 77.6166 82.3518 77.5782 82.3726 77.5056C82.5988 76.6924 82.866 75.8912 83.1731 75.105Z" fill="#263238"/>
<path d="M82.0863 80.0892C82.9935 82.0174 83.7941 83.9387 84.648 85.86C85.4789 87.7375 86.2565 89.6364 87.0122 91.5454C88.5386 95.4024 89.9059 99.3298 91.1051 103.301C91.6989 105.266 92.2437 107.244 92.7393 109.237C93.2784 111.228 93.6743 113.256 93.9241 115.304C94.1442 117.346 93.9697 119.412 93.4101 121.388C92.8227 123.34 92.067 125.237 91.1516 127.059C90.5954 128.213 90.4044 128.057 90.6712 127.475C91.4349 125.82 93.4352 120.811 93.2901 116.599C93.1692 114.57 92.8523 112.558 92.3438 110.591C91.8752 108.574 91.3458 106.573 90.7689 104.586C89.6321 100.67 88.2819 96.8316 86.8927 92.9997C86.1146 90.8527 85.2793 88.7275 84.4911 86.5853C83.6953 84.4265 82.8751 82.4844 81.9923 80.1276C81.9915 80.1164 81.9943 80.1051 82.0002 80.0956C82.0061 80.086 82.0149 80.0786 82.0253 80.0743C82.0358 80.07 82.0473 80.0692 82.0582 80.0718C82.0692 80.0745 82.079 80.0806 82.0863 80.0892Z" fill="#263238"/>
<path d="M63.2499 73.7206C63.6945 73.5562 64.3109 73.8273 64.764 73.9047C65.9208 74.1006 67.0988 74.1399 68.2661 74.0216C68.8495 74.0063 69.4213 73.8552 69.936 73.5802C70.78 72.9657 71.5019 72.199 72.0644 71.3195C72.7418 70.424 73.2999 69.4443 73.7247 68.405C73.7477 68.3426 73.8373 68.3853 73.8181 68.4472C73.6313 69.0417 73.4925 69.6416 73.2551 70.2233C73.0238 70.7686 72.7499 71.2949 72.4358 71.7972C71.9211 72.8051 71.1613 73.6676 70.2263 74.3055C69.1969 74.8926 67.8706 74.8579 66.7227 74.7917C66.0588 74.7532 65.3987 74.6651 64.748 74.5281C64.2783 74.4293 63.4885 74.3541 63.1885 73.941C63.1754 73.9233 63.1666 73.9028 63.1626 73.8811C63.1586 73.8594 63.1596 73.8371 63.1655 73.8158C63.1714 73.7946 63.1821 73.775 63.1967 73.7585C63.2113 73.7419 63.2295 73.729 63.2499 73.7206Z" fill="#263238"/>
<path d="M45.3132 160.264C49.3909 154.093 53.3936 147.873 57.3212 141.605C61.2613 135.321 65.135 128.997 68.9424 122.632C69.8545 121.111 70.909 119.59 71.4961 117.906C72.1365 116.073 71.772 114.299 71.1935 112.507C70.1083 109.228 68.8373 106.013 67.3867 102.878C65.9564 99.7248 64.4156 96.6235 62.9005 93.5105C61.3976 90.4236 59.7981 87.3261 58.6576 84.0812C57.5689 80.9821 57.1547 77.7682 57.9905 74.5537C58.8193 71.3644 60.6131 68.5006 62.4863 65.8279C62.9805 65.1228 63.4838 64.4242 63.9807 63.7203C64.0185 63.6669 64.0997 63.7315 64.0602 63.7849C61.9959 66.5713 59.9828 69.5199 58.7723 72.792C58.1535 74.4054 57.8076 76.1105 57.7487 77.8375C57.7384 79.5894 58.0105 81.3315 58.5546 82.9967C59.5585 86.2411 61.143 89.3135 62.6197 92.362C64.129 95.4787 65.6789 98.5758 67.1342 101.718C68.6224 104.87 69.9441 108.098 71.0937 111.389C71.5948 112.857 72.1536 114.394 72.1205 115.968C72.0842 117.692 71.2613 119.244 70.4095 120.697C66.6988 127.024 62.8476 133.272 58.9485 139.483C55.0347 145.718 51.0484 151.908 46.9895 158.052C46.4786 158.827 45.9664 159.601 45.453 160.375C45.3879 160.473 45.2497 160.36 45.3132 160.264Z" fill="#263238"/>
<path d="M90.0641 43.6209C92.3739 48.691 104.043 55.6786 109.509 56.4295C113.44 56.9696 125.38 57.1553 129.475 56.5304C134.27 55.7976 130.606 42.8513 127.771 43.1827C119.979 44.0938 113.364 45.1078 111.283 45.1078C108.744 45.1078 94.9992 40.6963 93.3431 40.0756C89.2903 38.5572 88.7539 40.7454 90.0641 43.6209Z" fill="#AF9893"/>
<path d="M90.1356 44.9637C93.0597 49.2909 102.784 56.366 102.784 56.366L104.133 53.3773L108.598 43.496C108.598 43.496 99.6695 40.6787 93.7941 39.424C93.1027 39.2668 92.3996 39.1666 91.6919 39.1245C87.9395 38.9212 87.6139 41.2406 90.1356 44.9637Z" fill="#BDBDBD"/>
<path d="M90.1356 44.9637C93.0597 49.2909 102.784 56.366 102.784 56.366L104.133 53.3773C100.507 49.1692 94.9111 42.791 91.6919 39.1245C87.9395 38.9212 87.6139 41.2406 90.1356 44.9637Z" fill="#263238"/>
<path d="M101.029 54.3685C101.769 52.5539 105.07 45.2242 105.889 43.6866C105.946 43.5799 106.027 43.5884 105.982 43.7069C104.55 47.3548 102.92 50.9221 101.101 54.393C101.08 54.4368 101.01 54.4144 101.029 54.3685Z" fill="#263238"/>
<path d="M126.34 43.3253C131.082 42.703 136.948 41.6399 141.915 43.7485C142.473 43.9686 142.941 44.3699 143.243 44.8879C145.484 45.7952 145.732 47.1246 145.732 47.1246C147.563 48.6083 147.627 50.0066 147.627 50.0066C147.627 50.0066 150.249 51.0985 149.852 52.7924C149.413 54.694 145.816 52.7882 143.198 52.9499C137.199 53.3197 128.774 55.5239 127.054 55.8025L126.34 43.3253Z" fill="#AF9893"/>
<path d="M136.638 48.9168C138.392 48.7883 140.153 48.7795 141.909 48.8906C143.821 49.1318 145.713 49.515 147.568 50.037C147.58 50.0398 147.592 50.0381 147.602 50.0323C147.613 50.0266 147.62 50.0171 147.624 50.0058C147.628 49.9945 147.627 49.9823 147.622 49.9715C147.617 49.9608 147.608 49.9523 147.597 49.9479C144.113 48.5807 140.32 48.1963 136.633 48.8367C136.549 48.8517 136.549 48.9216 136.638 48.9168Z" fill="#263238"/>
<path d="M135.889 45.3282C137.614 45.3517 140.643 45.4131 145.714 47.1796C145.731 47.1849 145.746 47.1588 145.728 47.1502C142.69 45.6147 139.283 44.9554 135.891 45.246C135.783 45.2535 135.775 45.3266 135.889 45.3282Z" fill="#263238"/>
<path d="M135.521 43.392C138.451 43.5441 140.28 44.0111 143.227 44.8965C143.244 44.9018 143.257 44.8741 143.239 44.8666C139.995 43.5084 138.664 43.3829 135.512 43.2906C135.405 43.2874 135.407 43.3861 135.521 43.392Z" fill="#263238"/>
<path d="M135.997 53.8507C135.235 54.2088 135.418 54.6112 136.876 54.9485C138.35 55.2938 144.392 55.3856 144.179 57.4958C143.965 59.606 135.421 59.3429 133.036 58.5947C130.651 57.8465 127.055 55.8003 127.055 55.8003C128.728 55.518 132.722 54.4463 135.997 53.8507Z" fill="#AF9893"/>
<path d="M96.4077 51.7042C96.3709 52.6158 96.2812 53.5444 96.1532 54.464C96.166 54.4309 96.1798 54.3988 96.1921 54.3657C96.3704 53.8854 96.5428 53.3923 96.7584 52.9285C96.7701 52.904 96.8117 52.9104 96.8075 52.9403C96.7024 53.4493 96.5476 53.9468 96.3453 54.4255C96.2535 54.6523 96.1601 54.8792 96.0614 55.1038C95.9952 55.5137 95.9221 55.9209 95.8388 56.3217C95.6814 57.0849 94.9603 60.3314 94.7965 60.88C94.7618 60.9958 94.6247 60.9691 94.6332 60.8405C94.6727 60.2428 95.2774 56.8613 95.3996 56.096C95.6369 54.6114 95.9544 53.1407 96.3506 51.6903C96.3613 51.6567 96.4077 51.6727 96.4077 51.7042Z" fill="#263238"/>
<path d="M90.8464 75.9664C89.4225 76.7003 87.5866 77.8376 79.3154 76.2087C78.7983 76.102 78.2785 75.9766 77.757 75.8218C70.0004 73.4917 60.6965 64.3698 60.1719 63.7267C60.1719 63.7267 72.4916 43.7501 88.2521 37.4691C90.2001 36.6931 93.4252 38.1895 95.2104 40.0527C95.8508 40.7182 97.2315 45.6191 96.7005 49.5913C96.1694 53.5636 92.2799 75.2395 90.8464 75.9664Z" fill="#21201E"/>
<path d="M89.7468 49.411L89.4004 51.8991" stroke="white" stroke-width="0.5" stroke-miterlimit="10"/>
<path d="M84.3737 63.0148L84.0273 65.5028" stroke="white" stroke-width="0.5" stroke-miterlimit="10"/>
<path d="M75.2409 52.7338L74.8945 55.2218" stroke="white" stroke-width="0.5" stroke-miterlimit="10"/>
<path d="M93.2663 62.3247L92.9199 64.8128" stroke="white" stroke-width="0.5" stroke-miterlimit="10"/>
<path d="M81.5391 50.9688L84.0271 51.3151" stroke="white" stroke-width="0.5" stroke-miterlimit="10"/>
<path d="M71.1738 60.7979L73.6619 61.1442" stroke="white" stroke-width="0.5" stroke-miterlimit="10"/>
<path d="M83.3672 71.4348L85.8553 71.7812" stroke="white" stroke-width="0.5" stroke-miterlimit="10"/>
<path d="M67.9785 67.5709L70.4666 67.9173" stroke="white" stroke-width="0.5" stroke-miterlimit="10"/>
<path d="M89.668 39.8499L92.156 40.1962" stroke="white" stroke-width="0.5" stroke-miterlimit="10"/>
<path d="M86.6569 43.2543L84.6523 44.7689" stroke="white" stroke-width="0.5" stroke-miterlimit="10"/>
<path d="M70.2213 52.928L68.2168 54.4426" stroke="white" stroke-width="0.5" stroke-miterlimit="10"/>
<path d="M90.7384 57.2974L88.7344 58.812" stroke="white" stroke-width="0.5" stroke-miterlimit="10"/>
<path d="M77.4518 65.6646L75.4473 67.1792" stroke="white" stroke-width="0.5" stroke-miterlimit="10"/>
<path d="M95.8307 45.8629L93.8262 47.3775" stroke="white" stroke-width="0.5" stroke-miterlimit="10"/>
<path d="M95.5517 55.5623L94.0371 53.5577" stroke="white" stroke-width="0.5" stroke-miterlimit="10"/>
<path d="M65.9365 62.2409L64.4219 60.2363" stroke="white" stroke-width="0.5" stroke-miterlimit="10"/>
<path d="M91.9521 70.1919L90.4375 68.1874" stroke="white" stroke-width="0.5" stroke-miterlimit="10"/>
<path d="M78.915 47.5356L77.4004 45.531" stroke="white" stroke-width="0.5" stroke-miterlimit="10"/>
<path d="M79.1455 74.716L77.6309 72.7114" stroke="white" stroke-width="0.5" stroke-miterlimit="10"/>
<path d="M81.3623 58.6823L79.8477 56.6777" stroke="white" stroke-width="0.5" stroke-miterlimit="10"/>
<path d="M92.3133 45.3713C90.3051 44.9978 88.4115 40.8408 88.174 38.0443C88.1585 37.8527 89.1139 36.3301 90.1876 34.4253C90.8345 33.2661 91.5277 31.9613 92.0742 30.7242C92.1847 30.4696 92.8433 31.3182 92.8433 31.3182L94.2731 32.4117L98.9989 36.036C97.873 37.387 96.9166 38.8706 96.1511 40.4539C96.0781 40.6262 96.0209 40.8049 95.9803 40.9876C95.9729 41.0121 95.967 41.041 95.9547 41.0767C95.6857 42.1073 94.2544 45.7311 92.3133 45.3713Z" fill="#AF9893"/>
<path d="M95.9814 40.985C95.974 41.0095 95.9681 41.0383 95.9558 41.0741C95.6759 40.993 95.403 40.8893 95.1398 40.764C89.9678 38.34 92.2493 31.4105 92.2493 31.4105L94.2741 32.4117L99 36.036C97.8741 37.387 96.9177 38.8707 96.1522 40.4539C96.0793 40.6254 96.0221 40.8032 95.9814 40.985Z" fill="#263238"/>
<path d="M104.424 21.2666C104.424 21.2666 106.786 22.7668 106.802 25.4347C106.817 28.1027 105.755 30.7124 105.508 30.8058C105.262 30.8992 104.424 21.2666 104.424 21.2666Z" fill="#263238"/>
<path d="M92.6956 22.6511C91.2749 25.4556 91.3469 34.2856 93.1225 36.5612C95.6944 39.86 100.648 40.9968 103.639 37.7354C106.538 34.5738 106.241 23.0674 104.19 20.924C101.168 17.7646 94.7946 18.508 92.6956 22.6511Z" fill="#AF9893"/>
<path d="M100.23 29.7257C100.225 29.7027 100.184 29.755 100.185 29.779C100.218 30.3805 100.154 31.0748 99.6148 31.2872C99.5977 31.2937 99.6004 31.3241 99.6206 31.3209C100.282 31.2125 100.357 30.2898 100.23 29.7257Z" fill="#263238"/>
<path d="M99.6779 29.1092C98.7087 29.0559 98.6778 31.0017 99.576 31.0487C100.46 31.0962 100.491 29.1525 99.6779 29.1092Z" fill="#263238"/>
<path d="M103.523 29.7032C103.528 29.6803 103.569 29.7326 103.568 29.7566C103.54 30.358 103.608 31.0518 104.15 31.2605C104.167 31.2669 104.164 31.2968 104.144 31.2936C103.481 31.1901 103.399 30.2684 103.523 29.7032Z" fill="#263238"/>
<path d="M104.07 29.0831C105.039 29.0249 105.084 30.9675 104.186 31.0214C103.302 31.0748 103.257 29.1316 104.07 29.0831Z" fill="#263238"/>
<path d="M99.0696 27.6304C99.3261 27.5594 99.5788 27.475 99.8264 27.3774C100.105 27.3255 100.359 27.1831 100.548 26.9724C100.595 26.8945 100.615 26.8034 100.604 26.7132C100.594 26.623 100.554 26.5389 100.49 26.4739C100.346 26.3641 100.175 26.295 99.9943 26.2736C99.814 26.2522 99.6313 26.2793 99.4651 26.3522C99.1054 26.4476 98.7943 26.6736 98.5925 26.9862C98.5505 27.0601 98.5308 27.1445 98.5359 27.2293C98.541 27.314 98.5707 27.3955 98.6212 27.4638C98.6718 27.532 98.7411 27.5841 98.8207 27.6137C98.9003 27.6433 98.9868 27.6491 99.0696 27.6304Z" fill="#263238"/>
<path d="M104.744 28.4918C104.484 28.4341 104.228 28.3629 103.975 28.2783C103.694 28.2414 103.433 28.1127 103.232 27.9122C103.182 27.8369 103.157 27.7469 103.163 27.6563C103.169 27.5657 103.204 27.4795 103.264 27.4111C103.402 27.294 103.57 27.2161 103.749 27.1853C103.927 27.1545 104.111 27.172 104.281 27.236C104.646 27.3117 104.97 27.5211 105.188 27.8231C105.234 27.8947 105.259 27.9782 105.258 28.0634C105.257 28.1485 105.232 28.2317 105.185 28.3026C105.138 28.3735 105.071 28.4292 104.993 28.4628C104.915 28.4964 104.828 28.5065 104.744 28.4918Z" fill="#263238"/>
<path d="M98.86 35.4282C99.002 35.5718 99.1429 35.7682 99.3606 35.7896C99.5846 35.7891 99.806 35.7411 100.01 35.6487C100.014 35.647 100.019 35.6468 100.023 35.648C100.028 35.6491 100.032 35.6516 100.034 35.6551C100.037 35.6586 100.039 35.6629 100.039 35.6674C100.039 35.6719 100.038 35.6764 100.036 35.6801C99.9478 35.797 99.8299 35.888 99.6945 35.9433C99.5591 35.9987 99.4113 36.0164 99.2667 35.9945C99.1445 35.9607 99.0351 35.8913 98.9523 35.7953C98.8696 35.6992 98.8172 35.5808 98.8018 35.4549C98.7933 35.4192 98.8392 35.4074 98.86 35.4282Z" fill="#263238"/>
<path d="M102.356 32.8574C102.356 32.8574 102.381 33.7583 102.336 34.1767C101.517 34.091 100.691 34.1206 99.8809 34.2647C99.6903 34.3064 99.709 34.1516 99.9294 34.0513C100.582 33.7521 101.31 33.6556 102.018 33.7743C102.06 33.6617 101.953 32.3867 102.018 32.3904C102.34 32.4551 102.652 32.5628 102.945 32.7106C102.945 30.8326 102.646 28.97 102.675 27.0999C102.675 27.0862 102.68 27.0729 102.69 27.0626C102.699 27.0523 102.711 27.0457 102.725 27.0438C102.738 27.042 102.752 27.0452 102.764 27.0527C102.775 27.0603 102.784 27.0717 102.787 27.085C103.17 29.0719 103.354 31.0922 103.335 33.1157C103.343 33.3532 102.516 32.9444 102.356 32.8574Z" fill="#263238"/>
<path d="M101.154 33.8544C100.939 34.4125 100.545 34.8835 100.033 35.1934C99.2263 35.52 98.9493 34.7899 99.7733 34.1441C100.198 33.9222 100.676 33.8219 101.154 33.8544Z" fill="#263238"/>
<path d="M100.314 35.029C100.228 35.0981 100.133 35.1539 100.031 35.1945C99.2891 35.4934 98.9956 34.901 99.5933 34.3032C99.9989 34.3352 100.442 34.4847 100.314 35.029Z" fill="#FF99BA"/>
<path d="M92.286 30.2055C93.2616 30.5049 94.3845 27.5706 94.702 26.4419C94.9817 25.4476 95.3046 22.2935 95.3521 22.0784C95.3995 21.8633 99.6066 24.8696 102.066 24.1507C104.526 23.4318 106.17 21.2239 106.204 20.1939C106.237 19.1639 103.183 16.5483 100.541 16.4143C97.8978 16.2803 94.321 19.6394 94.321 19.6394C94.7536 19.1482 95.1463 18.6232 95.4951 18.0693C95.454 17.9503 93.7467 18.6323 93.4324 19.8486C93.4324 19.8486 93.7702 18.3223 93.641 18.2934C93.5119 18.2646 92.1851 19.5743 92.4845 20.5638C92.4845 20.5638 90.9496 21.8932 90.8077 23.3507C90.6657 24.8082 91.1396 29.8537 92.286 30.2055Z" fill="#263238"/>
<path d="M103.815 23.6368C103.087 24.029 102.303 24.3093 101.491 24.4683C100.586 24.5458 99.6751 24.3991 98.8395 24.0413C97.9948 23.7115 97.2093 23.2467 96.5137 22.6649C95.8984 22.1584 95.3529 21.5474 94.6959 21.0964C94.5316 20.9832 94.341 21.2202 94.4424 21.3712C95.5396 22.9164 97.1043 24.0682 98.9057 24.6566C99.7421 24.9304 100.635 24.982 101.498 24.8063C102.36 24.6306 103.162 24.2336 103.824 23.6544C103.833 23.649 103.826 23.6309 103.815 23.6368Z" fill="#263238"/>
<path d="M93.3078 29.9439C93.3078 29.9439 91.7937 26.8688 90.4259 27.3678C89.058 27.8668 89.9002 32.1149 91.2947 32.8931C91.4667 33.0051 91.6595 33.0813 91.8616 33.1169C92.0637 33.1525 92.271 33.1469 92.4708 33.1003C92.6707 33.0537 92.8591 32.9672 93.0247 32.8459C93.1903 32.7246 93.3296 32.5711 93.4343 32.3946L93.3078 29.9439Z" fill="#AF9893"/>
<path d="M90.6978 28.5792C90.693 28.5785 90.6882 28.5794 90.684 28.5819C90.6799 28.5844 90.6767 28.5882 90.6751 28.5927C90.6734 28.5973 90.6734 28.6022 90.675 28.6068C90.6767 28.6113 90.6798 28.6152 90.6839 28.6177C91.6563 29.1972 92.0545 30.2433 92.285 31.2989C92.2407 31.1858 92.1724 31.0836 92.0848 30.9995C91.9972 30.9153 91.8923 30.8512 91.7775 30.8114C91.6627 30.7717 91.5407 30.7574 91.4198 30.7694C91.2989 30.7814 91.182 30.8195 91.0773 30.881C91.0474 30.896 91.0666 30.9424 91.097 30.9408C91.2883 30.9108 91.4843 30.9409 91.6578 31.0269C91.8313 31.1129 91.9738 31.2507 92.0657 31.4211C92.2178 31.7069 92.3388 32.0082 92.4264 32.3199C92.4606 32.4202 92.6357 32.3962 92.617 32.2841L92.6122 32.2585C92.8411 30.9392 92.0982 28.9309 90.6978 28.5792Z" fill="#263238"/>
<path d="M83.3008 43.6689C82.2574 49.7145 88.785 70.0867 92.9878 73.8919C99.2379 79.549 110.794 83.2715 114.981 84.4819C116.806 85.0098 121.855 72.1675 120.009 71.3216C116.055 69.5103 103.769 65.6784 102.611 64.6942C101.453 63.7101 94.392 53.5534 91.256 47.6951C87.0473 39.8354 83.8286 40.6108 83.3008 43.6689Z" fill="#AF9893"/>
<path d="M116.903 70.1918C116.903 70.1918 122.352 71.5794 125.873 72.6564C127.837 73.2562 131.113 74.5857 132.355 75.6867C134.211 77.3336 140.926 85.4068 139.003 87.0773C137.263 88.5887 132.375 80.9201 132.375 80.9201C132.375 80.9201 137.992 88.222 135.562 89.6577C133.131 91.0933 128.761 81.6939 128.761 81.6939C128.761 81.6939 134.365 89.3257 131.623 90.4091C129.553 91.2283 125.115 82.9374 125.115 82.9374C125.115 82.9374 129.885 89.5307 127.792 90.4625C125.478 91.4941 120.902 84.0993 120.902 84.0993C115.182 85.5776 111.853 83.9392 109.625 82.4955C109.082 82.1486 116.903 70.1918 116.903 70.1918Z" fill="#AF9893"/>
<path d="M130.592 78.2703C131.283 79.1039 131.988 79.9434 132.602 80.8358C133.216 81.7281 133.8 82.6428 134.328 83.5886C135.044 84.8106 135.617 86.1108 136.036 87.4637C135.117 85.1154 132.968 81.8887 132.353 80.9959C131.739 80.103 131.172 79.184 130.56 78.2922C130.542 78.2698 130.576 78.2506 130.592 78.2703Z" fill="#263238"/>
<path d="M127.328 80.4297C128.512 81.3684 130.996 84.8593 131.953 87.2028C131.994 87.301 131.941 87.2929 131.883 87.2028C131.132 86.0462 128.102 81.5616 127.3 80.4473C127.288 80.4302 127.312 80.4169 127.328 80.4297Z" fill="#263238"/>
<path d="M124.195 81.7799C125.671 83.3259 126.834 85.142 127.622 87.1285C127.662 87.2257 127.585 87.2107 127.529 87.1189C126.423 85.3193 125.569 83.8997 124.139 81.8268C124.116 81.797 124.163 81.7484 124.195 81.7799Z" fill="#263238"/>
<path d="M89.2401 44.1135C84.3669 37.2214 81.4551 39.7767 82.4323 47.2575C83.346 54.2537 85.7983 62.5883 85.7983 62.5883L98.0956 56.6323C98.0956 56.6323 92.3585 48.5245 89.2401 44.1135Z" fill="#6B6B6B"/>
<path d="M92.2188 46.8236L92.6484 49.2989" stroke="white" stroke-width="0.5" stroke-miterlimit="10"/>
<path d="M84.9414 51.0136L87.4167 50.584" stroke="white" stroke-width="0.5" stroke-miterlimit="10"/>
<path d="M85.2593 40.2965L83.8125 42.3507" stroke="white" stroke-width="0.5" stroke-miterlimit="10"/>
<path d="M95.6358 54.2323L94.1895 56.2859" stroke="white" stroke-width="0.5" stroke-miterlimit="10"/>
<path d="M87.1279 58.4127L85.0742 56.9658" stroke="white" stroke-width="0.5" stroke-miterlimit="10"/>
<path d="M90.8744 46.1879C91.5287 47.0883 92.2087 47.971 92.8822 48.8564C92.7109 48.4092 92.562 47.9577 92.4302 47.4955C92.4291 47.4912 92.4297 47.4868 92.4318 47.483C92.434 47.4792 92.4375 47.4763 92.4416 47.4751C92.4458 47.4738 92.4503 47.4741 92.4542 47.476C92.4581 47.4779 92.4612 47.4813 92.4627 47.4853C92.5993 47.8397 92.7509 48.1882 92.8817 48.5442C92.9446 48.7153 93.0089 48.8861 93.0743 49.0565L93.1175 49.1659C93.6432 49.856 94.1668 50.5477 94.6727 51.2521C95.2763 52.0927 95.8591 52.9471 96.4446 53.8005C97.0498 54.6827 97.623 55.7165 98.2591 56.5757C97.881 56.8126 97.4808 57.0122 97.0642 57.1719C96.9548 57.2327 96.8806 57.1265 96.997 57.0913C97.1037 57.0587 98.011 56.5015 98.0211 56.4909C97.4341 55.6305 96.7563 54.8364 96.1436 53.9937C95.5309 53.151 94.922 52.3211 94.329 51.4704C93.1288 49.7434 92.0256 47.948 90.8344 46.2146C90.8227 46.1885 90.8574 46.166 90.8744 46.1879Z" fill="#263238"/>
<path d="M82.7348 52.2064C82.9216 52.5704 83.1228 52.9307 83.2883 53.3048C83.3566 53.4596 83.4238 53.6149 83.4927 53.7691C83.2119 52.437 82.9358 51.104 82.6644 49.7702C82.6612 49.7541 82.6846 49.7461 82.6889 49.7621C83.2525 51.922 83.8214 54.0797 84.3434 56.2497C84.9119 58.3162 85.375 60.4103 85.731 62.5238C86.1045 62.362 86.4908 62.2316 86.8859 62.1337C86.4913 62.3919 86.0651 62.5982 85.6178 62.7474C84.9725 60.6001 84.4381 58.421 84.0167 56.2188C83.8833 55.621 83.759 55.0217 83.6314 54.4229C83.4932 54.0621 83.3245 53.7141 83.1607 53.364C82.9867 52.9931 82.8469 52.6046 82.6953 52.2246C82.6878 52.2022 82.7236 52.1851 82.7348 52.2064Z" fill="#263238"/>
<path d="M85.9939 60.5315C87.7017 59.5676 94.8398 55.8734 96.4366 55.177C96.5476 55.1284 96.6053 55.185 96.4969 55.2501C93.1096 57.2202 89.6177 59.0047 86.0366 60.5955C85.9917 60.6174 85.9485 60.556 85.9939 60.5315Z" fill="#263238"/>
<path d="M281.554 200.838H118.949L142.462 67.494H305.066L281.554 200.838Z" fill="#9398B0"/>
<path d="M198.112 53.6847H144.896L142.461 67.494H199.409L198.112 53.6847Z" fill="#9398B0"/>
<g opacity="0.1">
<path d="M281.554 200.838H118.949L142.462 67.494H305.066L281.554 200.838Z" fill="black"/>
<path d="M198.112 53.6847H144.896L142.461 67.494H199.409L198.112 53.6847Z" fill="black"/>
</g>
<path d="M139.154 59.3183V54.6736" stroke="#263238" stroke-miterlimit="10"/>
<path d="M134.426 60.6851L132.104 56.6632" stroke="#263238" stroke-miterlimit="10"/>
<path d="M131.014 64.2342L126.992 61.9121" stroke="#263238" stroke-miterlimit="10"/>
<path d="M129.834 69.0134H125.189" stroke="#263238" stroke-miterlimit="10"/>
<path d="M131.202 73.7424L127.18 76.0645" stroke="#263238" stroke-miterlimit="10"/>
<path d="M134.75 77.1538L132.428 81.1757" stroke="#263238" stroke-miterlimit="10"/>
<path d="M139.529 78.3337V82.9785" stroke="#263238" stroke-miterlimit="10"/>
<path d="M144.258 76.9664L146.58 80.9889" stroke="#263238" stroke-miterlimit="10"/>
<path d="M147.67 73.4174L151.692 75.7395" stroke="#263238" stroke-miterlimit="10"/>
<path d="M148.85 68.6382H153.494" stroke="#263238" stroke-miterlimit="10"/>
<path d="M147.482 63.9096L151.505 61.5875" stroke="#263238" stroke-miterlimit="10"/>
<path d="M143.934 60.4983L146.256 56.4758" stroke="#263238" stroke-miterlimit="10"/>
<path d="M281.316 200.838H118.361L95.2246 72.3346H258.18L281.316 200.838Z" fill="#9398B0"/>
<path d="M151.691 150.89C155.432 150.89 158.464 147.857 158.464 144.117C158.464 140.376 155.432 137.344 151.691 137.344C147.95 137.344 144.918 140.376 144.918 144.117C144.918 147.857 147.95 150.89 151.691 150.89Z" fill="white"/>
<path d="M205.234 150.89C208.975 150.89 212.007 147.857 212.007 144.117C212.007 140.376 208.975 137.344 205.234 137.344C201.493 137.344 198.461 140.376 198.461 144.117C198.461 147.857 201.493 150.89 205.234 150.89Z" fill="white"/>
<path d="M188.191 151.971L187.817 151.262C187.783 151.198 184.284 144.73 177.244 144.73C170.823 144.73 169.258 150.82 169.194 151.081L169.004 151.857L167.451 151.483L167.638 150.707C167.656 150.631 169.546 143.133 177.244 143.133C185.27 143.133 189.077 150.221 189.235 150.522L189.609 151.231L188.191 151.971Z" fill="#EEEEEE"/>
<path d="M270.502 143.339C279.963 141.307 288.51 134.24 289.235 125.807C290.653 109.262 270.502 100.123 272.583 81.0049C274.569 62.7687 293.697 61.467 301.365 63.9881C309.835 66.7724 306.933 74.9128 299.264 73.8615C285.97 72.0405 277.614 57.5876 283.928 41.1931C289.916 25.6461 307.25 22.39 307.25 22.39" stroke="#263238" stroke-miterlimit="10" stroke-dasharray="4 4"/>
<path d="M315.711 19.4423C314.349 15.2262 305.234 16.7397 307.012 22.2506C308.791 27.7615 317.073 23.6606 315.711 19.4423Z" fill="#263238"/>
<path d="M302.056 17.7415C302.124 15.8917 304.697 14.4684 308.336 15.1264C311.974 15.7845 315.4 18.2341 315.4 18.2341C315.4 18.2341 311.802 20.435 308.126 20.823C304.45 21.211 301.986 19.6004 302.056 17.7415Z" fill="#EBEBEB"/>
<path d="M315.399 18.2341C313.511 18.2474 311.625 18.1839 309.738 18.1274C307.853 18.0462 305.967 17.9721 304.084 17.8194C305.973 17.8055 307.859 17.8696 309.745 17.9262C311.631 18.0051 313.516 18.0804 315.399 18.2341Z" fill="#263238"/>
<path d="M305.713 16.1036C306.25 16.359 306.771 16.6459 307.273 16.9629C307.779 17.2762 308.264 17.6196 308.728 17.9913C308.191 17.7368 307.67 17.4499 307.167 17.1321C306.662 16.8186 306.177 16.4752 305.713 16.1036Z" fill="#263238"/>
<path d="M310.657 18.058C310.173 18.4507 309.667 18.8158 309.142 19.1515C308.619 19.491 308.078 19.8002 307.52 20.0775C308.49 19.2939 309.542 18.6168 310.657 18.058Z" fill="#263238"/>
<path d="M311.207 17.0162C311.745 17.2786 312.217 17.6589 312.587 18.129C312.318 17.9994 312.065 17.8381 311.834 17.6487C311.601 17.4631 311.391 17.2508 311.207 17.0162Z" fill="#263238"/>
<path d="M305.522 28.7212C306.659 30.1819 309.578 29.8313 312.146 27.1708C314.713 24.5104 316.059 20.5194 316.059 20.5194C316.059 20.5194 311.854 20.8396 308.645 22.6734C305.436 24.5072 304.38 27.2535 305.522 28.7212Z" fill="#EBEBEB"/>
<path d="M316.058 20.5194C314.518 21.6135 313.026 22.7679 311.529 23.918C310.047 25.0862 308.561 26.2497 307.123 27.474C308.663 26.3804 310.156 25.226 311.652 24.0759C313.134 22.9071 314.62 21.7437 316.058 20.5194Z" fill="#263238"/>
<path d="M309.445 27.911C309.731 27.3902 309.986 26.8529 310.209 26.3019C310.435 25.7524 310.629 25.1898 310.788 24.6171C310.501 25.1376 310.246 25.6749 310.024 26.2261C309.798 26.7758 309.605 27.3384 309.445 27.911Z" fill="#263238"/>
<path d="M312.314 23.4344C311.069 23.3666 309.819 23.4324 308.588 23.6308C309.21 23.6665 309.834 23.6665 310.456 23.6308C311.078 23.6004 311.699 23.5348 312.314 23.4344Z" fill="#263238"/>
<path d="M313.369 23.958C313.512 23.6959 313.622 23.4178 313.7 23.1297C313.781 22.8426 313.827 22.5467 313.838 22.2485C313.695 22.5104 313.584 22.7885 313.507 23.0768C313.426 23.3641 313.38 23.6598 313.369 23.958Z" fill="#263238"/>
<path d="M315.712 19.4423C315.411 19.5401 315.087 19.5463 314.783 19.4601C314.478 19.3739 314.205 19.1991 314 18.958C313.794 18.7168 313.665 18.4201 313.628 18.1054C313.591 17.7908 313.649 17.4722 313.793 17.1901C313.937 16.9081 314.162 16.6752 314.439 16.5209C314.716 16.3667 315.032 16.298 315.348 16.3236C315.663 16.3492 315.965 16.4679 316.213 16.6647C316.461 16.8616 316.645 17.1276 316.742 17.4293C316.872 17.8328 316.837 18.2714 316.644 18.6487C316.451 19.0261 316.116 19.3115 315.712 19.4423Z" fill="#455A64"/>
<path d="M316.694 22.4861C316.393 22.5838 316.069 22.5898 315.765 22.5035C315.46 22.4172 315.187 22.2424 314.982 22.0012C314.776 21.7601 314.647 21.4633 314.61 21.1486C314.574 20.834 314.631 20.5154 314.776 20.2334C314.92 19.9514 315.145 19.7186 315.421 19.5644C315.698 19.4102 316.015 19.3415 316.33 19.3672C316.646 19.3928 316.947 19.5116 317.195 19.7085C317.444 19.9053 317.628 20.1714 317.725 20.473C317.855 20.8766 317.819 21.3152 317.626 21.6926C317.433 22.07 317.098 22.3554 316.694 22.4861Z" fill="#455A64"/>
<path d="M141.724 21.1268C141.469 23.5784 140.537 25.9107 139.033 27.8635C137.529 29.8162 135.511 31.3125 133.206 32.1852C130.901 33.0579 128.399 33.2727 125.978 32.8057C123.558 32.3387 121.315 31.2082 119.5 29.5404L112.846 30.5171L116.175 24.7644C115.412 22.8917 115.085 20.8695 115.221 18.8516C115.356 16.8337 115.95 14.8733 116.957 13.1193C117.964 11.3654 119.357 9.86407 121.031 8.72957C122.706 7.59507 124.616 6.85723 126.619 6.57215C128.621 6.28708 130.662 6.46227 132.586 7.08442C134.51 7.70656 136.268 8.75927 137.724 10.1625C139.18 11.5658 140.298 13.2826 140.991 15.1825C141.684 17.0824 141.935 19.1153 141.724 21.1268Z" fill="white"/>
<path d="M141.725 21.1268C141.468 23.5788 140.539 25.9123 139.041 27.87C138.308 28.8572 137.428 29.7262 136.432 30.4467C135.451 31.1897 134.371 31.791 133.222 32.2329C132.074 32.6826 130.869 32.97 129.641 33.0868C129.027 33.1421 128.409 33.1538 127.793 33.1221C127.175 33.1071 126.56 33.043 125.952 32.9305C123.5 32.4798 121.221 31.3547 119.371 29.6813L119.529 29.7299L112.881 30.7503L112.4 30.8245L112.645 30.3976L115.954 24.6337L115.938 24.8616C115.158 22.9546 114.826 20.8938 114.968 18.8382C115.11 16.7826 115.722 14.7871 116.757 13.0056C117.793 11.2314 119.218 9.71481 120.923 8.56954C122.627 7.44145 124.564 6.71378 126.589 6.44111C128.614 6.16844 130.674 6.35786 132.616 6.99515C134.539 7.64714 136.292 8.72202 137.745 10.1407C139.197 11.5516 140.309 13.2734 140.998 15.1763C141.687 17.0793 141.936 19.1138 141.725 21.1268ZM141.725 21.1268C141.938 19.1235 141.688 17.0982 140.994 15.2068C140.301 13.3154 139.182 11.6086 137.725 10.2178C136.268 8.82694 134.51 7.78933 132.589 7.1849C130.667 6.58047 128.632 6.42535 126.641 6.73151C124.668 7.02634 122.789 7.76881 121.147 8.90203C119.521 10.0434 118.163 11.5246 117.167 13.2431C116.187 14.9676 115.609 16.8918 115.479 18.8714C115.355 20.8487 115.675 22.8286 116.415 24.6662L116.463 24.7853L116.4 24.892L113.05 30.6335L112.812 30.2828L119.473 29.3499L119.565 29.3371L119.631 29.3985C121.408 31.0627 123.614 32.1987 126 32.6791C126.595 32.8002 127.199 32.8735 127.805 32.8984C128.411 32.9414 129.019 32.9414 129.625 32.8984C130.84 32.8041 132.036 32.5408 133.178 32.1161C134.327 31.7013 135.408 31.1186 136.386 30.3869C137.383 29.6771 138.265 28.8183 139.001 27.8406C140.51 25.8961 141.453 23.5728 141.725 21.1268Z" fill="#263238"/>
<path d="M121.992 25.9455C121.982 25.7689 122.008 25.592 122.069 25.4258C122.13 25.2596 122.224 25.1078 122.346 24.9795C122.468 24.8513 122.615 24.7495 122.778 24.6804C122.941 24.6112 123.117 24.5763 123.294 24.5777C123.644 24.596 123.974 24.7481 124.215 25.0025C124.457 25.257 124.591 25.5944 124.591 25.9453C124.591 26.2961 124.457 26.6335 124.215 26.888C123.974 27.1425 123.644 27.2945 123.294 27.3129C123.117 27.3142 122.941 27.2793 122.778 27.2102C122.616 27.1411 122.469 27.0394 122.347 26.9112C122.225 26.783 122.13 26.6312 122.069 26.4651C122.008 26.299 121.982 26.1222 121.992 25.9455ZM122.544 22.7909L122.235 12.2035H124.352L124.044 22.7914L122.544 22.7909Z" fill="#606060"/>
<path d="M127.067 25.9455C127.056 25.7688 127.083 25.5919 127.144 25.4258C127.205 25.2596 127.299 25.1077 127.421 24.9795C127.543 24.8513 127.69 24.7495 127.853 24.6804C128.016 24.6112 128.191 24.5763 128.368 24.5777C128.719 24.596 129.049 24.7481 129.29 25.0025C129.532 25.257 129.666 25.5944 129.666 25.9453C129.666 26.2961 129.532 26.6335 129.29 26.888C129.049 27.1425 128.719 27.2945 128.368 27.3129C128.191 27.3143 128.016 27.2794 127.853 27.2104C127.69 27.1413 127.543 27.0396 127.421 26.9114C127.299 26.7832 127.205 26.6314 127.144 26.4652C127.083 26.2991 127.056 26.1222 127.067 25.9455ZM127.618 22.7909L127.309 12.2035H129.427L129.118 22.7914L127.618 22.7909Z" fill="#606060"/>
<path d="M132.141 25.9455C132.131 25.7688 132.157 25.5919 132.218 25.4258C132.279 25.2596 132.373 25.1077 132.495 24.9795C132.617 24.8513 132.764 24.7495 132.927 24.6804C133.09 24.6112 133.265 24.5763 133.442 24.5777C133.793 24.596 134.123 24.7481 134.364 25.0025C134.606 25.257 134.74 25.5944 134.74 25.9453C134.74 26.2961 134.606 26.6335 134.364 26.888C134.123 27.1425 133.793 27.2945 133.442 27.3129C133.266 27.3143 133.09 27.2794 132.927 27.2104C132.764 27.1413 132.617 27.0396 132.495 26.9114C132.373 26.7832 132.279 26.6314 132.218 26.4652C132.157 26.2991 132.131 26.1222 132.141 25.9455ZM132.693 22.7909L132.384 12.2035H134.501L134.194 22.7909H132.693Z" fill="#606060"/>
</g>
<path d="M7.44119 253.126C6.27719 253.126 5.21519 252.856 4.25519 252.316C3.29519 251.764 2.53319 251.002 1.96919 250.03C1.41719 249.046 1.14119 247.942 1.14119 246.718C1.14119 245.494 1.41719 244.396 1.96919 243.424C2.53319 242.44 3.29519 241.678 4.25519 241.138C5.21519 240.586 6.27719 240.31 7.44119 240.31C8.61719 240.31 9.68519 240.586 10.6452 241.138C11.6052 241.678 12.3612 242.434 12.9132 243.406C13.4652 244.378 13.7412 245.482 13.7412 246.718C13.7412 247.954 13.4652 249.058 12.9132 250.03C12.3612 251.002 11.6052 251.764 10.6452 252.316C9.68519 252.856 8.61719 253.126 7.44119 253.126ZM7.44119 251.704C8.31719 251.704 9.10319 251.5 9.79919 251.092C10.5072 250.684 11.0592 250.102 11.4552 249.346C11.8632 248.59 12.0672 247.714 12.0672 246.718C12.0672 245.71 11.8632 244.834 11.4552 244.09C11.0592 243.334 10.5132 242.752 9.81719 242.344C9.12119 241.936 8.32919 241.732 7.44119 241.732C6.55319 241.732 5.76119 241.936 5.06519 242.344C4.36919 242.752 3.81719 243.334 3.40919 244.09C3.01319 244.834 2.81519 245.71 2.81519 246.718C2.81519 247.714 3.01319 248.59 3.40919 249.346C3.81719 250.102 4.36919 250.684 5.06519 251.092C5.77319 251.5 6.56519 251.704 7.44119 251.704ZM20.2056 253.162C19.2816 253.162 18.4416 252.952 17.6856 252.532C16.9416 252.112 16.3536 251.518 15.9216 250.75C15.5016 249.97 15.2916 249.07 15.2916 248.05C15.2916 247.042 15.5076 246.154 15.9396 245.386C16.3836 244.606 16.9836 244.012 17.7396 243.604C18.4956 243.184 19.3416 242.974 20.2776 242.974C21.2136 242.974 22.0596 243.184 22.8156 243.604C23.5716 244.012 24.1656 244.6 24.5976 245.368C25.0416 246.136 25.2636 247.03 25.2636 248.05C25.2636 249.07 25.0356 249.97 24.5796 250.75C24.1356 251.518 23.5296 252.112 22.7616 252.532C21.9936 252.952 21.1416 253.162 20.2056 253.162ZM20.2056 251.722C20.7936 251.722 21.3456 251.584 21.8616 251.308C22.3776 251.032 22.7916 250.618 23.1036 250.066C23.4276 249.514 23.5896 248.842 23.5896 248.05C23.5896 247.258 23.4336 246.586 23.1216 246.034C22.8096 245.482 22.4016 245.074 21.8976 244.81C21.3936 244.534 20.8476 244.396 20.2596 244.396C19.6596 244.396 19.1076 244.534 18.6036 244.81C18.1116 245.074 17.7156 245.482 17.4156 246.034C17.1156 246.586 16.9656 247.258 16.9656 248.05C16.9656 248.854 17.1096 249.532 17.3976 250.084C17.6976 250.636 18.0936 251.05 18.5856 251.326C19.0776 251.59 19.6176 251.722 20.2056 251.722ZM31.7193 253.162C30.7953 253.162 29.9553 252.952 29.1993 252.532C28.4553 252.112 27.8673 251.518 27.4353 250.75C27.0153 249.97 26.8053 249.07 26.8053 248.05C26.8053 247.042 27.0213 246.154 27.4533 245.386C27.8973 244.606 28.4973 244.012 29.2533 243.604C30.0093 243.184 30.8553 242.974 31.7913 242.974C32.7273 242.974 33.5733 243.184 34.3293 243.604C35.0853 244.012 35.6793 244.6 36.1113 245.368C36.5553 246.136 36.7773 247.03 36.7773 248.05C36.7773 249.07 36.5493 249.97 36.0933 250.75C35.6493 251.518 35.0433 252.112 34.2753 252.532C33.5073 252.952 32.6553 253.162 31.7193 253.162ZM31.7193 251.722C32.3073 251.722 32.8593 251.584 33.3753 251.308C33.8913 251.032 34.3053 250.618 34.6173 250.066C34.9413 249.514 35.1033 248.842 35.1033 248.05C35.1033 247.258 34.9473 246.586 34.6353 246.034C34.3233 245.482 33.9153 245.074 33.4113 244.81C32.9073 244.534 32.3613 244.396 31.7733 244.396C31.1733 244.396 30.6213 244.534 30.1173 244.81C29.6253 245.074 29.2293 245.482 28.9293 246.034C28.6293 246.586 28.4793 247.258 28.4793 248.05C28.4793 248.854 28.6233 249.532 28.9113 250.084C29.2113 250.636 29.6073 251.05 30.0993 251.326C30.5913 251.59 31.1313 251.722 31.7193 251.722ZM40.5689 244.954C40.8929 244.39 41.3729 243.922 42.0089 243.55C42.6569 243.166 43.4069 242.974 44.2589 242.974C45.1349 242.974 45.9269 243.184 46.6349 243.604C47.3549 244.024 47.9189 244.618 48.3269 245.386C48.7349 246.142 48.9389 247.024 48.9389 248.032C48.9389 249.028 48.7349 249.916 48.3269 250.696C47.9189 251.476 47.3549 252.082 46.6349 252.514C45.9269 252.946 45.1349 253.162 44.2589 253.162C43.4189 253.162 42.6749 252.976 42.0269 252.604C41.3909 252.22 40.9049 251.746 40.5689 251.182V257.68H38.9309V243.136H40.5689V244.954ZM47.2649 248.032C47.2649 247.288 47.1149 246.64 46.8149 246.088C46.5149 245.536 46.1069 245.116 45.5909 244.828C45.0869 244.54 44.5289 244.396 43.9169 244.396C43.3169 244.396 42.7589 244.546 42.2429 244.846C41.7389 245.134 41.3309 245.56 41.0189 246.124C40.7189 246.676 40.5689 247.318 40.5689 248.05C40.5689 248.794 40.7189 249.448 41.0189 250.012C41.3309 250.564 41.7389 250.99 42.2429 251.29C42.7589 251.578 43.3169 251.722 43.9169 251.722C44.5289 251.722 45.0869 251.578 45.5909 251.29C46.1069 250.99 46.5149 250.564 46.8149 250.012C47.1149 249.448 47.2649 248.788 47.2649 248.032ZM54.587 253.162C53.831 253.162 53.153 253.036 52.553 252.784C51.953 252.52 51.479 252.16 51.131 251.704C50.783 251.236 50.591 250.702 50.555 250.102H52.247C52.295 250.594 52.523 250.996 52.931 251.308C53.351 251.62 53.897 251.776 54.569 251.776C55.193 251.776 55.685 251.638 56.045 251.362C56.405 251.086 56.585 250.738 56.585 250.318C56.585 249.886 56.393 249.568 56.009 249.364C55.625 249.148 55.031 248.938 54.227 248.734C53.495 248.542 52.895 248.35 52.427 248.158C51.971 247.954 51.575 247.66 51.239 247.276C50.915 246.88 50.753 246.364 50.753 245.728C50.753 245.224 50.903 244.762 51.203 244.342C51.503 243.922 51.929 243.592 52.481 243.352C53.033 243.1 53.663 242.974 54.371 242.974C55.463 242.974 56.345 243.25 57.017 243.802C57.689 244.354 58.049 245.11 58.097 246.07H56.459C56.423 245.554 56.213 245.14 55.829 244.828C55.457 244.516 54.953 244.36 54.317 244.36C53.729 244.36 53.261 244.486 52.913 244.738C52.565 244.99 52.391 245.32 52.391 245.728C52.391 246.052 52.493 246.322 52.697 246.538C52.913 246.742 53.177 246.91 53.489 247.042C53.813 247.162 54.257 247.3 54.821 247.456C55.529 247.648 56.105 247.84 56.549 248.032C56.993 248.212 57.371 248.488 57.683 248.86C58.007 249.232 58.175 249.718 58.187 250.318C58.187 250.858 58.037 251.344 57.737 251.776C57.437 252.208 57.011 252.55 56.459 252.802C55.919 253.042 55.295 253.162 54.587 253.162ZM73.7941 243.136L67.8541 257.644H66.1621L68.1061 252.892L64.1281 243.136H65.9461L69.0421 251.128L72.1021 243.136H73.7941ZM79.7427 253.162C78.8187 253.162 77.9787 252.952 77.2227 252.532C76.4787 252.112 75.8907 251.518 75.4587 250.75C75.0387 249.97 74.8287 249.07 74.8287 248.05C74.8287 247.042 75.0447 246.154 75.4767 245.386C75.9207 244.606 76.5207 244.012 77.2767 243.604C78.0327 243.184 78.8787 242.974 79.8147 242.974C80.7507 242.974 81.5967 243.184 82.3527 243.604C83.1087 244.012 83.7027 244.6 84.1347 245.368C84.5787 246.136 84.8007 247.03 84.8007 248.05C84.8007 249.07 84.5727 249.97 84.1167 250.75C83.6727 251.518 83.0667 252.112 82.2987 252.532C81.5307 252.952 80.6787 253.162 79.7427 253.162ZM79.7427 251.722C80.3307 251.722 80.8827 251.584 81.3987 251.308C81.9147 251.032 82.3287 250.618 82.6407 250.066C82.9647 249.514 83.1267 248.842 83.1267 248.05C83.1267 247.258 82.9707 246.586 82.6587 246.034C82.3467 245.482 81.9387 245.074 81.4347 244.81C80.9307 244.534 80.3847 244.396 79.7967 244.396C79.1967 244.396 78.6447 244.534 78.1407 244.81C77.6487 245.074 77.2527 245.482 76.9527 246.034C76.6527 246.586 76.5027 247.258 76.5027 248.05C76.5027 248.854 76.6467 249.532 76.9347 250.084C77.2347 250.636 77.6307 251.05 78.1227 251.326C78.6147 251.59 79.1547 251.722 79.7427 251.722ZM95.7024 243.136V253H94.0644V251.542C93.7524 252.046 93.3144 252.442 92.7504 252.73C92.1984 253.006 91.5864 253.144 90.9144 253.144C90.1464 253.144 89.4564 252.988 88.8444 252.676C88.2324 252.352 87.7464 251.872 87.3864 251.236C87.0384 250.6 86.8644 249.826 86.8644 248.914V243.136H88.4844V248.698C88.4844 249.67 88.7304 250.42 89.2224 250.948C89.7144 251.464 90.3864 251.722 91.2384 251.722C92.1144 251.722 92.8044 251.452 93.3084 250.912C93.8124 250.372 94.0644 249.586 94.0644 248.554V243.136H95.7024ZM102.655 248.032C102.655 247.024 102.859 246.142 103.267 245.386C103.675 244.618 104.233 244.024 104.941 243.604C105.661 243.184 106.465 242.974 107.353 242.974C108.121 242.974 108.835 243.154 109.495 243.514C110.155 243.862 110.659 244.324 111.007 244.9V239.68H112.663V253H111.007V251.146C110.683 251.734 110.203 252.22 109.567 252.604C108.931 252.976 108.187 253.162 107.335 253.162C106.459 253.162 105.661 252.946 104.941 252.514C104.233 252.082 103.675 251.476 103.267 250.696C102.859 249.916 102.655 249.028 102.655 248.032ZM111.007 248.05C111.007 247.306 110.857 246.658 110.557 246.106C110.257 245.554 109.849 245.134 109.333 244.846C108.829 244.546 108.271 244.396 107.659 244.396C107.047 244.396 106.489 244.54 105.985 244.828C105.481 245.116 105.079 245.536 104.779 246.088C104.479 246.64 104.329 247.288 104.329 248.032C104.329 248.788 104.479 249.448 104.779 250.012C105.079 250.564 105.481 250.99 105.985 251.29C106.489 251.578 107.047 251.722 107.659 251.722C108.271 251.722 108.829 251.578 109.333 251.29C109.849 250.99 110.257 250.564 110.557 250.012C110.857 249.448 111.007 248.794 111.007 248.05ZM119.733 253.162C118.809 253.162 117.969 252.952 117.213 252.532C116.469 252.112 115.881 251.518 115.449 250.75C115.029 249.97 114.819 249.07 114.819 248.05C114.819 247.042 115.035 246.154 115.467 245.386C115.911 244.606 116.511 244.012 117.267 243.604C118.023 243.184 118.869 242.974 119.805 242.974C120.741 242.974 121.587 243.184 122.343 243.604C123.099 244.012 123.693 244.6 124.125 245.368C124.569 246.136 124.791 247.03 124.791 248.05C124.791 249.07 124.563 249.97 124.107 250.75C123.663 251.518 123.057 252.112 122.289 252.532C121.521 252.952 120.669 253.162 119.733 253.162ZM119.733 251.722C120.321 251.722 120.873 251.584 121.389 251.308C121.905 251.032 122.319 250.618 122.631 250.066C122.955 249.514 123.117 248.842 123.117 248.05C123.117 247.258 122.961 246.586 122.649 246.034C122.337 245.482 121.929 245.074 121.425 244.81C120.921 244.534 120.375 244.396 119.787 244.396C119.187 244.396 118.635 244.534 118.131 244.81C117.639 245.074 117.243 245.482 116.943 246.034C116.643 246.586 116.493 247.258 116.493 248.05C116.493 248.854 116.637 249.532 116.925 250.084C117.225 250.636 117.621 251.05 118.113 251.326C118.605 251.59 119.145 251.722 119.733 251.722ZM131.751 242.956C132.951 242.956 133.923 243.322 134.667 244.054C135.411 244.774 135.783 245.818 135.783 247.186V253H134.163V247.42C134.163 246.436 133.917 245.686 133.425 245.17C132.933 244.642 132.261 244.378 131.409 244.378C130.545 244.378 129.855 244.648 129.339 245.188C128.835 245.728 128.583 246.514 128.583 247.546V253H126.945V243.136H128.583V244.54C128.907 244.036 129.345 243.646 129.897 243.37C130.461 243.094 131.079 242.956 131.751 242.956ZM140.456 244.486V250.3C140.456 250.78 140.558 251.122 140.762 251.326C140.966 251.518 141.32 251.614 141.824 251.614H143.03V253H141.554C140.642 253 139.958 252.79 139.502 252.37C139.046 251.95 138.818 251.26 138.818 250.3V244.486H137.54V243.136H138.818V240.652H140.456V243.136H143.03V244.486H140.456ZM154.71 242.956C155.454 242.956 156.126 243.118 156.726 243.442C157.326 243.754 157.794 244.228 158.13 244.864C158.478 245.5 158.652 246.274 158.652 247.186V253H157.032V247.42C157.032 246.436 156.786 245.686 156.294 245.17C155.802 244.642 155.13 244.378 154.278 244.378C153.414 244.378 152.724 244.648 152.208 245.188C151.704 245.728 151.452 246.514 151.452 247.546V253H149.814V239.68H151.452V244.54C151.776 244.036 152.22 243.646 152.784 243.37C153.36 243.094 154.002 242.956 154.71 242.956ZM160.715 248.032C160.715 247.024 160.919 246.142 161.327 245.386C161.735 244.618 162.293 244.024 163.001 243.604C163.721 243.184 164.519 242.974 165.395 242.974C166.259 242.974 167.009 243.16 167.645 243.532C168.281 243.904 168.755 244.372 169.067 244.936V243.136H170.723V253H169.067V251.164C168.743 251.74 168.257 252.22 167.609 252.604C166.973 252.976 166.229 253.162 165.377 253.162C164.501 253.162 163.709 252.946 163.001 252.514C162.293 252.082 161.735 251.476 161.327 250.696C160.919 249.916 160.715 249.028 160.715 248.032ZM169.067 248.05C169.067 247.306 168.917 246.658 168.617 246.106C168.317 245.554 167.909 245.134 167.393 244.846C166.889 244.546 166.331 244.396 165.719 244.396C165.107 244.396 164.549 244.54 164.045 244.828C163.541 245.116 163.139 245.536 162.839 246.088C162.539 246.64 162.389 247.288 162.389 248.032C162.389 248.788 162.539 249.448 162.839 250.012C163.139 250.564 163.541 250.99 164.045 251.29C164.549 251.578 165.107 251.722 165.719 251.722C166.331 251.722 166.889 251.578 167.393 251.29C167.909 250.99 168.317 250.564 168.617 250.012C168.917 249.448 169.067 248.794 169.067 248.05ZM177.163 251.488L180.223 243.136H181.969L178.099 253H176.191L172.321 243.136H174.085L177.163 251.488ZM192.581 247.69C192.581 248.002 192.563 248.332 192.527 248.68H184.643C184.703 249.652 185.033 250.414 185.633 250.966C186.245 251.506 186.983 251.776 187.847 251.776C188.555 251.776 189.143 251.614 189.611 251.29C190.091 250.954 190.427 250.51 190.619 249.958H192.383C192.119 250.906 191.591 251.68 190.799 252.28C190.007 252.868 189.023 253.162 187.847 253.162C186.911 253.162 186.071 252.952 185.327 252.532C184.595 252.112 184.019 251.518 183.599 250.75C183.179 249.97 182.969 249.07 182.969 248.05C182.969 247.03 183.173 246.136 183.581 245.368C183.989 244.6 184.559 244.012 185.291 243.604C186.035 243.184 186.887 242.974 187.847 242.974C188.783 242.974 189.611 243.178 190.331 243.586C191.051 243.994 191.603 244.558 191.987 245.278C192.383 245.986 192.581 246.79 192.581 247.69ZM190.889 247.348C190.889 246.724 190.751 246.19 190.475 245.746C190.199 245.29 189.821 244.948 189.341 244.72C188.873 244.48 188.351 244.36 187.775 244.36C186.947 244.36 186.239 244.624 185.651 245.152C185.075 245.68 184.745 246.412 184.661 247.348H190.889ZM198.93 248.032C198.93 247.024 199.134 246.142 199.542 245.386C199.95 244.618 200.508 244.024 201.216 243.604C201.936 243.184 202.734 242.974 203.61 242.974C204.474 242.974 205.224 243.16 205.86 243.532C206.496 243.904 206.97 244.372 207.282 244.936V243.136H208.938V253H207.282V251.164C206.958 251.74 206.472 252.22 205.824 252.604C205.188 252.976 204.444 253.162 203.592 253.162C202.716 253.162 201.924 252.946 201.216 252.514C200.508 252.082 199.95 251.476 199.542 250.696C199.134 249.916 198.93 249.028 198.93 248.032ZM207.282 248.05C207.282 247.306 207.132 246.658 206.832 246.106C206.532 245.554 206.124 245.134 205.608 244.846C205.104 244.546 204.546 244.396 203.934 244.396C203.322 244.396 202.764 244.54 202.26 244.828C201.756 245.116 201.354 245.536 201.054 246.088C200.754 246.64 200.604 247.288 200.604 248.032C200.604 248.788 200.754 249.448 201.054 250.012C201.354 250.564 201.756 250.99 202.26 251.29C202.764 251.578 203.322 251.722 203.934 251.722C204.546 251.722 205.104 251.578 205.608 251.29C206.124 250.99 206.532 250.564 206.832 250.012C207.132 249.448 207.282 248.794 207.282 248.05ZM216.512 242.956C217.712 242.956 218.684 243.322 219.428 244.054C220.172 244.774 220.544 245.818 220.544 247.186V253H218.924V247.42C218.924 246.436 218.678 245.686 218.186 245.17C217.694 244.642 217.022 244.378 216.17 244.378C215.306 244.378 214.616 244.648 214.1 245.188C213.596 245.728 213.344 246.514 213.344 247.546V253H211.706V243.136H213.344V244.54C213.668 244.036 214.106 243.646 214.658 243.37C215.222 243.094 215.84 242.956 216.512 242.956ZM231.716 243.136L225.776 257.644H224.084L226.028 252.892L222.05 243.136H223.868L226.964 251.128L230.024 243.136H231.716ZM237.549 248.032C237.549 247.024 237.753 246.142 238.161 245.386C238.569 244.618 239.127 244.024 239.835 243.604C240.555 243.184 241.353 242.974 242.229 242.974C243.093 242.974 243.843 243.16 244.479 243.532C245.115 243.904 245.589 244.372 245.901 244.936V243.136H247.557V253H245.901V251.164C245.577 251.74 245.091 252.22 244.443 252.604C243.807 252.976 243.063 253.162 242.211 253.162C241.335 253.162 240.543 252.946 239.835 252.514C239.127 252.082 238.569 251.476 238.161 250.696C237.753 249.916 237.549 249.028 237.549 248.032ZM245.901 248.05C245.901 247.306 245.751 246.658 245.451 246.106C245.151 245.554 244.743 245.134 244.227 244.846C243.723 244.546 243.165 244.396 242.553 244.396C241.941 244.396 241.383 244.54 240.879 244.828C240.375 245.116 239.973 245.536 239.673 246.088C239.373 246.64 239.223 247.288 239.223 248.032C239.223 248.788 239.373 249.448 239.673 250.012C239.973 250.564 240.375 250.99 240.879 251.29C241.383 251.578 241.941 251.722 242.553 251.722C243.165 251.722 243.723 251.578 244.227 251.29C244.743 250.99 245.151 250.564 245.451 250.012C245.751 249.448 245.901 248.794 245.901 248.05ZM253.817 253.162C253.061 253.162 252.383 253.036 251.783 252.784C251.183 252.52 250.709 252.16 250.361 251.704C250.013 251.236 249.821 250.702 249.785 250.102H251.477C251.525 250.594 251.753 250.996 252.161 251.308C252.581 251.62 253.127 251.776 253.799 251.776C254.423 251.776 254.915 251.638 255.275 251.362C255.635 251.086 255.815 250.738 255.815 250.318C255.815 249.886 255.623 249.568 255.239 249.364C254.855 249.148 254.261 248.938 253.457 248.734C252.725 248.542 252.125 248.35 251.657 248.158C251.201 247.954 250.805 247.66 250.469 247.276C250.145 246.88 249.983 246.364 249.983 245.728C249.983 245.224 250.133 244.762 250.433 244.342C250.733 243.922 251.159 243.592 251.711 243.352C252.263 243.1 252.893 242.974 253.601 242.974C254.693 242.974 255.575 243.25 256.247 243.802C256.919 244.354 257.279 245.11 257.327 246.07H255.689C255.653 245.554 255.443 245.14 255.059 244.828C254.687 244.516 254.183 244.36 253.547 244.36C252.959 244.36 252.491 244.486 252.143 244.738C251.795 244.99 251.621 245.32 251.621 245.728C251.621 246.052 251.723 246.322 251.927 246.538C252.143 246.742 252.407 246.91 252.719 247.042C253.043 247.162 253.487 247.3 254.051 247.456C254.759 247.648 255.335 247.84 255.779 248.032C256.223 248.212 256.601 248.488 256.913 248.86C257.237 249.232 257.405 249.718 257.417 250.318C257.417 250.858 257.267 251.344 256.967 251.776C256.667 252.208 256.241 252.55 255.689 252.802C255.149 253.042 254.525 253.162 253.817 253.162ZM263.222 253.162C262.466 253.162 261.788 253.036 261.188 252.784C260.588 252.52 260.114 252.16 259.766 251.704C259.418 251.236 259.226 250.702 259.19 250.102H260.882C260.93 250.594 261.158 250.996 261.566 251.308C261.986 251.62 262.532 251.776 263.204 251.776C263.828 251.776 264.32 251.638 264.68 251.362C265.04 251.086 265.22 250.738 265.22 250.318C265.22 249.886 265.028 249.568 264.644 249.364C264.26 249.148 263.666 248.938 262.862 248.734C262.13 248.542 261.53 248.35 261.062 248.158C260.606 247.954 260.21 247.66 259.874 247.276C259.55 246.88 259.388 246.364 259.388 245.728C259.388 245.224 259.538 244.762 259.838 244.342C260.138 243.922 260.564 243.592 261.116 243.352C261.668 243.1 262.298 242.974 263.006 242.974C264.098 242.974 264.98 243.25 265.652 243.802C266.324 244.354 266.684 245.11 266.732 246.07H265.094C265.058 245.554 264.848 245.14 264.464 244.828C264.092 244.516 263.588 244.36 262.952 244.36C262.364 244.36 261.896 244.486 261.548 244.738C261.2 244.99 261.026 245.32 261.026 245.728C261.026 246.052 261.128 246.322 261.332 246.538C261.548 246.742 261.812 246.91 262.124 247.042C262.448 247.162 262.892 247.3 263.456 247.456C264.164 247.648 264.74 247.84 265.184 248.032C265.628 248.212 266.006 248.488 266.318 248.86C266.642 249.232 266.81 249.718 266.822 250.318C266.822 250.858 266.672 251.344 266.372 251.776C266.072 252.208 265.646 252.55 265.094 252.802C264.554 253.042 263.93 253.162 263.222 253.162ZM269.98 241.534C269.668 241.534 269.404 241.426 269.188 241.21C268.972 240.994 268.864 240.73 268.864 240.418C268.864 240.106 268.972 239.842 269.188 239.626C269.404 239.41 269.668 239.302 269.98 239.302C270.28 239.302 270.532 239.41 270.736 239.626C270.952 239.842 271.06 240.106 271.06 240.418C271.06 240.73 270.952 240.994 270.736 241.21C270.532 241.426 270.28 241.534 269.98 241.534ZM270.772 243.136V253H269.134V243.136H270.772ZM277.632 242.974C278.484 242.974 279.228 243.16 279.864 243.532C280.512 243.904 280.992 244.372 281.304 244.936V243.136H282.96V253.216C282.96 254.116 282.768 254.914 282.384 255.61C282 256.318 281.448 256.87 280.728 257.266C280.02 257.662 279.192 257.86 278.244 257.86C276.948 257.86 275.868 257.554 275.004 256.942C274.14 256.33 273.63 255.496 273.474 254.44H275.094C275.274 255.04 275.646 255.52 276.21 255.88C276.774 256.252 277.452 256.438 278.244 256.438C279.144 256.438 279.876 256.156 280.44 255.592C281.016 255.028 281.304 254.236 281.304 253.216V251.146C280.98 251.722 280.5 252.202 279.864 252.586C279.228 252.97 278.484 253.162 277.632 253.162C276.756 253.162 275.958 252.946 275.238 252.514C274.53 252.082 273.972 251.476 273.564 250.696C273.156 249.916 272.952 249.028 272.952 248.032C272.952 247.024 273.156 246.142 273.564 245.386C273.972 244.618 274.53 244.024 275.238 243.604C275.958 243.184 276.756 242.974 277.632 242.974ZM281.304 248.05C281.304 247.306 281.154 246.658 280.854 246.106C280.554 245.554 280.146 245.134 279.63 244.846C279.126 244.546 278.568 244.396 277.956 244.396C277.344 244.396 276.786 244.54 276.282 244.828C275.778 245.116 275.376 245.536 275.076 246.088C274.776 246.64 274.626 247.288 274.626 248.032C274.626 248.788 274.776 249.448 275.076 250.012C275.376 250.564 275.778 250.99 276.282 251.29C276.786 251.578 277.344 251.722 277.956 251.722C278.568 251.722 279.126 251.578 279.63 251.29C280.146 250.99 280.554 250.564 280.854 250.012C281.154 249.448 281.304 248.794 281.304 248.05ZM290.534 242.956C291.734 242.956 292.706 243.322 293.45 244.054C294.194 244.774 294.566 245.818 294.566 247.186V253H292.946V247.42C292.946 246.436 292.7 245.686 292.208 245.17C291.716 244.642 291.044 244.378 290.192 244.378C289.328 244.378 288.638 244.648 288.122 245.188C287.618 245.728 287.366 246.514 287.366 247.546V253H285.728V243.136H287.366V244.54C287.69 244.036 288.128 243.646 288.68 243.37C289.244 243.094 289.862 242.956 290.534 242.956ZM309.103 242.956C309.871 242.956 310.555 243.118 311.155 243.442C311.755 243.754 312.229 244.228 312.577 244.864C312.925 245.5 313.099 246.274 313.099 247.186V253H311.479V247.42C311.479 246.436 311.233 245.686 310.741 245.17C310.261 244.642 309.607 244.378 308.779 244.378C307.927 244.378 307.249 244.654 306.745 245.206C306.241 245.746 305.989 246.532 305.989 247.564V253H304.369V247.42C304.369 246.436 304.123 245.686 303.631 245.17C303.151 244.642 302.497 244.378 301.669 244.378C300.817 244.378 300.139 244.654 299.635 245.206C299.131 245.746 298.879 246.532 298.879 247.564V253H297.241V243.136H298.879V244.558C299.203 244.042 299.635 243.646 300.175 243.37C300.727 243.094 301.333 242.956 301.993 242.956C302.821 242.956 303.553 243.142 304.189 243.514C304.825 243.886 305.299 244.432 305.611 245.152C305.887 244.456 306.343 243.916 306.979 243.532C307.615 243.148 308.323 242.956 309.103 242.956ZM324.786 247.69C324.786 248.002 324.768 248.332 324.732 248.68H316.848C316.908 249.652 317.238 250.414 317.838 250.966C318.45 251.506 319.188 251.776 320.052 251.776C320.76 251.776 321.348 251.614 321.816 251.29C322.296 250.954 322.632 250.51 322.824 249.958H324.588C324.324 250.906 323.796 251.68 323.004 252.28C322.212 252.868 321.228 253.162 320.052 253.162C319.116 253.162 318.276 252.952 317.532 252.532C316.8 252.112 316.224 251.518 315.804 250.75C315.384 249.97 315.174 249.07 315.174 248.05C315.174 247.03 315.378 246.136 315.786 245.368C316.194 244.6 316.764 244.012 317.496 243.604C318.24 243.184 319.092 242.974 320.052 242.974C320.988 242.974 321.816 243.178 322.536 243.586C323.256 243.994 323.808 244.558 324.192 245.278C324.588 245.986 324.786 246.79 324.786 247.69ZM323.094 247.348C323.094 246.724 322.956 246.19 322.68 245.746C322.404 245.29 322.026 244.948 321.546 244.72C321.078 244.48 320.556 244.36 319.98 244.36C319.152 244.36 318.444 244.624 317.856 245.152C317.28 245.68 316.95 246.412 316.866 247.348H323.094ZM331.755 242.956C332.955 242.956 333.927 243.322 334.671 244.054C335.415 244.774 335.787 245.818 335.787 247.186V253H334.167V247.42C334.167 246.436 333.921 245.686 333.429 245.17C332.937 244.642 332.265 244.378 331.413 244.378C330.549 244.378 329.859 244.648 329.343 245.188C328.839 245.728 328.587 246.514 328.587 247.546V253H326.949V243.136H328.587V244.54C328.911 244.036 329.349 243.646 329.901 243.37C330.465 243.094 331.083 242.956 331.755 242.956ZM340.46 244.486V250.3C340.46 250.78 340.562 251.122 340.766 251.326C340.97 251.518 341.324 251.614 341.828 251.614H343.034V253H341.558C340.646 253 339.962 252.79 339.506 252.37C339.05 251.95 338.822 251.26 338.822 250.3V244.486H337.544V243.136H338.822V240.652H340.46V243.136H343.034V244.486H340.46Z" fill="#A0A0A0"/>
<defs>
<clipPath id="clip0_183_649">
<rect width="326.588" height="214" fill="white" transform="translate(9)"/>
</clipPath>
</defs>
</svg>
