<svg width="380" height="260" viewBox="0 0 380 260" fill="none" xmlns="http://www.w3.org/2000/svg">
<g clip-path="url(#clip0_144_1411)">
<path d="M347.924 50.4553L342.817 75.1888L339.532 71.9834L333.937 75.9711L329.664 70.6657L320.075 77.6341L311.887 63.9342L302.748 69.2877L299.126 64.2908L287.522 70.8285L284.031 63.3568L292.164 23.9644L335.766 32.9673L347.924 50.4553Z" fill="#EBEBEB"/>
<path d="M335.768 32.9641L347.925 50.4515L332.803 47.3295L335.768 32.9641Z" fill="#DBDBDB"/>
<path d="M341.73 80.1323L334.24 116.421L275.51 104.298L282.944 68.2982L286.436 75.7699L298.039 69.2322L301.662 74.2291L310.801 68.8815L318.989 82.5814L328.577 75.6114L332.851 80.9168L338.445 76.9291L341.73 80.1323Z" fill="#EBEBEB"/>
<path d="M257.669 75.8799L197.815 79.5837L193.061 2.75012L237.502 0L253.82 13.6865L257.669 75.8799Z" fill="#EBEBEB"/>
<path d="M237.501 0L253.82 13.6865L238.408 14.6403L237.501 0Z" fill="#DBDBDB"/>
<path d="M220.91 51.6966L220.678 49.9637C220.075 46.3714 221.058 42.3543 224.18 38.151C226.993 34.4343 228.521 31.7296 228.352 28.718C228.161 25.3023 225.892 23.1478 221.67 23.317C219.258 23.4429 216.941 24.299 215.026 25.772L213.183 21.6444C215.302 19.9142 219.058 18.6296 222.605 18.431C230.303 17.9998 234.05 22.5575 234.335 27.6447C234.59 32.1971 232.231 35.6191 229.231 39.6149C226.481 43.2605 225.575 46.2658 225.967 49.6686L226.131 51.4052L220.91 51.6966ZM219.962 61.1504C219.823 58.6741 221.399 56.8398 223.742 56.7085C226.085 56.5772 227.789 58.228 227.927 60.7048C228.059 63.0472 226.621 64.9407 224.144 65.0811C221.801 65.2092 220.093 63.4912 219.962 61.1488V61.1504Z" fill="#DBDBDB"/>
<path d="M71.2223 38.6287L65.2017 35.8994L64.3665 37.7439C64.2449 38.0085 64.0522 38.2342 63.8098 38.3958C63.5674 38.5573 63.2849 38.6483 62.9938 38.6586C62.6641 38.673 62.3354 38.7052 62.0091 38.7552C61.7223 38.8011 61.4282 38.7666 61.1598 38.6554C60.8914 38.5442 60.659 38.3608 60.4887 38.1254L59.3092 36.4801L53.9312 40.3333L55.1101 41.9787C55.278 42.2159 55.3769 42.495 55.3957 42.785C55.4146 43.075 55.3526 43.3645 55.2168 43.6214C55.0647 43.9142 54.9284 44.2149 54.8086 44.5223C54.7053 44.7946 54.5284 45.0328 54.2976 45.2103C54.0668 45.3879 53.7912 45.4978 53.5016 45.5278L51.4863 45.7258L52.1358 52.3073L54.1575 52.1061C54.4476 52.0803 54.7392 52.1356 54.9998 52.2657C55.2605 52.3958 55.4799 52.5957 55.6337 52.8431C55.7206 52.9797 55.8119 53.1137 55.9069 53.2466C56.0019 53.3794 56.0996 53.5086 56.2004 53.6345C56.3845 53.8586 56.5029 54.1292 56.5425 54.4165C56.582 54.7037 56.5412 54.9963 56.4246 55.2618L55.5835 57.1196L61.6062 59.851L62.4452 58.0028C62.5671 57.7382 62.7602 57.5127 63.0028 57.3514C63.2455 57.1902 63.5282 57.0995 63.8194 57.0897C64.1477 57.0753 64.4749 57.0436 64.7998 56.9947C65.0866 56.9488 65.3804 56.9834 65.6486 57.0946C65.9169 57.2058 66.149 57.3892 66.3192 57.6244L67.4987 59.2703L72.8767 55.4176L71.6973 53.7712C71.5297 53.5341 71.4311 53.2554 71.4122 52.9657C71.3934 52.676 71.4551 52.3868 71.5905 52.1301C71.7418 51.8382 71.8772 51.5383 71.9961 51.2319C72.0993 50.9594 72.2761 50.7209 72.5069 50.5431C72.7377 50.3653 73.0134 50.2551 73.3031 50.2248L75.3226 50.0246L74.6731 43.4432L72.6526 43.6428C72.3633 43.6681 72.0727 43.6127 71.8131 43.4828C71.5534 43.3528 71.3349 43.1535 71.1817 42.9068C71.0935 42.7702 71.0015 42.6348 70.9058 42.5007C70.8101 42.3665 70.7122 42.237 70.6123 42.1121C70.4273 41.8871 70.3084 41.6151 70.2688 41.3265C70.2292 41.0379 70.2705 40.744 70.3881 40.4774L71.2223 38.6287ZM67.8066 44.7176C68.4303 45.5889 68.7815 46.6255 68.816 47.6965C68.8505 48.7674 68.5666 49.8245 68.0003 50.7341C67.434 51.6437 66.6107 52.3649 65.6345 52.8066C64.6583 53.2483 63.5731 53.3906 62.516 53.2155C61.4589 53.0404 60.4775 52.5557 59.6959 51.8229C58.9142 51.09 58.3674 50.1418 58.1247 49.0982C57.8819 48.0546 57.9541 46.9625 58.332 45.9599C58.7099 44.9573 59.3767 44.0892 60.248 43.4656C60.8263 43.0511 61.4806 42.7548 62.1735 42.5934C62.8664 42.432 63.5844 42.4088 64.2863 42.5251C64.9882 42.6414 65.6603 42.8949 66.2642 43.2711C66.868 43.6473 67.3918 44.1388 67.8056 44.7176H67.8066Z" fill="#EBEBEB"/>
<path d="M343.354 125.94L339.341 128.256L340.05 129.483C340.152 129.661 340.202 129.862 340.195 130.066C340.188 130.27 340.124 130.468 340.011 130.638C339.885 130.832 339.769 131.032 339.665 131.239C339.574 131.421 339.434 131.574 339.261 131.682C339.088 131.789 338.889 131.847 338.686 131.848H337.268V136.483H338.686C338.889 136.484 339.088 136.541 339.261 136.649C339.434 136.756 339.574 136.91 339.665 137.092C339.769 137.298 339.885 137.498 340.011 137.692C340.124 137.862 340.188 138.06 340.195 138.264C340.202 138.468 340.152 138.67 340.05 138.847L339.341 140.075L343.354 142.39L344.064 141.156C344.168 140.981 344.319 140.837 344.499 140.742C344.68 140.647 344.883 140.603 345.087 140.617C345.2 140.623 345.314 140.626 345.428 140.625C345.541 140.625 345.656 140.625 345.768 140.617C345.971 140.603 346.173 140.646 346.353 140.741C346.533 140.836 346.683 140.978 346.787 141.153L347.501 142.39L351.514 140.075L350.804 138.843C350.703 138.665 350.653 138.464 350.661 138.26C350.668 138.056 350.731 137.858 350.845 137.688C350.97 137.495 351.086 137.296 351.191 137.091C351.282 136.909 351.421 136.756 351.594 136.648C351.767 136.541 351.966 136.483 352.169 136.482H353.588V131.847H352.168C351.965 131.846 351.766 131.789 351.593 131.681C351.42 131.574 351.281 131.421 351.189 131.239C351.085 131.034 350.97 130.835 350.844 130.642C350.73 130.472 350.667 130.274 350.659 130.07C350.652 129.866 350.702 129.664 350.803 129.487L351.513 128.255L347.5 125.939L346.789 127.171C346.686 127.347 346.535 127.489 346.356 127.584C346.176 127.679 345.973 127.722 345.77 127.709C345.657 127.703 345.542 127.7 345.427 127.7C345.311 127.7 345.199 127.703 345.086 127.709C344.882 127.722 344.679 127.679 344.498 127.584C344.317 127.489 344.167 127.345 344.063 127.17L343.354 125.94ZM345.428 130.37C346.178 130.37 346.912 130.593 347.536 131.011C348.16 131.428 348.646 132.021 348.933 132.714C349.219 133.408 349.294 134.171 349.147 134.907C349.001 135.643 348.639 136.319 348.108 136.85C347.577 137.38 346.9 137.741 346.164 137.887C345.428 138.034 344.665 137.958 343.972 137.67C343.278 137.383 342.686 136.896 342.269 136.272C341.852 135.648 341.63 134.914 341.631 134.163C341.63 133.665 341.729 133.171 341.92 132.711C342.11 132.25 342.39 131.832 342.743 131.48C343.095 131.127 343.514 130.848 343.975 130.658C344.436 130.467 344.929 130.37 345.428 130.37V130.37Z" fill="#EBEBEB"/>
<path d="M83.4006 18.9082L79.7181 21.7224L80.58 22.849C80.703 23.0117 80.7785 23.2054 80.798 23.4084C80.8175 23.6115 80.7803 23.816 80.6905 23.9991C80.59 24.2076 80.5009 24.4214 80.4236 24.6395C80.3571 24.8319 80.2385 25.002 80.0811 25.131C79.9236 25.26 79.7335 25.3428 79.5318 25.3702L78.125 25.5532L78.7233 30.1488L80.1301 29.9658C80.3323 29.9409 80.5374 29.9727 80.7227 30.0575C80.9079 30.1423 81.066 30.2768 81.1793 30.4461C81.3097 30.6372 81.4502 30.821 81.6004 30.9969C81.7344 31.1508 81.8229 31.3389 81.8561 31.5402C81.8892 31.7415 81.8658 31.9481 81.7883 32.1369L81.2434 33.4465L85.5214 35.2248L86.0669 33.9092C86.1472 33.7217 86.278 33.5601 86.4447 33.4424C86.6113 33.3247 86.8074 33.2556 87.011 33.2427C87.1234 33.2338 87.2366 33.2218 87.3504 33.2069C87.4643 33.192 87.5765 33.1742 87.6872 33.1535C87.8864 33.1141 88.0926 33.1306 88.283 33.2012C88.4734 33.2719 88.6405 33.3939 88.7658 33.5538L89.6341 34.6884L93.3166 31.8743L92.453 30.7444C92.3304 30.5814 92.2555 30.3874 92.2367 30.1842C92.2178 29.9811 92.2558 29.7767 92.3463 29.5938C92.4469 29.3864 92.5359 29.1737 92.6131 28.9566C92.6802 28.7645 92.799 28.5947 92.9565 28.466C93.1139 28.3372 93.3039 28.2545 93.5055 28.227L94.9123 28.044L94.314 23.4483L92.9072 23.6314C92.7053 23.6564 92.5005 23.6251 92.3153 23.5409C92.1301 23.4566 91.9718 23.3229 91.858 23.1543C91.728 22.9643 91.5878 22.7815 91.438 22.6067C91.3029 22.453 91.2134 22.2647 91.1795 22.063C91.1456 21.8612 91.1685 21.654 91.2458 21.4646L91.7907 20.1512L87.5127 18.3729L86.9667 19.6863C86.8865 19.8733 86.7561 20.0344 86.5899 20.1518C86.4237 20.2692 86.2283 20.3382 86.0253 20.3513C85.9121 20.3599 85.7979 20.3721 85.6837 20.3871C85.5695 20.402 85.4579 20.4191 85.3464 20.4404C85.1461 20.4802 84.9388 20.4635 84.7474 20.3924C84.556 20.3213 84.3882 20.1984 84.2625 20.0375L83.4006 18.9082ZM86.0285 23.0337C86.7729 22.9371 87.5293 23.0634 88.202 23.3967C88.8747 23.7301 89.4334 24.2554 89.8075 24.9062C90.1816 25.5571 90.3543 26.3043 90.3038 27.0533C90.2532 27.8023 89.9817 28.5195 89.5235 29.1142C89.0654 29.7089 88.4411 30.1544 87.7298 30.3943C87.0184 30.6342 86.2519 30.6578 85.5271 30.4621C84.8024 30.2663 84.152 29.8601 83.6581 29.2947C83.1642 28.7292 82.8491 28.0301 82.7526 27.2856C82.6882 26.7911 82.7218 26.2888 82.8517 25.8074C82.9816 25.326 83.2051 24.8749 83.5095 24.4799C83.814 24.085 84.1933 23.754 84.6258 23.5058C85.0583 23.2576 85.5355 23.0972 86.0301 23.0337H86.0285Z" fill="#EBEBEB"/>
<path d="M55.9257 139.32C56.129 134.155 56.0577 128.982 55.7123 123.824C54.9491 113.187 53.3249 102.629 50.8557 92.2546C49.5022 86.4123 47.8355 80.6687 46.0983 74.9315C46.045 74.7586 45.7696 74.8072 45.8176 74.9881C51.1887 95.2124 55.5954 116.082 55.2917 137.11C55.2069 142.994 54.5259 148.773 53.9671 154.619C53.9522 154.776 54.2094 154.838 54.2451 154.677C55.3574 149.672 55.7176 144.429 55.9257 139.32Z" fill="#EBEBEB"/>
<path d="M45.8207 74.9881C45.8207 74.9881 37.6841 95.642 39.5056 100.495C41.327 105.348 45.0816 106.385 45.0816 106.385C45.0816 106.385 40.1033 113.493 43.5824 120.159C47.0616 126.826 54.79 126.51 55.3044 134.069C55.3055 134.069 55.7362 102.464 45.8207 74.9881Z" fill="#EBEBEB"/>
<path d="M54.421 121.019C54.4306 120.984 54.4278 120.946 54.413 120.912C53.3441 106.811 50.6973 92.8748 46.5223 79.3638C46.5101 79.3238 46.4444 79.3371 46.4556 79.3782C48.0674 85.4196 49.4906 91.4938 50.7252 97.6006C49.6325 96.5647 48.2971 95.82 46.8415 95.4349C46.836 95.4329 46.8299 95.4332 46.8246 95.4357C46.8193 95.4382 46.8152 95.4427 46.8132 95.4482C46.8112 95.4538 46.8115 95.4598 46.814 95.4651C46.8165 95.4704 46.821 95.4745 46.8265 95.4765C48.3568 96.0392 49.7314 96.9576 50.8367 98.1562C51.0747 99.3527 51.306 100.551 51.5305 101.75C49.7122 99.7178 47.19 98.7075 44.6672 97.7506C44.6607 97.7499 44.6542 97.7514 44.6486 97.7548C44.6431 97.7583 44.6389 97.7635 44.6366 97.7696C44.6343 97.7757 44.6342 97.7824 44.6361 97.7886C44.6381 97.7949 44.6421 97.8003 44.6475 97.804C47.2754 98.874 49.8926 100.253 51.6735 102.517C52.2944 105.944 52.8391 109.383 53.3077 112.834C51.9933 111.457 50.3077 110.491 48.4554 110.053C48.3988 110.039 48.3673 110.123 48.425 110.14C50.3363 110.691 52.0461 111.786 53.3456 113.292C53.3546 113.301 53.3648 113.308 53.376 113.315C53.539 114.528 53.6923 115.743 53.8361 116.96C52.8187 116.1 51.6708 115.407 50.4354 114.909C50.4023 114.895 50.382 114.947 50.4172 114.962C51.676 115.508 52.8289 116.271 53.8233 117.216C53.8371 117.23 53.8521 117.228 53.8665 117.234C54.002 118.391 54.1371 119.547 54.2539 120.706C52.4211 118.492 50.0425 116.793 47.3528 115.779C47.2994 115.758 47.2722 115.84 47.3234 115.862C49.9797 117.032 52.3133 118.828 54.1248 121.095C54.1439 121.121 54.1708 121.141 54.2017 121.15C54.2325 121.16 54.2656 121.159 54.2961 121.149C54.4719 122.926 54.6265 124.706 54.7599 126.489C54.7599 126.513 54.802 126.516 54.8004 126.489C54.6962 124.667 54.5697 122.844 54.421 121.019Z" fill="white"/>
<path d="M47.8832 93.3823C46.4103 92.466 44.7274 91.9415 42.9946 91.8586C42.9541 91.8549 42.9509 91.912 42.9904 91.9205C44.664 92.232 46.2892 92.7628 47.824 93.4992C47.8939 93.5291 47.9441 93.4245 47.8832 93.3823Z" fill="white"/>
<path d="M48.8709 115.248C47.7382 114.601 46.4929 114.175 45.2012 113.994C45.1564 113.986 45.1527 114.055 45.1964 114.063C46.4598 114.315 47.6814 114.744 48.8255 115.336C48.8773 115.36 48.9189 115.277 48.8709 115.248Z" fill="white"/>
<path d="M77.3163 100.832C73.8756 103.211 70.716 105.973 67.8983 109.065C64.9927 112.336 62.7496 116.14 61.2933 120.266C58.202 128.868 56.5399 137.918 56.3732 147.057C56.269 152.118 56.7558 157.174 57.8237 162.122C57.8308 162.16 57.8524 162.193 57.8838 162.214C57.9152 162.235 57.9538 162.244 57.991 162.236C58.0283 162.229 58.0613 162.208 58.0827 162.176C58.104 162.145 58.1121 162.106 58.105 162.069C56.7776 153.337 56.8275 144.451 58.2528 135.734C59.6516 127.19 61.8462 117.895 67.2776 110.952C70.2348 107.171 73.922 104.197 77.5666 101.123C77.7577 100.957 77.5127 100.693 77.3163 100.832Z" fill="#EBEBEB"/>
<path d="M57.5698 140.903C59.5283 137.734 61.8305 134.791 64.4347 132.128C68.5052 128.058 71.9336 125.166 72.4625 122.474C72.9914 119.783 68.3851 117.801 68.3851 117.801C68.3851 117.801 74.0182 118.812 75.5595 116.449C77.1008 114.085 77.8448 100.392 77.8448 100.392C77.8448 100.392 67.5979 107.709 62.8224 117.965C58.0469 128.221 57.5698 140.903 57.5698 140.903Z" fill="#EBEBEB"/>
<path d="M74.2995 103.903C69.9878 108.137 65.6483 112.65 63.109 118.214C62.2419 120.136 61.4862 122.106 60.8456 124.115C60.8456 124.118 60.8456 124.121 60.8424 124.124C60.7117 124.529 60.5793 124.933 60.4555 125.34C60.4436 125.361 60.4364 125.383 60.4347 125.407C59.2294 129.565 58.2577 133.788 57.5239 138.055C57.5186 138.082 57.5597 138.096 57.5655 138.068C58.0074 135.934 58.4942 133.775 59.0385 131.624C59.0594 131.624 59.0801 131.62 59.0994 131.612C59.9549 131.246 60.8622 131.016 61.7886 130.929C61.85 130.924 61.8452 130.817 61.7828 130.822C60.8784 130.864 59.9837 131.027 59.1229 131.308C59.6192 129.369 60.1593 127.435 60.7656 125.528C62.7571 125.046 64.7947 124.78 66.8433 124.734C66.8641 124.734 66.8678 124.702 66.8465 124.701C64.8404 124.608 62.8308 124.779 60.8691 125.208C60.9758 124.881 61.0826 124.556 61.1941 124.23C62.5255 123.912 63.8766 123.683 65.2384 123.545C65.263 123.542 65.2614 123.501 65.2384 123.501C63.9056 123.527 62.5787 123.688 61.2784 123.982C61.8361 122.333 62.4387 120.706 63.1069 119.121C63.661 117.825 64.3076 116.57 65.0415 115.366C66.1206 115.097 67.2166 114.901 68.3221 114.779C68.3536 114.776 68.3499 114.726 68.3194 114.726C67.2872 114.647 66.2491 114.749 65.2523 115.029C65.7913 114.158 66.3576 113.306 66.9639 112.479C69.2619 111.971 71.5915 111.499 73.9419 111.94C73.9825 111.947 73.9953 111.879 73.9574 111.868C71.7196 111.281 69.4984 111.62 67.2718 112.06C67.5146 111.737 67.7633 111.42 68.0142 111.099C69.4058 110.671 70.8517 110.443 72.3077 110.425C72.3136 110.425 72.3192 110.422 72.3235 110.418C72.3278 110.414 72.3304 110.409 72.3309 110.403C72.3315 110.397 72.3298 110.391 72.3263 110.386C72.3228 110.382 72.3177 110.378 72.312 110.377C70.9672 110.254 69.6112 110.374 68.3093 110.733C70.2098 108.372 72.3077 106.155 74.3827 103.963C74.4767 103.861 74.4019 103.802 74.2995 103.903Z" fill="white"/>
<path d="M74.1845 113.236C73.5099 113.138 72.8267 113.114 72.1469 113.165C72.1298 113.168 72.1146 113.178 72.104 113.192C72.0934 113.206 72.0881 113.223 72.089 113.24C72.0899 113.258 72.0969 113.274 72.1089 113.287C72.1209 113.3 72.137 113.308 72.1543 113.31C72.8289 113.33 73.503 113.279 74.1781 113.316C74.1883 113.316 74.1981 113.312 74.2055 113.305C74.213 113.299 74.2176 113.289 74.2184 113.279C74.2192 113.269 74.2162 113.259 74.2099 113.251C74.2036 113.243 74.1946 113.237 74.1845 113.236Z" fill="white"/>
<path d="M66.8091 126.52C65.7273 126.545 64.6583 126.76 63.6508 127.154C63.6257 127.163 63.6401 127.208 63.6657 127.199C64.7091 126.951 65.7636 126.85 66.8145 126.676C66.8329 126.673 66.8494 126.663 66.861 126.648C66.8727 126.633 66.8787 126.615 66.8781 126.596C66.8775 126.577 66.8702 126.559 66.8575 126.546C66.8449 126.532 66.8277 126.523 66.8091 126.52Z" fill="white"/>
<path d="M64.5985 121.931C64.1486 121.926 63.6995 121.966 63.2578 122.052C63.2483 122.054 63.2399 122.059 63.234 122.067C63.2281 122.074 63.2251 122.084 63.2256 122.094C63.2262 122.103 63.2301 122.112 63.2368 122.119C63.2435 122.126 63.2525 122.131 63.2621 122.132C63.7108 122.156 64.1608 122.135 64.6054 122.069C64.6219 122.066 64.6367 122.057 64.647 122.043C64.6574 122.03 64.6626 122.014 64.6618 121.997C64.661 121.98 64.6541 121.964 64.6424 121.952C64.6308 121.94 64.6152 121.932 64.5985 121.931Z" fill="white"/>
<path d="M27.5301 115.362C30.8641 116.492 34.0593 117.996 37.0544 119.845C40.162 121.821 42.8566 124.381 44.9888 127.384C49.4786 133.63 52.9153 140.569 55.1626 147.926C56.4167 151.998 57.1915 156.203 57.4713 160.454C57.4734 160.486 57.4631 160.517 57.4427 160.54C57.4222 160.564 57.3932 160.579 57.3619 160.582C57.3306 160.585 57.2993 160.576 57.2749 160.556C57.2505 160.536 57.2348 160.507 57.2311 160.476C56.2868 153.103 54.1926 145.923 51.0248 139.198C47.9177 132.607 43.9929 125.592 37.9931 121.228C34.7259 118.852 31.0551 117.297 27.394 115.651C27.2029 115.567 27.3385 115.296 27.5301 115.362Z" fill="#EBEBEB"/>
<path d="M52.7715 143.225C50.454 141.114 47.9109 139.266 45.1882 137.712C40.9534 135.36 37.5105 133.812 36.4602 131.756C35.4099 129.7 38.6799 127.031 38.6799 127.031C38.6799 127.031 34.3569 129.151 32.5611 127.595C30.7652 126.038 27 115.129 27 115.129C27 115.129 36.9843 118.681 43.2189 125.878C49.4535 133.074 52.7715 143.225 52.7715 143.225Z" fill="#EBEBEB"/>
<path d="M52.2515 140.977C47.2577 131.604 40.5945 123.125 31.4641 117.528C31.4634 117.528 31.4625 117.528 31.4617 117.528C31.4609 117.528 31.4602 117.529 31.4597 117.529C31.4592 117.53 31.459 117.531 31.459 117.532C31.459 117.533 31.4593 117.533 31.4599 117.534C33.8443 119.067 36.0815 120.818 38.1428 122.764C36.285 122.664 34.4335 123.054 32.7749 123.897C32.7712 123.899 32.7679 123.902 32.7652 123.905C32.7625 123.908 32.7604 123.911 32.7591 123.915C32.7577 123.919 32.7572 123.923 32.7574 123.927C32.7576 123.931 32.7587 123.935 32.7605 123.939C32.7623 123.943 32.7648 123.946 32.7678 123.949C32.7709 123.951 32.7744 123.953 32.7783 123.955C32.7822 123.956 32.7863 123.957 32.7903 123.956C32.7944 123.956 32.7984 123.955 32.8021 123.953C34.5664 123.291 36.4414 122.974 38.3253 123.02C38.348 123.019 38.3698 123.01 38.3877 122.996C38.7119 123.304 39.0321 123.615 39.3484 123.931C38.3831 123.976 37.4234 124.104 36.4798 124.312C36.475 124.313 36.471 124.317 36.4685 124.321C36.466 124.325 36.4652 124.33 36.4662 124.335C36.4672 124.34 36.4699 124.344 36.4739 124.347C36.4779 124.35 36.4828 124.352 36.4878 124.351C37.4863 124.163 38.5017 124.08 39.5176 124.102C41.1876 125.793 42.7601 127.578 44.2274 129.448C43.5561 129.354 42.8725 129.404 42.2218 129.594C42.2117 129.596 42.2028 129.602 42.1971 129.61C42.1913 129.619 42.1892 129.629 42.1911 129.639C42.193 129.649 42.1988 129.658 42.2073 129.664C42.2157 129.669 42.2261 129.672 42.2362 129.67C42.9471 129.588 43.6644 129.579 44.3774 129.64C44.6506 129.988 44.9271 130.334 45.195 130.686C43.1566 130.561 41.1113 130.759 39.1349 131.273C39.1319 131.274 39.1289 131.275 39.1264 131.277C39.1238 131.279 39.1215 131.281 39.1198 131.283C39.1181 131.286 39.1169 131.289 39.1163 131.292C39.1156 131.295 39.1156 131.298 39.1162 131.301C39.1168 131.304 39.118 131.307 39.1197 131.31C39.1214 131.312 39.1236 131.315 39.1262 131.316C39.1288 131.318 39.1317 131.319 39.1347 131.32C39.1378 131.32 39.1409 131.32 39.144 131.32C41.1928 130.919 43.2845 130.784 45.3679 130.916C45.6225 131.254 45.8637 131.601 46.1151 131.943C44.8993 131.913 43.6853 132.052 42.5078 132.356C42.4625 132.367 42.4753 132.438 42.5217 132.428C43.748 132.161 45.0048 132.064 46.2576 132.137C47.3319 133.617 48.3603 135.129 49.3492 136.661C48.8215 136.566 48.2789 136.599 47.7663 136.756C47.761 136.758 47.7565 136.761 47.7536 136.766C47.7508 136.771 47.7498 136.776 47.7509 136.782C47.7519 136.787 47.755 136.792 47.7594 136.795C47.7638 136.799 47.7693 136.8 47.7748 136.8C48.347 136.755 48.9225 136.782 49.488 136.88C50.3775 138.265 51.235 139.661 52.0604 141.069C52.126 141.19 52.3176 141.101 52.2515 140.977Z" fill="white"/>
<path d="M44.484 133.202C43.5034 133.135 42.519 133.256 41.5834 133.557C41.5567 133.566 41.5631 133.606 41.5914 133.6C42.5446 133.44 43.5073 133.341 44.4733 133.305C44.4849 133.303 44.4955 133.297 44.5036 133.289C44.5116 133.28 44.5166 133.269 44.5179 133.257C44.5191 133.246 44.5164 133.234 44.5103 133.224C44.5042 133.214 44.4949 133.206 44.484 133.202Z" fill="white"/>
<path d="M35.7742 121.78C35.3269 121.745 34.8771 121.771 34.4368 121.857C34.3834 121.865 34.401 121.942 34.4517 121.936C34.8915 121.89 35.3254 121.906 35.7657 121.893C35.7802 121.893 35.7943 121.888 35.805 121.878C35.8157 121.868 35.8223 121.855 35.8234 121.84C35.8245 121.826 35.82 121.812 35.8109 121.8C35.8017 121.789 35.7886 121.782 35.7742 121.78Z" fill="white"/>
<path d="M65.6496 174.222H43.1123L46.3257 150.682L47.147 144.646H61.6149L62.4362 150.682L65.6496 174.222Z" fill="#DBDBDB"/>
<path d="M62.4357 150.682H46.3257L47.147 144.647H61.6149L62.4357 150.682Z" fill="#C7C7C7"/>
<path d="M63.6837 142.553H45.0781V147.665H63.6837V142.553Z" fill="#DBDBDB"/>
<path d="M28.7847 174.222H353.308" stroke="#263238" stroke-linecap="round" stroke-linejoin="round"/>
<path d="M192.114 214.001C276.631 214.001 345.146 206.493 345.146 197.232C345.146 187.971 276.631 180.463 192.114 180.463C107.596 180.463 39.0815 187.971 39.0815 197.232C39.0815 206.493 107.596 214.001 192.114 214.001Z" fill="#EBEBEB"/>
<path d="M156.49 194.452C155.246 194.874 119.589 194.999 118.225 194.145C117.706 193.824 117.385 188.631 117.175 182.346C117.129 180.989 117.09 179.588 117.06 178.164L114.168 159.145L138.005 158.992L140.255 178.015L140.164 182.199C140.164 182.199 153.838 188.257 155.232 189.355C156.626 190.453 157.735 194.032 156.49 194.452Z" fill="#EB9481"/>
<path d="M156.49 194.453C155.246 194.874 119.589 194.999 118.225 194.145C117.595 193.75 117.251 186.168 117.06 178.164L140.255 178.015L140.164 182.199C140.164 182.199 153.838 188.257 155.232 189.355C156.626 190.453 157.735 194.032 156.49 194.453Z" fill="white"/>
<path d="M156.49 194.452C155.246 194.874 119.589 194.999 118.225 194.145C117.706 193.824 117.385 188.631 117.175 182.346L140.164 182.199C140.164 182.199 153.838 188.257 155.232 189.355C156.626 190.453 157.735 194.032 156.49 194.452Z" fill="#A6A6A6"/>
<path d="M155.974 193.028C149.997 192.903 125.874 192.959 119.955 193.289C119.907 193.289 119.907 193.325 119.955 193.327C125.879 193.581 149.999 193.327 155.974 193.126C156.101 193.122 156.1 193.031 155.974 193.028Z" fill="#263238"/>
<path d="M152.935 188.08C152.27 188.065 151.61 188.188 150.995 188.442C150.381 188.695 149.825 189.074 149.365 189.553C148.529 190.408 148.054 191.553 148.04 192.749C148.04 192.784 148.107 192.785 148.112 192.749C148.311 191.565 148.889 190.477 149.758 189.649C150.628 188.82 151.743 188.297 152.936 188.156C152.946 188.156 152.955 188.152 152.962 188.145C152.969 188.138 152.973 188.128 152.973 188.118C152.973 188.108 152.969 188.098 152.962 188.091C152.955 188.084 152.945 188.08 152.935 188.08Z" fill="#263238"/>
<path d="M142.486 182.785C140.093 182.76 137.322 183.615 135.843 185.577C135.785 185.652 135.896 185.733 135.965 185.696C138.053 184.593 140.254 183.716 142.529 183.081C142.565 183.071 142.596 183.049 142.616 183.018C142.636 182.987 142.644 182.95 142.639 182.914C142.633 182.877 142.615 182.844 142.587 182.821C142.558 182.797 142.522 182.784 142.486 182.785Z" fill="#263238"/>
<path d="M144.336 183.499C141.943 183.474 139.172 184.328 137.692 186.29C137.635 186.366 137.746 186.447 137.815 186.41C139.903 185.306 142.104 184.429 144.379 183.795C144.414 183.785 144.445 183.763 144.465 183.732C144.485 183.701 144.494 183.664 144.488 183.628C144.483 183.591 144.465 183.558 144.436 183.534C144.408 183.511 144.372 183.498 144.336 183.499Z" fill="#263238"/>
<path d="M146.185 184.213C143.792 184.187 141.021 185.042 139.541 187.004C139.484 187.08 139.595 187.16 139.664 187.123C141.752 186.02 143.953 185.143 146.228 184.508C146.264 184.499 146.295 184.476 146.315 184.445C146.335 184.415 146.343 184.377 146.338 184.341C146.332 184.305 146.314 184.271 146.286 184.248C146.257 184.224 146.221 184.211 146.185 184.213Z" fill="#263238"/>
<path d="M148.034 184.926C145.641 184.901 142.871 185.755 141.391 187.717C141.333 187.793 141.444 187.874 141.513 187.837C143.602 186.733 145.802 185.856 148.078 185.222C148.113 185.212 148.144 185.19 148.164 185.159C148.184 185.128 148.192 185.091 148.187 185.054C148.182 185.018 148.163 184.985 148.135 184.961C148.107 184.938 148.071 184.925 148.034 184.926Z" fill="#263238"/>
<path d="M121.458 187.606C118.773 187.624 118.796 191.795 121.484 191.778C124.173 191.761 124.146 187.589 121.458 187.606Z" fill="#263238"/>
<path d="M145.049 176.392C143.834 175.392 142.312 176.379 141.569 177.424C140.327 179.242 139.584 181.354 139.416 183.55C139.415 183.559 139.417 183.569 139.42 183.579C139.424 183.588 139.43 183.596 139.437 183.603C139.444 183.609 139.453 183.614 139.462 183.617C139.472 183.619 139.482 183.62 139.492 183.618C139.501 183.663 139.521 183.705 139.55 183.741C139.579 183.776 139.616 183.804 139.658 183.823C139.7 183.842 139.746 183.85 139.792 183.848C139.838 183.846 139.882 183.832 139.922 183.81C141.622 182.625 143.585 181.568 144.87 179.9C145.62 178.925 146.197 177.338 145.049 176.392ZM142.131 181.487C141.31 182.09 140.463 182.649 139.664 183.282C140.049 182.077 140.494 180.892 140.999 179.732C141.251 179.174 141.541 178.634 141.867 178.115C142.384 177.323 144.725 175.315 144.973 177.917C145.11 179.352 143.111 180.769 142.131 181.487Z" fill="#263238"/>
<path d="M133.476 184.458C135.557 184.77 137.706 184.169 139.752 183.845C139.797 183.834 139.838 183.812 139.873 183.782C139.908 183.752 139.935 183.714 139.952 183.672C139.969 183.629 139.977 183.583 139.973 183.537C139.969 183.492 139.954 183.447 139.93 183.408C139.938 183.403 139.945 183.396 139.95 183.387C139.955 183.379 139.958 183.369 139.959 183.36C139.96 183.35 139.958 183.34 139.954 183.331C139.95 183.322 139.944 183.314 139.937 183.307C138.294 181.842 136.294 180.834 134.139 180.385C132.878 180.147 131.097 180.492 130.915 182.054C130.743 183.532 132.259 184.275 133.476 184.458ZM132.026 183.101C130.401 181.054 133.48 180.878 134.402 181.09C134.996 181.238 135.58 181.427 136.148 181.654C137.316 182.14 138.459 182.685 139.572 183.286C138.558 183.384 137.56 183.568 136.55 183.703C135.347 183.864 132.923 184.23 132.026 183.101Z" fill="#263238"/>
<path d="M79.1406 71.2298C79.1406 71.2298 106.823 118.323 107.565 121.629C108.703 126.709 114.741 176.885 114.741 176.885L143.545 176.366C143.545 176.366 138.582 132.127 133.879 117.553C130.492 107.055 106.062 72.2379 106.062 72.2379L79.1406 71.2298Z" fill="#37474F"/>
<path d="M140.926 171.951C136.789 171.922 122.131 171.757 116.625 172.272C116.583 172.276 116.584 172.345 116.625 172.351C118.52 172.623 136.792 172.2 140.927 172.067C140.934 172.067 140.942 172.066 140.949 172.063C140.956 172.06 140.962 172.055 140.967 172.05C140.973 172.044 140.977 172.038 140.98 172.031C140.983 172.024 140.984 172.016 140.984 172.009C140.984 172.001 140.982 171.994 140.979 171.987C140.976 171.98 140.972 171.973 140.967 171.968C140.961 171.963 140.955 171.958 140.948 171.956C140.941 171.953 140.933 171.951 140.926 171.951Z" fill="#263238"/>
<path d="M83.866 75.5527C85.6806 78.3978 87.5939 81.1837 89.4484 84.0043C91.303 86.8248 93.1533 89.6518 94.9775 92.4932C98.624 98.1717 102.186 103.902 105.663 109.684C107.351 112.347 108.795 115.157 109.978 118.079C111.062 121.012 111.875 124.037 112.408 127.118C112.972 130.209 113.344 133.33 113.695 136.45C114.069 139.773 114.44 143.095 114.808 146.418L117.085 166.814C117.178 167.648 117.267 168.482 117.351 169.317C117.364 169.439 117.145 169.463 117.129 169.341C116.282 162.585 115.578 155.809 114.808 149.045L113.661 138.942C113.304 135.811 112.967 132.676 112.48 129.561C112.032 126.492 111.354 123.46 110.452 120.492C109.455 117.416 108.119 114.46 106.47 111.679C103.132 105.922 99.5998 100.264 96.0657 94.6194C92.5017 88.927 88.9078 83.2518 85.1784 77.6576C84.7183 76.967 84.254 76.2807 83.7769 75.6007C83.7395 75.5484 83.8308 75.4993 83.866 75.5527Z" fill="#263238"/>
<path d="M88.2157 197.23C86.9023 197.15 52.992 183.411 52.049 182.109C52.0085 182.032 51.99 181.945 51.9956 181.858C52.002 180.692 54.3497 176.611 56.3126 171.256C56.4359 170.913 57.3106 169.325 58.5253 167.181C61.8646 161.296 67.7721 151.212 67.7721 151.212L89.9358 160.018L79.3276 175.899L77.6763 179.741C77.6763 179.741 88.078 190.491 88.9565 192.029C89.8349 193.568 89.5243 197.305 88.2157 197.23Z" fill="#EB9481"/>
<path d="M88.2157 197.23C86.9023 197.15 52.992 183.411 52.049 182.109C52.0085 182.032 51.99 181.945 51.9956 181.858C52.002 180.692 54.3497 176.611 56.3126 171.256C56.4359 170.913 57.3106 169.325 58.5253 167.181L79.3276 175.899L77.6763 179.742C77.6763 179.742 88.078 190.491 88.9565 192.03C89.8349 193.569 89.5243 197.305 88.2157 197.23Z" fill="white"/>
<path d="M88.2136 197.228C86.9018 197.151 52.9926 183.411 52.0496 182.108C51.6898 181.616 53.2055 176.984 56.3116 171.257L77.6775 179.743C77.6775 179.743 88.0797 190.489 88.9603 192.029C89.8409 193.569 89.5249 197.304 88.2136 197.228Z" fill="#A6A6A6"/>
<path d="M88.2693 195.714C82.7755 193.355 60.3929 184.358 54.7828 182.443C54.7374 182.428 54.7251 182.458 54.7689 182.478C60.1635 184.936 82.618 193.751 88.2314 195.805C88.3515 195.847 88.3851 195.763 88.2693 195.714Z" fill="#263238"/>
<path d="M87.3081 189.987C86.6977 189.724 86.0393 189.59 85.3746 189.594C84.7098 189.599 84.0532 189.741 83.4463 190.012C82.3505 190.492 81.4813 191.375 81.0191 192.478C81.0073 192.511 81.0676 192.536 81.0863 192.504C81.7151 191.481 82.6587 190.69 83.7757 190.248C84.8926 189.807 86.1226 189.74 87.2809 190.057C87.2902 190.061 87.3005 190.06 87.3096 190.056C87.3187 190.052 87.3258 190.045 87.3295 190.036C87.3331 190.026 87.3328 190.016 87.3288 190.007C87.3248 189.998 87.3174 189.991 87.3081 189.987Z" fill="#263238"/>
<path d="M79.6084 181.159C77.4 180.238 74.5111 179.99 72.4035 181.254C72.3219 181.303 72.3923 181.418 72.4719 181.411C74.8216 181.171 77.1903 181.183 79.5374 181.447C79.5731 181.45 79.6088 181.441 79.6379 181.42C79.667 181.399 79.6877 181.368 79.6963 181.333C79.7048 181.299 79.7007 181.262 79.6846 181.23C79.6685 181.198 79.6414 181.173 79.6084 181.159Z" fill="#263238"/>
<path d="M81.0526 182.514C78.8442 181.594 75.9553 181.346 73.8478 182.609C73.7661 182.658 73.8371 182.774 73.9166 182.766C76.2662 182.526 78.6347 182.538 80.9816 182.802C81.0175 182.806 81.0534 182.796 81.0828 182.776C81.1122 182.755 81.1331 182.724 81.1417 182.689C81.1504 182.654 81.1461 182.617 81.1297 182.585C81.1134 182.553 81.086 182.528 81.0526 182.514Z" fill="#263238"/>
<path d="M82.5023 183.869C80.2934 182.949 77.4045 182.701 75.2975 183.964C75.2158 184.013 75.2868 184.129 75.3663 184.121C77.7159 183.881 80.0844 183.893 82.4313 184.158C82.4671 184.161 82.5027 184.151 82.5318 184.13C82.5609 184.109 82.5816 184.079 82.5902 184.044C82.5988 184.009 82.5946 183.972 82.5785 183.94C82.5624 183.908 82.5354 183.883 82.5023 183.869Z" fill="#263238"/>
<path d="M83.9487 185.227C81.7403 184.306 78.8514 184.058 76.7439 185.322C76.6622 185.371 76.7327 185.486 76.8127 185.478C79.1623 185.239 81.5308 185.251 83.8777 185.515C83.9134 185.518 83.9491 185.508 83.9782 185.488C84.0073 185.467 84.028 185.436 84.0366 185.401C84.0451 185.366 84.041 185.33 84.0249 185.298C84.0088 185.266 83.9818 185.24 83.9487 185.227Z" fill="#263238"/>
<path d="M58.3071 177.739C55.8126 176.748 54.2686 180.621 56.7668 181.616C59.2651 182.611 60.8064 178.732 58.3071 177.739Z" fill="#263238"/>
<path d="M84.3831 176.194C83.6322 174.811 81.8513 175.155 80.77 175.845C78.9367 177.064 77.4561 178.744 76.477 180.716C76.4724 180.725 76.4699 180.735 76.4697 180.744C76.4695 180.754 76.4717 180.764 76.4759 180.773C76.4802 180.782 76.4865 180.79 76.4942 180.796C76.502 180.802 76.5111 180.806 76.5208 180.808C76.5048 180.985 76.6393 181.194 76.8485 181.146C78.868 180.686 81.0839 180.445 82.9016 179.378C83.9631 178.756 85.093 177.502 84.3831 176.194ZM79.7672 179.823C78.7794 180.074 77.7856 180.274 76.8074 180.561C77.6164 179.589 78.4741 178.658 79.3771 177.772C79.8205 177.349 80.2921 176.957 80.7887 176.598C81.5652 176.057 84.4888 175.075 83.7416 177.579C83.3296 178.96 80.9462 179.524 79.7672 179.823V179.823Z" fill="#263238"/>
<path d="M70.6294 179.329C72.444 180.4 74.6593 180.649 76.6772 181.115C76.8864 181.164 77.0214 180.955 77.006 180.777C77.0157 180.775 77.0248 180.771 77.0327 180.765C77.0405 180.759 77.0469 180.752 77.0512 180.743C77.0555 180.734 77.0576 180.724 77.0575 180.714C77.0573 180.704 77.0548 180.695 77.0502 180.686C76.077 178.711 74.6015 177.027 72.7716 175.803C71.693 175.109 69.9126 174.76 69.158 176.14C68.4439 177.446 69.57 178.703 70.6294 179.329ZM69.7952 177.527C69.0555 175.019 71.9759 176.012 72.7508 176.555C73.2462 176.915 73.7166 177.309 74.1587 177.732C75.0592 178.621 75.9142 179.555 76.7204 180.529C75.7432 180.24 74.75 180.036 73.7632 179.782C72.5864 179.48 70.2024 178.91 69.7952 177.527Z" fill="#263238"/>
<path d="M81.0392 175.01L56.2305 164.993C56.2305 164.993 86.9904 119.765 87.2183 116.398C87.4195 113.417 73.909 87.4679 73.3764 79.9055C72.8016 71.7443 76.7317 65.4275 81.0498 61.5075L106.643 72.3863C106.643 72.3863 103.942 76.7092 99.6874 79.1108C99.6874 79.1108 112.812 109.104 112.069 118.327C111.319 127.602 81.0392 175.01 81.0392 175.01Z" fill="#37474F"/>
<path d="M82.1413 170.292C78.5538 168.749 79.6051 169.142 76.0001 167.639C74.2389 166.904 62.6401 162.083 60.8747 161.686C60.8658 161.686 60.857 161.688 60.8494 161.692C60.8419 161.697 60.836 161.704 60.8326 161.712C60.8293 161.72 60.8287 161.73 60.8309 161.738C60.8331 161.747 60.8379 161.754 60.8448 161.76C62.3882 162.705 74.0665 167.323 75.8442 168.024C79.4771 169.456 78.4497 169.005 82.0986 170.397C82.1055 170.4 82.1129 170.402 82.1203 170.401C82.1278 170.401 82.1351 170.4 82.142 170.397C82.1488 170.394 82.1551 170.39 82.1603 170.385C82.1655 170.379 82.1697 170.373 82.1725 170.366C82.1753 170.359 82.1767 170.352 82.1766 170.344C82.1766 170.337 82.1751 170.33 82.1722 170.323C82.1693 170.316 82.1651 170.31 82.1598 170.304C82.1544 170.299 82.1482 170.295 82.1413 170.292Z" fill="#263238"/>
<path d="M103.901 78.5643C101.236 79.1842 98.6296 80.0297 96.1087 81.0919C96.089 81.0996 96.0731 81.1147 96.0642 81.1339C96.0553 81.1531 96.0542 81.175 96.0611 81.1951C96.068 81.2151 96.0823 81.2317 96.1011 81.2414C96.12 81.2511 96.1418 81.2532 96.1621 81.2472C98.7772 80.4835 101.439 79.7699 104.007 78.8674C104.048 78.8533 104.081 78.8237 104.099 78.7853C104.117 78.7469 104.12 78.7027 104.106 78.6625C104.091 78.6223 104.062 78.5894 104.023 78.571C103.985 78.5525 103.941 78.5501 103.901 78.5643Z" fill="#263238"/>
<path d="M100.864 77.5108C100.615 77.9527 100.396 78.4107 100.207 78.8818C100.023 79.24 99.9087 79.6303 99.8711 80.0314C99.8711 80.1083 99.9778 80.1269 100.023 80.08C100.291 79.7543 100.507 79.3888 100.663 78.9966C100.881 78.5739 101.108 78.1555 101.313 77.7275C101.452 77.443 101.02 77.2397 100.864 77.5108Z" fill="#263238"/>
<path d="M101.173 75.1049C101.33 74.711 101.488 74.3177 101.653 73.9276C101.825 73.5236 102.027 73.127 102.164 72.7097C102.186 72.6441 102.289 72.6878 102.263 72.754C102.107 73.1484 102.005 73.5689 101.879 73.9745C101.754 74.3802 101.62 74.7868 101.486 75.1914C101.235 75.9444 100.928 76.6921 100.605 77.4185C101.025 77.4405 101.444 77.3675 101.832 77.205C102.223 76.9568 102.526 76.5928 102.699 76.1638C102.924 75.7229 103.132 75.2725 103.364 74.8359C103.644 74.3625 103.882 73.8655 104.074 73.3507C104.096 73.2845 104.198 73.3288 104.174 73.395C103.826 74.4899 103.37 75.5471 102.811 76.5507C102.575 76.9419 102.384 77.3512 101.95 77.5023C101.475 77.6345 100.977 77.6677 100.489 77.5999C100.429 77.6165 100.352 77.578 100.373 77.5055C100.599 76.6923 100.866 75.8911 101.173 75.1049Z" fill="#263238"/>
<path d="M100.087 80.089C100.994 82.0173 101.795 83.9386 102.648 85.8599C103.479 87.7374 104.257 89.6363 105.013 91.5453C106.539 95.4023 107.906 99.3297 109.106 103.3C109.699 105.265 110.244 107.244 110.74 109.237C111.279 111.228 111.675 113.256 111.925 115.304C112.145 117.346 111.97 119.411 111.411 121.388C110.823 123.34 110.068 125.237 109.152 127.059C108.596 128.213 108.405 128.057 108.672 127.475C109.435 125.82 111.436 120.811 111.291 116.599C111.17 114.57 110.853 112.558 110.344 110.591C109.876 108.574 109.346 106.573 108.769 104.586C107.633 100.67 106.282 96.8315 104.893 92.9996C104.115 90.8525 103.28 88.7274 102.492 86.5851C101.696 84.4264 100.876 82.4843 99.9928 80.1275C99.992 80.1162 99.9947 80.105 100.001 80.0955C100.007 80.0859 100.015 80.0784 100.026 80.0742C100.036 80.0699 100.048 80.069 100.059 80.0717C100.07 80.0744 100.079 80.0805 100.087 80.089Z" fill="#263238"/>
<path d="M81.2499 73.7205C81.6945 73.5561 82.3109 73.8273 82.764 73.9046C83.9208 74.1006 85.0988 74.1399 86.2661 74.0215C86.8495 74.0062 87.4213 73.8551 87.936 73.5802C88.78 72.9657 89.5019 72.199 90.0644 71.3194C90.7418 70.424 91.2999 69.4443 91.7247 68.4049C91.7477 68.3425 91.8373 68.3852 91.8181 68.4471C91.6313 69.0416 91.4925 69.6415 91.2551 70.2232C91.0238 70.7686 90.7499 71.2948 90.4358 71.7971C89.9211 72.8051 89.1613 73.6676 88.2263 74.3054C87.1969 74.8925 85.8706 74.8578 84.7227 74.7916C84.0588 74.7531 83.3987 74.665 82.748 74.528C82.2783 74.4293 81.4885 74.354 81.1885 73.9409C81.1754 73.9232 81.1666 73.9027 81.1626 73.881C81.1586 73.8593 81.1596 73.837 81.1655 73.8158C81.1714 73.7945 81.1821 73.7749 81.1967 73.7584C81.2113 73.7419 81.2295 73.7289 81.2499 73.7205Z" fill="#263238"/>
<path d="M63.3127 160.264C67.3904 154.093 71.3931 147.873 75.3208 141.605C79.2608 135.321 83.1345 128.997 86.9419 122.632C87.854 121.111 88.9086 119.59 89.4956 117.905C90.1361 116.073 89.7715 114.299 89.193 112.507C88.1078 109.228 86.8368 106.013 85.3862 102.878C83.9559 99.7247 82.4151 96.6234 80.9 93.5104C79.3971 90.4235 77.7976 87.3259 76.6571 84.0811C75.5684 80.9819 75.1542 77.768 75.99 74.5536C76.8188 71.3643 78.6126 68.5005 80.4858 65.8277C80.98 65.1227 81.4833 64.4241 81.9802 63.7202C82.0181 63.6668 82.0992 63.7314 82.0597 63.7848C79.9954 66.5712 77.9823 69.5198 76.7719 72.7919C76.153 74.4053 75.8071 76.1104 75.7482 77.8374C75.7379 79.5893 76.01 81.3314 76.5541 82.9966C77.558 86.2409 79.1425 89.3134 80.6192 92.3619C82.1285 95.4786 83.6784 98.5756 85.1338 101.718C86.6219 104.87 87.9436 108.098 89.0932 111.389C89.5944 112.857 90.1531 114.394 90.12 115.968C90.0837 117.692 89.2608 119.244 88.409 120.697C84.6983 127.024 80.8471 133.272 76.948 139.483C73.0342 145.718 69.0479 151.908 64.989 158.052C64.4781 158.827 63.9659 159.601 63.4525 160.375C63.3874 160.473 63.2492 160.36 63.3127 160.264Z" fill="#263238"/>
<path d="M108.064 43.6208C110.374 48.6909 122.043 55.6785 127.509 56.4294C131.44 56.9695 143.38 57.1552 147.475 56.5303C152.27 55.7975 148.606 42.8512 145.771 43.1826C137.979 44.0936 131.364 45.1076 129.283 45.1076C126.744 45.1076 112.999 40.6961 111.343 40.0755C107.29 38.5571 106.754 40.7452 108.064 43.6208Z" fill="#AF9893"/>
<path d="M108.136 44.9636C111.06 49.2907 120.785 56.3659 120.785 56.3659L122.133 53.3772L126.598 43.4959C126.598 43.4959 117.67 40.6785 111.795 39.4238C111.103 39.2667 110.4 39.1665 109.692 39.1244C105.94 38.9211 105.614 41.2405 108.136 44.9636Z" fill="#BDBDBD"/>
<path d="M108.136 44.9636C111.06 49.2907 120.785 56.3659 120.785 56.3659L122.133 53.3772C118.508 49.169 112.912 42.7909 109.692 39.1244C105.94 38.9211 105.614 41.2405 108.136 44.9636Z" fill="#263238"/>
<path d="M119.03 54.3683C119.771 52.5537 123.072 45.224 123.891 43.6864C123.948 43.5797 124.029 43.5882 123.984 43.7067C122.551 47.3546 120.922 50.9219 119.102 54.3928C119.082 54.4366 119.011 54.4142 119.03 54.3683Z" fill="#263238"/>
<path d="M144.341 43.3252C149.084 42.7029 154.95 41.6398 159.917 43.7484C160.474 43.9685 160.942 44.3698 161.244 44.8878C163.486 45.7951 163.733 47.1245 163.733 47.1245C165.564 48.6082 165.629 50.0064 165.629 50.0064C165.629 50.0064 168.251 51.0984 167.854 52.7923C167.414 54.6939 163.818 52.7881 161.2 52.9498C155.2 53.3196 146.775 55.5238 145.056 55.8023L144.341 43.3252Z" fill="#AF9893"/>
<path d="M154.64 48.9167C156.394 48.7881 158.155 48.7794 159.91 48.8905C161.823 49.1317 163.715 49.5148 165.57 50.0369C165.582 50.0397 165.594 50.038 165.604 50.0322C165.615 50.0264 165.622 50.017 165.626 50.0057C165.63 49.9944 165.629 49.9822 165.624 49.9714C165.619 49.9607 165.61 49.9522 165.599 49.9477C162.115 48.5806 158.322 48.1962 154.635 48.8366C154.551 48.8515 154.551 48.9215 154.64 48.9167Z" fill="#263238"/>
<path d="M153.89 45.3281C155.615 45.3516 158.644 45.413 163.715 47.1795C163.732 47.1848 163.747 47.1587 163.729 47.1501C160.691 45.6146 157.284 44.9553 153.892 45.2459C153.784 45.2534 153.776 45.3265 153.89 45.3281Z" fill="#263238"/>
<path d="M153.523 43.3919C156.453 43.544 158.282 44.011 161.229 44.8964C161.246 44.9017 161.259 44.8739 161.241 44.8665C157.997 43.5082 156.666 43.3828 153.514 43.2905C153.407 43.2873 153.409 43.386 153.523 43.3919Z" fill="#263238"/>
<path d="M153.999 53.8506C153.237 54.2088 153.419 54.6112 154.877 54.9484C156.352 55.2937 162.394 55.3855 162.18 57.4958C161.967 59.606 153.422 59.3429 151.037 58.5946C148.652 57.8464 145.056 55.8002 145.056 55.8002C146.73 55.5179 150.723 54.4462 153.999 53.8506Z" fill="#AF9893"/>
<path d="M114.408 51.7041C114.371 52.6156 114.282 53.5443 114.154 54.4638C114.166 54.4307 114.18 54.3987 114.193 54.3656C114.371 53.8853 114.543 53.3922 114.759 52.9284C114.771 52.9038 114.812 52.9102 114.808 52.9401C114.703 53.4492 114.548 53.9466 114.346 54.4254C114.254 54.6522 114.161 54.879 114.062 55.1037C113.996 55.5136 113.923 55.9208 113.839 56.3216C113.682 57.0848 112.961 60.3312 112.797 60.8799C112.762 60.9957 112.625 60.969 112.634 60.8404C112.673 60.2426 113.278 56.8612 113.4 56.0959C113.637 54.6112 113.955 53.1405 114.351 51.6902C114.362 51.6566 114.408 51.6726 114.408 51.7041Z" fill="#263238"/>
<path d="M108.846 75.9663C107.422 76.7001 105.586 77.8374 97.3149 76.2086C96.7978 76.1019 96.278 75.9764 95.7565 75.8217C87.9999 73.4916 78.696 64.3697 78.1714 63.7266C78.1714 63.7266 90.4911 43.75 106.252 37.4689C108.2 36.6929 111.425 38.1894 113.21 40.0525C113.85 40.7181 115.231 45.619 114.7 49.5912C114.169 53.5635 110.279 75.2394 108.846 75.9663Z" fill="#21201E"/>
<path d="M107.745 49.4108L107.398 51.8989" stroke="white" stroke-width="0.5" stroke-miterlimit="10"/>
<path d="M102.373 63.0146L102.026 65.5027" stroke="white" stroke-width="0.5" stroke-miterlimit="10"/>
<path d="M93.2394 52.7336L92.8931 55.2217" stroke="white" stroke-width="0.5" stroke-miterlimit="10"/>
<path d="M111.264 62.3246L110.918 64.8127" stroke="white" stroke-width="0.5" stroke-miterlimit="10"/>
<path d="M99.5371 50.9687L102.025 51.3151" stroke="white" stroke-width="0.5" stroke-miterlimit="10"/>
<path d="M89.1729 60.7977L91.6609 61.144" stroke="white" stroke-width="0.5" stroke-miterlimit="10"/>
<path d="M101.366 71.4347L103.854 71.7811" stroke="white" stroke-width="0.5" stroke-miterlimit="10"/>
<path d="M85.9775 67.5708L88.4656 67.9172" stroke="white" stroke-width="0.5" stroke-miterlimit="10"/>
<path d="M107.667 39.8497L110.155 40.1961" stroke="white" stroke-width="0.5" stroke-miterlimit="10"/>
<path d="M104.654 43.2542L102.65 44.7688" stroke="white" stroke-width="0.5" stroke-miterlimit="10"/>
<path d="M88.2194 52.9279L86.2148 54.4425" stroke="white" stroke-width="0.5" stroke-miterlimit="10"/>
<path d="M108.737 57.2972L106.733 58.8118" stroke="white" stroke-width="0.5" stroke-miterlimit="10"/>
<path d="M95.4499 65.6644L93.4453 67.179" stroke="white" stroke-width="0.5" stroke-miterlimit="10"/>
<path d="M113.83 45.8629L111.825 47.3775" stroke="white" stroke-width="0.5" stroke-miterlimit="10"/>
<path d="M113.551 55.5622L112.037 53.5576" stroke="white" stroke-width="0.5" stroke-miterlimit="10"/>
<path d="M83.935 62.2408L82.4204 60.2363" stroke="white" stroke-width="0.5" stroke-miterlimit="10"/>
<path d="M109.952 70.1917L108.437 68.1872" stroke="white" stroke-width="0.5" stroke-miterlimit="10"/>
<path d="M96.9135 47.5354L95.3989 45.5309" stroke="white" stroke-width="0.5" stroke-miterlimit="10"/>
<path d="M97.1435 74.7159L95.6289 72.7113" stroke="white" stroke-width="0.5" stroke-miterlimit="10"/>
<path d="M99.3603 58.6822L97.8457 56.6776" stroke="white" stroke-width="0.5" stroke-miterlimit="10"/>
<path d="M110.313 45.3713C108.305 44.9978 106.411 40.8408 106.174 38.0443C106.158 37.8527 107.113 36.3301 108.187 34.4253C108.834 33.2661 109.527 31.9613 110.074 30.7242C110.184 30.4696 110.843 31.3182 110.843 31.3182L112.273 32.4117L116.998 36.036C115.872 37.387 114.916 38.8706 114.151 40.4539C114.078 40.6262 114.02 40.8049 113.98 40.9876C113.972 41.0121 113.967 41.041 113.954 41.0767C113.685 42.1073 112.254 45.7311 110.313 45.3713Z" fill="#AF9893"/>
<path d="M113.981 40.9849C113.973 41.0095 113.968 41.0383 113.955 41.074C113.675 40.9929 113.402 40.8892 113.139 40.764C107.967 38.3399 110.249 31.4105 110.249 31.4105L112.274 32.4117L116.999 36.036C115.874 37.3869 114.917 38.8706 114.152 40.4539C114.079 40.6253 114.022 40.8031 113.981 40.9849Z" fill="#263238"/>
<path d="M122.423 21.2666C122.423 21.2666 124.786 22.7668 124.801 25.4347C124.816 28.1027 123.754 30.7124 123.507 30.8058C123.261 30.8992 122.423 21.2666 122.423 21.2666Z" fill="#263238"/>
<path d="M110.695 22.651C109.274 25.4555 109.346 34.2854 111.122 36.5611C113.694 39.8599 118.647 40.9966 121.639 37.7352C124.538 34.5736 124.241 23.0672 122.19 20.9239C119.167 17.7645 112.794 18.5079 110.695 22.651Z" fill="#AF9893"/>
<path d="M118.23 29.7257C118.225 29.7027 118.184 29.755 118.185 29.779C118.218 30.3805 118.154 31.0748 117.615 31.2872C117.598 31.2937 117.6 31.3241 117.621 31.3209C118.282 31.2125 118.357 30.2898 118.23 29.7257Z" fill="#263238"/>
<path d="M117.678 29.1092C116.709 29.0559 116.678 31.0017 117.576 31.0487C118.46 31.0962 118.491 29.1525 117.678 29.1092Z" fill="#263238"/>
<path d="M121.523 29.7032C121.528 29.6803 121.57 29.7326 121.569 29.7566C121.541 30.358 121.609 31.0518 122.15 31.2605C122.167 31.2669 122.164 31.2968 122.145 31.2936C121.482 31.1901 121.4 30.2684 121.523 29.7032Z" fill="#263238"/>
<path d="M122.071 29.0831C123.04 29.0249 123.085 30.9675 122.188 31.0214C121.304 31.0748 121.258 29.1316 122.071 29.0831Z" fill="#263238"/>
<path d="M117.07 27.6303C117.326 27.5594 117.579 27.4749 117.826 27.3774C118.105 27.3254 118.359 27.183 118.548 26.9723C118.595 26.8945 118.615 26.8033 118.604 26.7132C118.594 26.623 118.554 26.5388 118.49 26.4738C118.346 26.3641 118.175 26.2949 117.994 26.2735C117.814 26.2521 117.631 26.2793 117.465 26.3522C117.105 26.4475 116.794 26.6736 116.593 26.9862C116.55 27.06 116.531 27.1444 116.536 27.2292C116.541 27.314 116.571 27.3954 116.621 27.4637C116.672 27.5319 116.741 27.584 116.821 27.6136C116.9 27.6432 116.987 27.649 117.07 27.6303Z" fill="#263238"/>
<path d="M122.744 28.4918C122.484 28.4341 122.228 28.3628 121.975 28.2783C121.694 28.2413 121.433 28.1126 121.232 27.9122C121.182 27.8368 121.157 27.7469 121.163 27.6562C121.169 27.5656 121.204 27.4794 121.264 27.411C121.402 27.294 121.57 27.216 121.749 27.1852C121.927 27.1545 122.111 27.172 122.281 27.236C122.646 27.3116 122.97 27.521 123.188 27.823C123.234 27.8946 123.259 27.9781 123.258 28.0633C123.257 28.1485 123.232 28.2316 123.185 28.3025C123.138 28.3735 123.071 28.4292 122.993 28.4628C122.915 28.4964 122.828 28.5064 122.744 28.4918Z" fill="#263238"/>
<path d="M116.86 35.4281C117.002 35.5717 117.143 35.7681 117.361 35.7894C117.585 35.789 117.806 35.741 118.01 35.6485C118.014 35.6469 118.019 35.6467 118.023 35.6478C118.028 35.649 118.032 35.6515 118.034 35.655C118.037 35.6585 118.039 35.6628 118.039 35.6673C118.039 35.6718 118.038 35.6762 118.036 35.68C117.948 35.7969 117.83 35.8879 117.695 35.9432C117.559 35.9985 117.411 36.0162 117.267 35.9944C117.144 35.9606 117.035 35.8912 116.952 35.7952C116.87 35.6991 116.817 35.5807 116.802 35.4548C116.793 35.4191 116.839 35.4073 116.86 35.4281Z" fill="#263238"/>
<path d="M120.355 32.8573C120.355 32.8573 120.381 33.7582 120.335 34.1766C119.517 34.0909 118.691 34.1206 117.88 34.2647C117.69 34.3063 117.709 34.1515 117.929 34.0512C118.582 33.752 119.309 33.6555 120.017 33.7742C120.059 33.6616 119.952 32.3866 120.017 32.3904C120.339 32.4551 120.651 32.5628 120.945 32.7106C120.945 30.8325 120.646 28.9699 120.675 27.0999C120.675 27.0861 120.68 27.0729 120.689 27.0626C120.698 27.0523 120.711 27.0456 120.724 27.0438C120.738 27.042 120.752 27.0451 120.763 27.0527C120.775 27.0602 120.783 27.0717 120.787 27.0849C121.17 29.0719 121.353 31.0922 121.334 33.1156C121.342 33.3531 120.515 32.9443 120.355 32.8573Z" fill="#263238"/>
<path d="M119.155 33.8543C118.94 34.4125 118.546 34.8835 118.034 35.1933C117.227 35.5199 116.95 34.7899 117.774 34.1441C118.199 33.9221 118.677 33.8219 119.155 33.8543Z" fill="#263238"/>
<path d="M118.314 35.0289C118.229 35.098 118.134 35.1538 118.031 35.1944C117.29 35.4932 116.996 34.9008 117.594 34.3031C117.999 34.3351 118.442 34.4846 118.314 35.0289Z" fill="#FF99BA"/>
<path d="M110.287 30.2054C111.263 30.5048 112.385 27.5705 112.703 26.4418C112.983 25.4475 113.306 22.2934 113.353 22.0783C113.401 21.8632 117.608 24.8695 120.067 24.1506C122.527 23.4318 124.171 21.2239 124.205 20.1939C124.238 19.1638 121.184 16.5482 118.542 16.4142C115.899 16.2803 112.322 19.6393 112.322 19.6393C112.755 19.1482 113.147 18.6231 113.496 18.0692C113.455 17.9502 111.748 18.6323 111.433 19.8486C111.433 19.8486 111.771 18.3222 111.642 18.2934C111.513 18.2646 110.186 19.5742 110.485 20.5637C110.485 20.5637 108.951 21.8931 108.809 23.3506C108.667 24.8082 109.141 29.8537 110.287 30.2054Z" fill="#263238"/>
<path d="M121.815 23.6367C121.087 24.0289 120.303 24.3092 119.491 24.4682C118.586 24.5457 117.675 24.3991 116.84 24.0412C115.995 23.7115 115.209 23.2466 114.514 22.6648C113.898 22.1584 113.353 21.5473 112.696 21.0963C112.532 20.9832 112.341 21.2201 112.442 21.3712C113.54 22.9164 115.104 24.0681 116.906 24.6566C117.742 24.9304 118.635 24.9819 119.498 24.8062C120.36 24.6305 121.162 24.2335 121.824 23.6543C121.833 23.649 121.826 23.6308 121.815 23.6367Z" fill="#263238"/>
<path d="M111.308 29.9439C111.308 29.9439 109.794 26.8688 108.426 27.3678C107.058 27.8668 107.9 32.1149 109.295 32.8931C109.467 33.0051 109.659 33.0813 109.862 33.1169C110.064 33.1525 110.271 33.1469 110.471 33.1003C110.671 33.0537 110.859 32.9672 111.025 32.8459C111.19 32.7246 111.33 32.5711 111.434 32.3946L111.308 29.9439Z" fill="#AF9893"/>
<path d="M108.697 28.5792C108.693 28.5785 108.688 28.5794 108.684 28.5819C108.679 28.5844 108.676 28.5882 108.675 28.5927C108.673 28.5973 108.673 28.6022 108.675 28.6068C108.676 28.6113 108.679 28.6152 108.683 28.6177C109.656 29.1972 110.054 30.2433 110.285 31.2989C110.24 31.1858 110.172 31.0836 110.084 30.9995C109.997 30.9153 109.892 30.8512 109.777 30.8114C109.662 30.7717 109.54 30.7574 109.419 30.7694C109.298 30.7814 109.182 30.8195 109.077 30.881C109.047 30.896 109.066 30.9424 109.097 30.9408C109.288 30.9108 109.484 30.9409 109.657 31.0269C109.831 31.1129 109.973 31.2507 110.065 31.4211C110.217 31.7069 110.338 32.0082 110.426 32.3199C110.46 32.4202 110.635 32.3962 110.616 32.2841L110.612 32.2585C110.841 30.9392 110.098 28.9309 108.697 28.5792Z" fill="#263238"/>
<path d="M101.3 43.6688C100.257 49.7145 106.785 70.0866 110.987 73.8918C117.237 79.549 128.793 83.2715 132.981 84.4819C134.806 85.0097 139.855 72.1675 138.009 71.3216C134.054 69.5102 121.768 65.6783 120.61 64.6942C119.452 63.71 112.391 53.5533 109.255 47.695C105.047 39.8353 101.828 40.6108 101.3 43.6688Z" fill="#AF9893"/>
<path d="M134.902 70.1917C134.902 70.1917 140.352 71.5793 143.872 72.6563C145.837 73.2562 149.113 74.5856 150.354 75.6866C152.211 77.3336 158.925 85.4067 157.003 87.0772C155.263 88.5886 150.375 80.92 150.375 80.92C150.375 80.92 155.991 88.222 153.561 89.6576C151.131 91.0932 146.761 81.6939 146.761 81.6939C146.761 81.6939 152.364 89.3256 149.623 90.409C147.552 91.2283 143.115 82.9373 143.115 82.9373C143.115 82.9373 147.884 89.5306 145.791 90.4624C143.478 91.494 138.902 84.0992 138.902 84.0992C133.181 85.5775 129.853 83.9391 127.624 82.4955C127.082 82.1486 134.902 70.1917 134.902 70.1917Z" fill="#AF9893"/>
<path d="M148.592 78.2702C149.283 79.1038 149.988 79.9433 150.602 80.8356C151.216 81.728 151.8 82.6427 152.328 83.5884C153.044 84.8105 153.617 86.1107 154.036 87.4636C153.117 85.1153 150.968 81.8886 150.353 80.9957C149.739 80.1029 149.172 79.1839 148.56 78.2921C148.542 78.2697 148.576 78.2504 148.592 78.2702Z" fill="#263238"/>
<path d="M145.329 80.4295C146.513 81.3683 148.997 84.8592 149.954 87.2026C149.995 87.3008 149.942 87.2928 149.884 87.2026C149.133 86.0461 146.103 81.5615 145.301 80.4471C145.289 80.4301 145.313 80.4167 145.329 80.4295Z" fill="#263238"/>
<path d="M142.196 81.7798C143.671 83.3258 144.834 85.1419 145.622 87.1284C145.663 87.2256 145.585 87.2106 145.529 87.1188C144.424 85.3192 143.569 83.8996 142.139 81.8267C142.117 81.7968 142.164 81.7483 142.196 81.7798Z" fill="#263238"/>
<path d="M107.24 44.1134C102.367 37.2213 99.4551 39.7766 100.432 47.2574C101.346 54.2535 103.798 62.5882 103.798 62.5882L116.096 56.6322C116.096 56.6322 110.358 48.5244 107.24 44.1134Z" fill="#6B6B6B"/>
<path d="M110.218 46.8234L110.648 49.2987" stroke="white" stroke-width="0.5" stroke-miterlimit="10"/>
<path d="M102.942 51.0135L105.418 50.5839" stroke="white" stroke-width="0.5" stroke-miterlimit="10"/>
<path d="M103.259 40.2964L101.812 42.3506" stroke="white" stroke-width="0.5" stroke-miterlimit="10"/>
<path d="M113.635 54.2322L112.188 56.2858" stroke="white" stroke-width="0.5" stroke-miterlimit="10"/>
<path d="M105.127 58.4126L103.074 56.9658" stroke="white" stroke-width="0.5" stroke-miterlimit="10"/>
<path d="M108.875 46.1879C109.529 47.0882 110.209 47.9709 110.883 48.8563C110.711 48.4091 110.562 47.9576 110.431 47.4954C110.43 47.4912 110.43 47.4867 110.432 47.4829C110.434 47.4791 110.438 47.4763 110.442 47.475C110.446 47.4737 110.451 47.474 110.455 47.476C110.459 47.4779 110.462 47.4812 110.463 47.4853C110.6 47.8396 110.751 48.1881 110.882 48.5441C110.945 48.7153 111.009 48.886 111.075 49.0565L111.118 49.1659C111.644 49.8559 112.167 50.5476 112.673 51.2521C113.277 52.0926 113.86 52.9471 114.445 53.8005C115.05 54.6827 115.623 55.7164 116.26 56.5757C115.882 56.8125 115.481 57.0122 115.065 57.1718C114.955 57.2326 114.881 57.1264 114.997 57.0912C115.104 57.0586 116.011 56.5015 116.022 56.4908C115.435 55.6305 114.757 54.8364 114.144 53.9937C113.531 53.151 112.922 52.3211 112.33 51.4704C111.129 49.7433 110.026 47.948 108.835 46.2146C108.823 46.1884 108.858 46.166 108.875 46.1879Z" fill="#263238"/>
<path d="M100.735 52.2063C100.922 52.5702 101.123 52.9305 101.288 53.3046C101.357 53.4594 101.424 53.6147 101.493 53.7689C101.212 52.4368 100.936 51.1038 100.664 49.77C100.661 49.754 100.685 49.746 100.689 49.762C101.252 51.9218 101.821 54.0795 102.343 56.2495C102.912 58.316 103.375 60.4101 103.731 62.5236C104.104 62.3619 104.491 62.2314 104.886 62.1335C104.491 62.3917 104.065 62.598 103.618 62.7472C102.973 60.5999 102.438 58.4208 102.017 56.2186C101.883 55.6208 101.759 55.0215 101.631 54.4227C101.493 54.0619 101.325 53.714 101.161 53.3638C100.987 52.9929 100.847 52.6044 100.695 52.2244C100.688 52.202 100.724 52.1849 100.735 52.2063Z" fill="#263238"/>
<path d="M103.993 60.5314C105.701 59.5675 112.839 55.8733 114.436 55.1768C114.547 55.1283 114.604 55.1848 114.496 55.2499C111.109 57.2201 107.617 59.0045 104.036 60.5954C103.991 60.6173 103.948 60.5559 103.993 60.5314Z" fill="#263238"/>
<path d="M299.555 200.837H136.95L160.463 67.4939H323.067L299.555 200.837Z" fill="#9398B0"/>
<path d="M216.114 53.6846H162.897L160.462 67.4939H217.411L216.114 53.6846Z" fill="#9398B0"/>
<g opacity="0.1">
<path d="M299.555 200.837H136.95L160.463 67.4939H323.067L299.555 200.837Z" fill="black"/>
<path d="M216.114 53.6846H162.897L160.462 67.4939H217.411L216.114 53.6846Z" fill="black"/>
</g>
<path d="M157.156 59.3183V54.6736" stroke="#263238" stroke-miterlimit="10"/>
<path d="M152.427 60.6851L150.104 56.6632" stroke="#263238" stroke-miterlimit="10"/>
<path d="M149.015 64.2341L144.993 61.912" stroke="#263238" stroke-miterlimit="10"/>
<path d="M147.835 69.0134H143.19" stroke="#263238" stroke-miterlimit="10"/>
<path d="M149.203 73.7424L145.181 76.0645" stroke="#263238" stroke-miterlimit="10"/>
<path d="M152.751 77.1538L150.429 81.1757" stroke="#263238" stroke-miterlimit="10"/>
<path d="M157.53 78.3338V82.9785" stroke="#263238" stroke-miterlimit="10"/>
<path d="M162.259 76.9664L164.581 80.9889" stroke="#263238" stroke-miterlimit="10"/>
<path d="M165.67 73.4174L169.693 75.7395" stroke="#263238" stroke-miterlimit="10"/>
<path d="M166.851 68.6382H171.495" stroke="#263238" stroke-miterlimit="10"/>
<path d="M165.483 63.9097L169.506 61.5876" stroke="#263238" stroke-miterlimit="10"/>
<path d="M161.935 60.4983L164.257 56.4759" stroke="#263238" stroke-miterlimit="10"/>
<path d="M299.317 200.838H136.362L113.226 72.3345H276.181L299.317 200.838Z" fill="#9398B0"/>
<path d="M169.693 150.89C173.434 150.89 176.466 147.857 176.466 144.117C176.466 140.376 173.434 137.344 169.693 137.344C165.952 137.344 162.92 140.376 162.92 144.117C162.92 147.857 165.952 150.89 169.693 150.89Z" fill="white"/>
<path d="M223.235 150.89C226.976 150.89 230.009 147.857 230.009 144.117C230.009 140.376 226.976 137.344 223.235 137.344C219.495 137.344 216.462 140.376 216.462 144.117C216.462 147.857 219.495 150.89 223.235 150.89Z" fill="white"/>
<path d="M206.193 151.971L205.819 151.262C205.785 151.198 202.286 144.73 195.246 144.73C188.825 144.73 187.26 150.82 187.196 151.081L187.006 151.857L185.453 151.483L185.64 150.707C185.658 150.631 187.548 143.133 195.246 143.133C203.272 143.133 207.079 150.22 207.237 150.522L207.611 151.231L206.193 151.971Z" fill="#EEEEEE"/>
<path d="M288.502 143.339C297.964 141.307 306.51 134.24 307.235 125.807C308.654 109.262 288.502 100.123 290.584 81.0049C292.569 62.7686 311.697 61.4669 319.366 63.9881C327.835 66.7724 324.933 74.9128 317.265 73.8614C303.971 72.0404 295.614 57.5875 301.929 41.193C307.916 25.646 325.251 22.39 325.251 22.39" stroke="#263238" stroke-miterlimit="10" stroke-dasharray="4 4"/>
<path d="M333.713 19.4424C332.351 15.2262 323.235 16.7398 325.014 22.2507C326.792 27.7616 335.075 23.6607 333.713 19.4424Z" fill="#263238"/>
<path d="M320.057 17.7415C320.125 15.8917 322.698 14.4684 326.337 15.1264C329.975 15.7845 333.401 18.2341 333.401 18.2341C333.401 18.2341 329.803 20.435 326.127 20.823C322.451 21.211 319.987 19.6004 320.057 17.7415Z" fill="#EBEBEB"/>
<path d="M333.4 18.2341C331.512 18.2474 329.625 18.1839 327.739 18.1274C325.854 18.0462 323.968 17.9721 322.085 17.8194C323.974 17.8055 325.86 17.8696 327.746 17.9262C329.632 18.0051 331.517 18.0804 333.4 18.2341Z" fill="#263238"/>
<path d="M323.713 16.1036C324.25 16.3589 324.771 16.6458 325.274 16.9628C325.779 17.2761 326.265 17.6195 326.729 17.9912C326.191 17.7368 325.67 17.4498 325.168 17.132C324.663 16.8185 324.177 16.4751 323.713 16.1036Z" fill="#263238"/>
<path d="M328.659 18.058C328.174 18.4507 327.669 18.8158 327.143 19.1515C326.621 19.491 326.079 19.8002 325.521 20.0775C326.492 19.2939 327.543 18.6168 328.659 18.058Z" fill="#263238"/>
<path d="M329.207 17.0162C329.745 17.2785 330.217 17.6589 330.587 18.1289C330.318 17.9993 330.065 17.8381 329.834 17.6486C329.601 17.463 329.391 17.2508 329.207 17.0162Z" fill="#263238"/>
<path d="M323.523 28.7211C324.66 30.1819 327.579 29.8312 330.147 27.1708C332.714 24.5103 334.06 20.5193 334.06 20.5193C334.06 20.5193 329.855 20.8396 326.646 22.6733C323.437 24.5071 322.381 27.2535 323.523 28.7211Z" fill="#EBEBEB"/>
<path d="M334.06 20.5193C332.52 21.6134 331.028 22.7678 329.531 23.9179C328.049 25.0862 326.563 26.2496 325.125 27.4739C326.665 26.3804 328.158 25.226 329.654 24.0759C331.136 22.9071 332.622 21.7436 334.06 20.5193Z" fill="#263238"/>
<path d="M327.447 27.911C327.733 27.3902 327.988 26.8529 328.211 26.3019C328.437 25.7524 328.631 25.1898 328.79 24.6171C328.503 25.1376 328.248 25.6749 328.026 26.2261C327.8 26.7758 327.606 27.3384 327.447 27.911Z" fill="#263238"/>
<path d="M330.316 23.4344C329.07 23.3666 327.821 23.4324 326.589 23.6308C327.211 23.6665 327.835 23.6665 328.457 23.6308C329.08 23.6004 329.7 23.5348 330.316 23.4344Z" fill="#263238"/>
<path d="M331.37 23.958C331.513 23.6959 331.623 23.4178 331.7 23.1297C331.782 22.8426 331.828 22.5467 331.839 22.2485C331.696 22.5104 331.585 22.7885 331.508 23.0768C331.427 23.3641 331.381 23.6598 331.37 23.958Z" fill="#263238"/>
<path d="M333.713 19.4424C333.412 19.5402 333.088 19.5464 332.783 19.4602C332.478 19.3739 332.206 19.1992 332 18.958C331.795 18.7169 331.665 18.4202 331.629 18.1055C331.592 17.7908 331.649 17.4723 331.793 17.1902C331.938 16.9081 332.162 16.6752 332.439 16.521C332.716 16.3667 333.032 16.2981 333.348 16.3237C333.664 16.3493 333.965 16.468 334.213 16.6648C334.462 16.8616 334.646 17.1277 334.743 17.4293C334.873 17.8329 334.837 18.2714 334.644 18.6488C334.451 19.0262 334.116 19.3116 333.713 19.4424Z" fill="#455A64"/>
<path d="M334.695 22.486C334.394 22.5837 334.07 22.5898 333.766 22.5035C333.461 22.4172 333.188 22.2424 332.983 22.0012C332.777 21.76 332.648 21.4633 332.611 21.1486C332.575 20.8339 332.632 20.5154 332.777 20.2334C332.921 19.9513 333.146 19.7185 333.422 19.5643C333.699 19.4101 334.016 19.3415 334.331 19.3671C334.647 19.3928 334.948 19.5115 335.196 19.7084C335.445 19.9052 335.629 20.1713 335.726 20.4729C335.856 20.8766 335.82 21.3152 335.627 21.6925C335.434 22.0699 335.099 22.3553 334.695 22.486Z" fill="#455A64"/>
<path d="M159.726 21.1268C159.47 23.5784 158.539 25.9107 157.034 27.8635C155.53 29.8162 153.513 31.3125 151.208 32.1852C148.902 33.0579 146.4 33.2727 143.98 32.8057C141.56 32.3387 139.317 31.2082 137.502 29.5404L130.847 30.5171L134.177 24.7644C133.413 22.8917 133.087 20.8695 133.222 18.8516C133.358 16.8337 133.951 14.8733 134.958 13.1193C135.965 11.3654 137.359 9.86407 139.033 8.72957C140.707 7.59507 142.618 6.85723 144.62 6.57215C146.622 6.28708 148.663 6.46227 150.588 7.08442C152.512 7.70656 154.269 8.75927 155.725 10.1625C157.182 11.5658 158.299 13.2826 158.992 15.1825C159.685 17.0824 159.936 19.1153 159.726 21.1268Z" fill="white"/>
<path d="M159.726 21.1267C159.469 23.5787 158.54 25.9122 157.041 27.8699C156.308 28.8571 155.428 29.7261 154.432 30.4466C153.451 31.1896 152.371 31.7909 151.223 32.2329C150.075 32.6826 148.869 32.97 147.642 33.0868C147.027 33.142 146.41 33.1538 145.794 33.122C145.176 33.107 144.56 33.0429 143.953 32.9304C141.5 32.4798 139.221 31.3547 137.372 29.6813L137.529 29.7299L130.881 30.7503L130.401 30.8245L130.645 30.3975L133.954 24.6336L133.939 24.8615C133.158 22.9546 132.826 20.8938 132.968 18.8382C133.11 16.7825 133.723 14.787 134.758 13.0055C135.794 11.2313 137.218 9.71475 138.924 8.56948C140.628 7.44139 142.564 6.71372 144.589 6.44105C146.614 6.16838 148.675 6.3578 150.616 6.99509C152.54 7.64708 154.293 8.72196 155.746 10.1407C157.197 11.5516 158.309 13.2733 158.999 15.1763C159.688 17.0792 159.936 19.1138 159.726 21.1267ZM159.726 21.1267C159.938 19.1235 159.688 17.0981 158.995 15.2067C158.301 13.3154 157.183 11.6085 155.725 10.2177C154.268 8.82688 152.511 7.78927 150.589 7.18484C148.667 6.5804 146.633 6.42529 144.641 6.73144C142.668 7.02628 140.789 7.76875 139.148 8.90197C137.522 10.0433 136.164 11.5246 135.168 13.243C134.187 14.9675 133.61 16.8918 133.479 18.8713C133.356 20.8486 133.676 22.8285 134.416 24.6662L134.464 24.7852L134.4 24.8919L131.051 30.6334L130.813 30.2828L137.474 29.3499L137.566 29.3371L137.631 29.3984C139.408 31.0626 141.614 32.1986 144.001 32.679C144.596 32.8001 145.199 32.8735 145.805 32.8984C146.411 32.9413 147.02 32.9413 147.626 32.8984C148.841 32.804 150.036 32.5407 151.179 32.116C152.327 31.7012 153.409 31.1185 154.387 30.3868C155.384 29.677 156.266 28.8183 157.002 27.8406C158.51 25.8961 159.453 23.5728 159.726 21.1267Z" fill="#263238"/>
<path d="M139.992 25.9454C139.982 25.7687 140.008 25.5919 140.069 25.4257C140.13 25.2595 140.224 25.1076 140.346 24.9794C140.468 24.8512 140.615 24.7494 140.778 24.6802C140.941 24.6111 141.117 24.5762 141.294 24.5776C141.644 24.5959 141.974 24.748 142.215 25.0024C142.457 25.2569 142.591 25.5943 142.591 25.9452C142.591 26.296 142.457 26.6334 142.215 26.8879C141.974 27.1423 141.644 27.2944 141.294 27.3127C141.117 27.3141 140.941 27.2792 140.778 27.2101C140.616 27.141 140.469 27.0392 140.347 26.9111C140.225 26.7829 140.13 26.6311 140.069 26.465C140.008 26.2989 139.982 26.122 139.992 25.9454ZM140.544 22.7908L140.235 12.2034H142.352L142.044 22.7913L140.544 22.7908Z" fill="#606060"/>
<path d="M145.066 25.9454C145.056 25.7687 145.082 25.5918 145.143 25.4256C145.204 25.2595 145.298 25.1076 145.42 24.9794C145.542 24.8512 145.69 24.7494 145.852 24.6802C146.015 24.6111 146.191 24.5762 146.368 24.5776C146.718 24.5959 147.048 24.748 147.29 25.0024C147.531 25.2569 147.666 25.5943 147.666 25.9452C147.666 26.296 147.531 26.6334 147.29 26.8879C147.048 27.1423 146.718 27.2944 146.368 27.3127C146.191 27.3142 146.015 27.2793 145.852 27.2103C145.69 27.1412 145.543 27.0394 145.421 26.9113C145.298 26.7831 145.204 26.6312 145.143 26.4651C145.082 26.299 145.056 26.1221 145.066 25.9454ZM145.617 22.7908L145.309 12.2034H147.427L147.118 22.7913L145.617 22.7908Z" fill="#606060"/>
<path d="M150.14 25.9454C150.13 25.7687 150.156 25.5918 150.217 25.4256C150.278 25.2595 150.372 25.1076 150.494 24.9794C150.616 24.8512 150.763 24.7494 150.926 24.6802C151.089 24.6111 151.265 24.5762 151.442 24.5776C151.792 24.5959 152.122 24.748 152.363 25.0024C152.605 25.2569 152.739 25.5943 152.739 25.9452C152.739 26.296 152.605 26.6334 152.363 26.8879C152.122 27.1423 151.792 27.2944 151.442 27.3127C151.265 27.3142 151.089 27.2793 150.926 27.2103C150.763 27.1412 150.616 27.0394 150.494 26.9113C150.372 26.7831 150.278 26.6312 150.217 26.4651C150.156 26.299 150.13 26.1221 150.14 25.9454ZM150.692 22.7908L150.383 12.2034H152.5L152.193 22.7908H150.692Z" fill="#606060"/>
</g>
<path d="M7.08084 253.126C5.91684 253.126 4.85484 252.856 3.89484 252.316C2.93484 251.764 2.17284 251.002 1.60884 250.03C1.05684 249.046 0.780836 247.942 0.780836 246.718C0.780836 245.494 1.05684 244.396 1.60884 243.424C2.17284 242.44 2.93484 241.678 3.89484 241.138C4.85484 240.586 5.91684 240.31 7.08084 240.31C8.25684 240.31 9.32484 240.586 10.2848 241.138C11.2448 241.678 12.0008 242.434 12.5528 243.406C13.1048 244.378 13.3808 245.482 13.3808 246.718C13.3808 247.954 13.1048 249.058 12.5528 250.03C12.0008 251.002 11.2448 251.764 10.2848 252.316C9.32484 252.856 8.25684 253.126 7.08084 253.126ZM7.08084 251.704C7.95684 251.704 8.74284 251.5 9.43884 251.092C10.1468 250.684 10.6988 250.102 11.0948 249.346C11.5028 248.59 11.7068 247.714 11.7068 246.718C11.7068 245.71 11.5028 244.834 11.0948 244.09C10.6988 243.334 10.1528 242.752 9.45684 242.344C8.76084 241.936 7.96884 241.732 7.08084 241.732C6.19284 241.732 5.40084 241.936 4.70484 242.344C4.00884 242.752 3.45684 243.334 3.04884 244.09C2.65284 244.834 2.45484 245.71 2.45484 246.718C2.45484 247.714 2.65284 248.59 3.04884 249.346C3.45684 250.102 4.00884 250.684 4.70484 251.092C5.41284 251.5 6.20484 251.704 7.08084 251.704ZM19.8452 253.162C18.9212 253.162 18.0812 252.952 17.3252 252.532C16.5812 252.112 15.9932 251.518 15.5612 250.75C15.1412 249.97 14.9312 249.07 14.9312 248.05C14.9312 247.042 15.1472 246.154 15.5792 245.386C16.0232 244.606 16.6232 244.012 17.3792 243.604C18.1352 243.184 18.9812 242.974 19.9172 242.974C20.8532 242.974 21.6992 243.184 22.4552 243.604C23.2112 244.012 23.8052 244.6 24.2372 245.368C24.6812 246.136 24.9032 247.03 24.9032 248.05C24.9032 249.07 24.6752 249.97 24.2192 250.75C23.7752 251.518 23.1692 252.112 22.4012 252.532C21.6332 252.952 20.7812 253.162 19.8452 253.162ZM19.8452 251.722C20.4332 251.722 20.9852 251.584 21.5012 251.308C22.0172 251.032 22.4312 250.618 22.7432 250.066C23.0672 249.514 23.2292 248.842 23.2292 248.05C23.2292 247.258 23.0732 246.586 22.7612 246.034C22.4492 245.482 22.0412 245.074 21.5372 244.81C21.0332 244.534 20.4872 244.396 19.8992 244.396C19.2992 244.396 18.7472 244.534 18.2432 244.81C17.7512 245.074 17.3552 245.482 17.0552 246.034C16.7552 246.586 16.6052 247.258 16.6052 248.05C16.6052 248.854 16.7492 249.532 17.0372 250.084C17.3372 250.636 17.7332 251.05 18.2252 251.326C18.7172 251.59 19.2572 251.722 19.8452 251.722ZM31.3589 253.162C30.4349 253.162 29.5949 252.952 28.8389 252.532C28.0949 252.112 27.5069 251.518 27.0749 250.75C26.6549 249.97 26.4449 249.07 26.4449 248.05C26.4449 247.042 26.6609 246.154 27.0929 245.386C27.5369 244.606 28.1369 244.012 28.8929 243.604C29.6489 243.184 30.4949 242.974 31.4309 242.974C32.3669 242.974 33.2129 243.184 33.9689 243.604C34.7249 244.012 35.3189 244.6 35.7509 245.368C36.1949 246.136 36.4169 247.03 36.4169 248.05C36.4169 249.07 36.1889 249.97 35.7329 250.75C35.2889 251.518 34.6829 252.112 33.9149 252.532C33.1469 252.952 32.2949 253.162 31.3589 253.162ZM31.3589 251.722C31.9469 251.722 32.4989 251.584 33.0149 251.308C33.5309 251.032 33.9449 250.618 34.2569 250.066C34.5809 249.514 34.7429 248.842 34.7429 248.05C34.7429 247.258 34.5869 246.586 34.2749 246.034C33.9629 245.482 33.5549 245.074 33.0509 244.81C32.5469 244.534 32.0009 244.396 31.4129 244.396C30.8129 244.396 30.2609 244.534 29.7569 244.81C29.2649 245.074 28.8689 245.482 28.5689 246.034C28.2689 246.586 28.1189 247.258 28.1189 248.05C28.1189 248.854 28.2629 249.532 28.5509 250.084C28.8509 250.636 29.2469 251.05 29.7389 251.326C30.2309 251.59 30.7709 251.722 31.3589 251.722ZM40.2086 244.954C40.5326 244.39 41.0126 243.922 41.6486 243.55C42.2966 243.166 43.0466 242.974 43.8986 242.974C44.7746 242.974 45.5666 243.184 46.2746 243.604C46.9946 244.024 47.5586 244.618 47.9666 245.386C48.3746 246.142 48.5786 247.024 48.5786 248.032C48.5786 249.028 48.3746 249.916 47.9666 250.696C47.5586 251.476 46.9946 252.082 46.2746 252.514C45.5666 252.946 44.7746 253.162 43.8986 253.162C43.0586 253.162 42.3146 252.976 41.6666 252.604C41.0306 252.22 40.5446 251.746 40.2086 251.182V257.68H38.5706V243.136H40.2086V244.954ZM46.9046 248.032C46.9046 247.288 46.7546 246.64 46.4546 246.088C46.1546 245.536 45.7466 245.116 45.2306 244.828C44.7266 244.54 44.1686 244.396 43.5566 244.396C42.9566 244.396 42.3986 244.546 41.8826 244.846C41.3786 245.134 40.9706 245.56 40.6586 246.124C40.3586 246.676 40.2086 247.318 40.2086 248.05C40.2086 248.794 40.3586 249.448 40.6586 250.012C40.9706 250.564 41.3786 250.99 41.8826 251.29C42.3986 251.578 42.9566 251.722 43.5566 251.722C44.1686 251.722 44.7266 251.578 45.2306 251.29C45.7466 250.99 46.1546 250.564 46.4546 250.012C46.7546 249.448 46.9046 248.788 46.9046 248.032ZM54.2266 253.162C53.4706 253.162 52.7926 253.036 52.1926 252.784C51.5926 252.52 51.1186 252.16 50.7706 251.704C50.4226 251.236 50.2306 250.702 50.1946 250.102H51.8866C51.9346 250.594 52.1626 250.996 52.5706 251.308C52.9906 251.62 53.5366 251.776 54.2086 251.776C54.8326 251.776 55.3246 251.638 55.6846 251.362C56.0446 251.086 56.2246 250.738 56.2246 250.318C56.2246 249.886 56.0326 249.568 55.6486 249.364C55.2646 249.148 54.6706 248.938 53.8666 248.734C53.1346 248.542 52.5346 248.35 52.0666 248.158C51.6106 247.954 51.2146 247.66 50.8786 247.276C50.5546 246.88 50.3926 246.364 50.3926 245.728C50.3926 245.224 50.5426 244.762 50.8426 244.342C51.1426 243.922 51.5686 243.592 52.1206 243.352C52.6726 243.1 53.3026 242.974 54.0106 242.974C55.1026 242.974 55.9846 243.25 56.6566 243.802C57.3286 244.354 57.6886 245.11 57.7366 246.07H56.0986C56.0626 245.554 55.8526 245.14 55.4686 244.828C55.0966 244.516 54.5926 244.36 53.9566 244.36C53.3686 244.36 52.9006 244.486 52.5526 244.738C52.2046 244.99 52.0306 245.32 52.0306 245.728C52.0306 246.052 52.1326 246.322 52.3366 246.538C52.5526 246.742 52.8166 246.91 53.1286 247.042C53.4526 247.162 53.8966 247.3 54.4606 247.456C55.1686 247.648 55.7446 247.84 56.1886 248.032C56.6326 248.212 57.0106 248.488 57.3226 248.86C57.6466 249.232 57.8146 249.718 57.8266 250.318C57.8266 250.858 57.6766 251.344 57.3766 251.776C57.0766 252.208 56.6506 252.55 56.0986 252.802C55.5586 253.042 54.9346 253.162 54.2266 253.162ZM61.8309 250.732L59.8149 255.574H58.7169L60.0309 250.732H61.8309ZM67.8941 248.032C67.8941 247.024 68.0981 246.142 68.5061 245.386C68.9141 244.618 69.4721 244.024 70.1801 243.604C70.9001 243.184 71.7041 242.974 72.5921 242.974C73.3601 242.974 74.0741 243.154 74.7341 243.514C75.3941 243.862 75.8981 244.324 76.2461 244.9V239.68H77.9021V253H76.2461V251.146C75.9221 251.734 75.4421 252.22 74.8061 252.604C74.1701 252.976 73.4261 253.162 72.5741 253.162C71.6981 253.162 70.9001 252.946 70.1801 252.514C69.4721 252.082 68.9141 251.476 68.5061 250.696C68.0981 249.916 67.8941 249.028 67.8941 248.032ZM76.2461 248.05C76.2461 247.306 76.0961 246.658 75.7961 246.106C75.4961 245.554 75.0881 245.134 74.5721 244.846C74.0681 244.546 73.5101 244.396 72.8981 244.396C72.2861 244.396 71.7281 244.54 71.2241 244.828C70.7201 245.116 70.3181 245.536 70.0181 246.088C69.7181 246.64 69.5681 247.288 69.5681 248.032C69.5681 248.788 69.7181 249.448 70.0181 250.012C70.3181 250.564 70.7201 250.99 71.2241 251.29C71.7281 251.578 72.2861 251.722 72.8981 251.722C73.5101 251.722 74.0681 251.578 74.5721 251.29C75.0881 250.99 75.4961 250.564 75.7961 250.012C76.0961 249.448 76.2461 248.794 76.2461 248.05ZM84.9722 253.162C84.0482 253.162 83.2082 252.952 82.4522 252.532C81.7082 252.112 81.1202 251.518 80.6882 250.75C80.2682 249.97 80.0582 249.07 80.0582 248.05C80.0582 247.042 80.2742 246.154 80.7062 245.386C81.1502 244.606 81.7502 244.012 82.5062 243.604C83.2622 243.184 84.1082 242.974 85.0442 242.974C85.9802 242.974 86.8262 243.184 87.5822 243.604C88.3382 244.012 88.9322 244.6 89.3642 245.368C89.8082 246.136 90.0302 247.03 90.0302 248.05C90.0302 249.07 89.8022 249.97 89.3462 250.75C88.9022 251.518 88.2962 252.112 87.5282 252.532C86.7602 252.952 85.9082 253.162 84.9722 253.162ZM84.9722 251.722C85.5602 251.722 86.1122 251.584 86.6282 251.308C87.1442 251.032 87.5582 250.618 87.8702 250.066C88.1942 249.514 88.3562 248.842 88.3562 248.05C88.3562 247.258 88.2002 246.586 87.8882 246.034C87.5762 245.482 87.1682 245.074 86.6642 244.81C86.1602 244.534 85.6142 244.396 85.0262 244.396C84.4262 244.396 83.8742 244.534 83.3702 244.81C82.8782 245.074 82.4822 245.482 82.1822 246.034C81.8822 246.586 81.7322 247.258 81.7322 248.05C81.7322 248.854 81.8762 249.532 82.1642 250.084C82.4642 250.636 82.8602 251.05 83.3522 251.326C83.8442 251.59 84.3842 251.722 84.9722 251.722ZM96.9899 242.956C98.1899 242.956 99.1619 243.322 99.9059 244.054C100.65 244.774 101.022 245.818 101.022 247.186V253H99.4019V247.42C99.4019 246.436 99.1559 245.686 98.6639 245.17C98.1719 244.642 97.4999 244.378 96.6479 244.378C95.7839 244.378 95.0939 244.648 94.5779 245.188C94.0739 245.728 93.8219 246.514 93.8219 247.546V253H92.1839V243.136H93.8219V244.54C94.1459 244.036 94.5839 243.646 95.1359 243.37C95.6999 243.094 96.3179 242.956 96.9899 242.956ZM105.696 244.486V250.3C105.696 250.78 105.798 251.122 106.002 251.326C106.206 251.518 106.56 251.614 107.064 251.614H108.27V253H106.794C105.882 253 105.198 252.79 104.742 252.37C104.286 251.95 104.058 251.26 104.058 250.3V244.486H102.78V243.136H104.058V240.652H105.696V243.136H108.27V244.486H105.696ZM119.949 242.956C120.693 242.956 121.365 243.118 121.965 243.442C122.565 243.754 123.033 244.228 123.369 244.864C123.717 245.5 123.891 246.274 123.891 247.186V253H122.271V247.42C122.271 246.436 122.025 245.686 121.533 245.17C121.041 244.642 120.369 244.378 119.517 244.378C118.653 244.378 117.963 244.648 117.447 245.188C116.943 245.728 116.691 246.514 116.691 247.546V253H115.053V239.68H116.691V244.54C117.015 244.036 117.459 243.646 118.023 243.37C118.599 243.094 119.241 242.956 119.949 242.956ZM125.955 248.032C125.955 247.024 126.159 246.142 126.567 245.386C126.975 244.618 127.533 244.024 128.241 243.604C128.961 243.184 129.759 242.974 130.635 242.974C131.499 242.974 132.249 243.16 132.885 243.532C133.521 243.904 133.995 244.372 134.307 244.936V243.136H135.963V253H134.307V251.164C133.983 251.74 133.497 252.22 132.849 252.604C132.213 252.976 131.469 253.162 130.617 253.162C129.741 253.162 128.949 252.946 128.241 252.514C127.533 252.082 126.975 251.476 126.567 250.696C126.159 249.916 125.955 249.028 125.955 248.032ZM134.307 248.05C134.307 247.306 134.157 246.658 133.857 246.106C133.557 245.554 133.149 245.134 132.633 244.846C132.129 244.546 131.571 244.396 130.959 244.396C130.347 244.396 129.789 244.54 129.285 244.828C128.781 245.116 128.379 245.536 128.079 246.088C127.779 246.64 127.629 247.288 127.629 248.032C127.629 248.788 127.779 249.448 128.079 250.012C128.379 250.564 128.781 250.99 129.285 251.29C129.789 251.578 130.347 251.722 130.959 251.722C131.571 251.722 132.129 251.578 132.633 251.29C133.149 250.99 133.557 250.564 133.857 250.012C134.157 249.448 134.307 248.794 134.307 248.05ZM142.403 251.488L145.463 243.136H147.209L143.339 253H141.431L137.561 243.136H139.325L142.403 251.488ZM157.821 247.69C157.821 248.002 157.803 248.332 157.767 248.68H149.883C149.943 249.652 150.273 250.414 150.873 250.966C151.485 251.506 152.223 251.776 153.087 251.776C153.795 251.776 154.383 251.614 154.851 251.29C155.331 250.954 155.667 250.51 155.859 249.958H157.623C157.359 250.906 156.831 251.68 156.039 252.28C155.247 252.868 154.263 253.162 153.087 253.162C152.151 253.162 151.311 252.952 150.567 252.532C149.835 252.112 149.259 251.518 148.839 250.75C148.419 249.97 148.209 249.07 148.209 248.05C148.209 247.03 148.413 246.136 148.821 245.368C149.229 244.6 149.799 244.012 150.531 243.604C151.275 243.184 152.127 242.974 153.087 242.974C154.023 242.974 154.851 243.178 155.571 243.586C156.291 243.994 156.843 244.558 157.227 245.278C157.623 245.986 157.821 246.79 157.821 247.69ZM156.129 247.348C156.129 246.724 155.991 246.19 155.715 245.746C155.439 245.29 155.061 244.948 154.581 244.72C154.113 244.48 153.591 244.36 153.015 244.36C152.187 244.36 151.479 244.624 150.891 245.152C150.315 245.68 149.985 246.412 149.901 247.348H156.129ZM166.78 244.486V250.3C166.78 250.78 166.882 251.122 167.086 251.326C167.29 251.518 167.644 251.614 168.148 251.614H169.354V253H167.878C166.966 253 166.282 252.79 165.826 252.37C165.37 251.95 165.142 251.26 165.142 250.3V244.486H163.864V243.136H165.142V240.652H166.78V243.136H169.354V244.486H166.78ZM176.234 242.956C176.978 242.956 177.65 243.118 178.25 243.442C178.85 243.754 179.318 244.228 179.654 244.864C180.002 245.5 180.176 246.274 180.176 247.186V253H178.556V247.42C178.556 246.436 178.31 245.686 177.818 245.17C177.326 244.642 176.654 244.378 175.802 244.378C174.938 244.378 174.248 244.648 173.732 245.188C173.228 245.728 172.976 246.514 172.976 247.546V253H171.338V239.68H172.976V244.54C173.3 244.036 173.744 243.646 174.308 243.37C174.884 243.094 175.526 242.956 176.234 242.956ZM191.852 247.69C191.852 248.002 191.834 248.332 191.798 248.68H183.914C183.974 249.652 184.304 250.414 184.904 250.966C185.516 251.506 186.254 251.776 187.118 251.776C187.826 251.776 188.414 251.614 188.882 251.29C189.362 250.954 189.698 250.51 189.89 249.958H191.654C191.39 250.906 190.862 251.68 190.07 252.28C189.278 252.868 188.294 253.162 187.118 253.162C186.182 253.162 185.342 252.952 184.598 252.532C183.866 252.112 183.29 251.518 182.87 250.75C182.45 249.97 182.24 249.07 182.24 248.05C182.24 247.03 182.444 246.136 182.852 245.368C183.26 244.6 183.83 244.012 184.562 243.604C185.306 243.184 186.158 242.974 187.118 242.974C188.054 242.974 188.882 243.178 189.602 243.586C190.322 243.994 190.874 244.558 191.258 245.278C191.654 245.986 191.852 246.79 191.852 247.69ZM190.16 247.348C190.16 246.724 190.022 246.19 189.746 245.746C189.47 245.29 189.092 244.948 188.612 244.72C188.144 244.48 187.622 244.36 187.046 244.36C186.218 244.36 185.51 244.624 184.922 245.152C184.346 245.68 184.016 246.412 183.932 247.348H190.16ZM199.695 241.534C199.383 241.534 199.119 241.426 198.903 241.21C198.699 240.994 198.597 240.73 198.597 240.418C198.597 240.106 198.699 239.842 198.903 239.626C199.119 239.41 199.383 239.302 199.695 239.302C200.007 239.302 200.265 239.41 200.469 239.626C200.685 239.842 200.793 240.106 200.793 240.418C200.793 240.73 200.685 240.994 200.469 241.21C200.265 241.426 200.007 241.534 199.695 241.534ZM200.505 255.142C200.505 256.018 200.283 256.66 199.839 257.068C199.395 257.476 198.747 257.68 197.895 257.68H196.941V256.294H197.625C198.081 256.294 198.399 256.204 198.579 256.024C198.771 255.844 198.867 255.538 198.867 255.106V243.136H200.505V255.142ZM207.58 253.162C206.656 253.162 205.816 252.952 205.06 252.532C204.316 252.112 203.728 251.518 203.296 250.75C202.876 249.97 202.666 249.07 202.666 248.05C202.666 247.042 202.882 246.154 203.314 245.386C203.758 244.606 204.358 244.012 205.114 243.604C205.87 243.184 206.716 242.974 207.652 242.974C208.588 242.974 209.434 243.184 210.19 243.604C210.946 244.012 211.54 244.6 211.972 245.368C212.416 246.136 212.638 247.03 212.638 248.05C212.638 249.07 212.41 249.97 211.954 250.75C211.51 251.518 210.904 252.112 210.136 252.532C209.368 252.952 208.516 253.162 207.58 253.162ZM207.58 251.722C208.168 251.722 208.72 251.584 209.236 251.308C209.752 251.032 210.166 250.618 210.478 250.066C210.802 249.514 210.964 248.842 210.964 248.05C210.964 247.258 210.808 246.586 210.496 246.034C210.184 245.482 209.776 245.074 209.272 244.81C208.768 244.534 208.222 244.396 207.634 244.396C207.034 244.396 206.482 244.534 205.978 244.81C205.486 245.074 205.09 245.482 204.79 246.034C204.49 246.586 204.34 247.258 204.34 248.05C204.34 248.854 204.484 249.532 204.772 250.084C205.072 250.636 205.468 251.05 205.96 251.326C206.452 251.59 206.992 251.722 207.58 251.722ZM216.429 244.972C216.765 244.384 217.257 243.904 217.905 243.532C218.553 243.16 219.291 242.974 220.119 242.974C221.007 242.974 221.805 243.184 222.513 243.604C223.221 244.024 223.779 244.618 224.187 245.386C224.595 246.142 224.799 247.024 224.799 248.032C224.799 249.028 224.595 249.916 224.187 250.696C223.779 251.476 223.215 252.082 222.495 252.514C221.787 252.946 220.995 253.162 220.119 253.162C219.267 253.162 218.517 252.976 217.869 252.604C217.233 252.232 216.753 251.758 216.429 251.182V253H214.791V239.68H216.429V244.972ZM223.125 248.032C223.125 247.288 222.975 246.64 222.675 246.088C222.375 245.536 221.967 245.116 221.451 244.828C220.947 244.54 220.389 244.396 219.777 244.396C219.177 244.396 218.619 244.546 218.103 244.846C217.599 245.134 217.191 245.56 216.879 246.124C216.579 246.676 216.429 247.318 216.429 248.05C216.429 248.794 216.579 249.448 216.879 250.012C217.191 250.564 217.599 250.99 218.103 251.29C218.619 251.578 219.177 251.722 219.777 251.722C220.389 251.722 220.947 251.578 221.451 251.29C221.967 250.99 222.375 250.564 222.675 250.012C222.975 249.448 223.125 248.788 223.125 248.032ZM240.25 243.136L234.31 257.644H232.618L234.562 252.892L230.584 243.136H232.402L235.498 251.128L238.558 243.136H240.25ZM246.199 253.162C245.275 253.162 244.435 252.952 243.679 252.532C242.935 252.112 242.347 251.518 241.915 250.75C241.495 249.97 241.285 249.07 241.285 248.05C241.285 247.042 241.501 246.154 241.933 245.386C242.377 244.606 242.977 244.012 243.733 243.604C244.489 243.184 245.335 242.974 246.271 242.974C247.207 242.974 248.053 243.184 248.809 243.604C249.565 244.012 250.159 244.6 250.591 245.368C251.035 246.136 251.257 247.03 251.257 248.05C251.257 249.07 251.029 249.97 250.573 250.75C250.129 251.518 249.523 252.112 248.755 252.532C247.987 252.952 247.135 253.162 246.199 253.162ZM246.199 251.722C246.787 251.722 247.339 251.584 247.855 251.308C248.371 251.032 248.785 250.618 249.097 250.066C249.421 249.514 249.583 248.842 249.583 248.05C249.583 247.258 249.427 246.586 249.115 246.034C248.803 245.482 248.395 245.074 247.891 244.81C247.387 244.534 246.841 244.396 246.253 244.396C245.653 244.396 245.101 244.534 244.597 244.81C244.105 245.074 243.709 245.482 243.409 246.034C243.109 246.586 242.959 247.258 242.959 248.05C242.959 248.854 243.103 249.532 243.391 250.084C243.691 250.636 244.087 251.05 244.579 251.326C245.071 251.59 245.611 251.722 246.199 251.722ZM262.158 243.136V253H260.52V251.542C260.208 252.046 259.77 252.442 259.206 252.73C258.654 253.006 258.042 253.144 257.37 253.144C256.602 253.144 255.912 252.988 255.3 252.676C254.688 252.352 254.202 251.872 253.842 251.236C253.494 250.6 253.32 249.826 253.32 248.914V243.136H254.94V248.698C254.94 249.67 255.186 250.42 255.678 250.948C256.17 251.464 256.842 251.722 257.694 251.722C258.57 251.722 259.26 251.452 259.764 250.912C260.268 250.372 260.52 249.586 260.52 248.554V243.136H262.158ZM266.562 244.738C266.85 244.174 267.258 243.736 267.786 243.424C268.326 243.112 268.98 242.956 269.748 242.956V244.648H269.316C267.48 244.648 266.562 245.644 266.562 247.636V253H264.924V243.136H266.562V244.738ZM280.639 247.69C280.639 248.002 280.621 248.332 280.585 248.68H272.701C272.761 249.652 273.091 250.414 273.691 250.966C274.303 251.506 275.041 251.776 275.905 251.776C276.613 251.776 277.201 251.614 277.669 251.29C278.149 250.954 278.485 250.51 278.677 249.958H280.441C280.177 250.906 279.649 251.68 278.857 252.28C278.065 252.868 277.081 253.162 275.905 253.162C274.969 253.162 274.129 252.952 273.385 252.532C272.653 252.112 272.077 251.518 271.657 250.75C271.237 249.97 271.027 249.07 271.027 248.05C271.027 247.03 271.231 246.136 271.639 245.368C272.047 244.6 272.617 244.012 273.349 243.604C274.093 243.184 274.945 242.974 275.905 242.974C276.841 242.974 277.669 243.178 278.389 243.586C279.109 243.994 279.661 244.558 280.045 245.278C280.441 245.986 280.639 246.79 280.639 247.69ZM278.947 247.348C278.947 246.724 278.809 246.19 278.533 245.746C278.257 245.29 277.879 244.948 277.399 244.72C276.931 244.48 276.409 244.36 275.833 244.36C275.005 244.36 274.297 244.624 273.709 245.152C273.133 245.68 272.803 246.412 272.719 247.348H278.947ZM289.238 239.68V253H287.6V239.68H289.238ZM296.332 253.162C295.408 253.162 294.568 252.952 293.812 252.532C293.068 252.112 292.48 251.518 292.048 250.75C291.628 249.97 291.418 249.07 291.418 248.05C291.418 247.042 291.634 246.154 292.066 245.386C292.51 244.606 293.11 244.012 293.866 243.604C294.622 243.184 295.468 242.974 296.404 242.974C297.34 242.974 298.186 243.184 298.942 243.604C299.698 244.012 300.292 244.6 300.724 245.368C301.168 246.136 301.39 247.03 301.39 248.05C301.39 249.07 301.162 249.97 300.706 250.75C300.262 251.518 299.656 252.112 298.888 252.532C298.12 252.952 297.268 253.162 296.332 253.162ZM296.332 251.722C296.92 251.722 297.472 251.584 297.988 251.308C298.504 251.032 298.918 250.618 299.23 250.066C299.554 249.514 299.716 248.842 299.716 248.05C299.716 247.258 299.56 246.586 299.248 246.034C298.936 245.482 298.528 245.074 298.024 244.81C297.52 244.534 296.974 244.396 296.386 244.396C295.786 244.396 295.234 244.534 294.73 244.81C294.238 245.074 293.842 245.482 293.542 246.034C293.242 246.586 293.092 247.258 293.092 248.05C293.092 248.854 293.236 249.532 293.524 250.084C293.824 250.636 294.22 251.05 294.712 251.326C295.204 251.59 295.744 251.722 296.332 251.722ZM307.845 253.162C306.921 253.162 306.081 252.952 305.325 252.532C304.581 252.112 303.993 251.518 303.561 250.75C303.141 249.97 302.931 249.07 302.931 248.05C302.931 247.042 303.147 246.154 303.579 245.386C304.023 244.606 304.623 244.012 305.379 243.604C306.135 243.184 306.981 242.974 307.917 242.974C308.853 242.974 309.699 243.184 310.455 243.604C311.211 244.012 311.805 244.6 312.237 245.368C312.681 246.136 312.903 247.03 312.903 248.05C312.903 249.07 312.675 249.97 312.219 250.75C311.775 251.518 311.169 252.112 310.401 252.532C309.633 252.952 308.781 253.162 307.845 253.162ZM307.845 251.722C308.433 251.722 308.985 251.584 309.501 251.308C310.017 251.032 310.431 250.618 310.743 250.066C311.067 249.514 311.229 248.842 311.229 248.05C311.229 247.258 311.073 246.586 310.761 246.034C310.449 245.482 310.041 245.074 309.537 244.81C309.033 244.534 308.487 244.396 307.899 244.396C307.299 244.396 306.747 244.534 306.243 244.81C305.751 245.074 305.355 245.482 305.055 246.034C304.755 246.586 304.605 247.258 304.605 248.05C304.605 248.854 304.749 249.532 305.037 250.084C305.337 250.636 305.733 251.05 306.225 251.326C306.717 251.59 307.257 251.722 307.845 251.722ZM320.565 253L316.695 248.644V253H315.057V239.68H316.695V247.51L320.493 243.136H322.779L318.135 248.05L322.797 253H320.565ZM325.167 241.534C324.855 241.534 324.591 241.426 324.375 241.21C324.159 240.994 324.051 240.73 324.051 240.418C324.051 240.106 324.159 239.842 324.375 239.626C324.591 239.41 324.855 239.302 325.167 239.302C325.467 239.302 325.719 239.41 325.923 239.626C326.139 239.842 326.247 240.106 326.247 240.418C326.247 240.73 326.139 240.994 325.923 241.21C325.719 241.426 325.467 241.534 325.167 241.534ZM325.959 243.136V253H324.321V243.136H325.959ZM333.556 242.956C334.756 242.956 335.728 243.322 336.472 244.054C337.216 244.774 337.588 245.818 337.588 247.186V253H335.968V247.42C335.968 246.436 335.722 245.686 335.23 245.17C334.738 244.642 334.066 244.378 333.214 244.378C332.35 244.378 331.66 244.648 331.144 245.188C330.64 245.728 330.388 246.514 330.388 247.546V253H328.75V243.136H330.388V244.54C330.712 244.036 331.15 243.646 331.702 243.37C332.266 243.094 332.884 242.956 333.556 242.956ZM344.332 242.974C345.184 242.974 345.928 243.16 346.564 243.532C347.212 243.904 347.692 244.372 348.004 244.936V243.136H349.66V253.216C349.66 254.116 349.468 254.914 349.084 255.61C348.7 256.318 348.148 256.87 347.428 257.266C346.72 257.662 345.892 257.86 344.944 257.86C343.648 257.86 342.568 257.554 341.704 256.942C340.84 256.33 340.33 255.496 340.174 254.44H341.794C341.974 255.04 342.346 255.52 342.91 255.88C343.474 256.252 344.152 256.438 344.944 256.438C345.844 256.438 346.576 256.156 347.14 255.592C347.716 255.028 348.004 254.236 348.004 253.216V251.146C347.68 251.722 347.2 252.202 346.564 252.586C345.928 252.97 345.184 253.162 344.332 253.162C343.456 253.162 342.658 252.946 341.938 252.514C341.23 252.082 340.672 251.476 340.264 250.696C339.856 249.916 339.652 249.028 339.652 248.032C339.652 247.024 339.856 246.142 340.264 245.386C340.672 244.618 341.23 244.024 341.938 243.604C342.658 243.184 343.456 242.974 344.332 242.974ZM348.004 248.05C348.004 247.306 347.854 246.658 347.554 246.106C347.254 245.554 346.846 245.134 346.33 244.846C345.826 244.546 345.268 244.396 344.656 244.396C344.044 244.396 343.486 244.54 342.982 244.828C342.478 245.116 342.076 245.536 341.776 246.088C341.476 246.64 341.326 247.288 341.326 248.032C341.326 248.788 341.476 249.448 341.776 250.012C342.076 250.564 342.478 250.99 342.982 251.29C343.486 251.578 344.044 251.722 344.656 251.722C345.268 251.722 345.826 251.578 346.33 251.29C346.846 250.99 347.254 250.564 347.554 250.012C347.854 249.448 348.004 248.794 348.004 248.05ZM361.241 244.486H359.171V253H357.533V244.486H356.255V243.136H357.533V242.434C357.533 241.33 357.815 240.526 358.379 240.022C358.955 239.506 359.873 239.248 361.133 239.248V240.616C360.413 240.616 359.903 240.76 359.603 241.048C359.315 241.324 359.171 241.786 359.171 242.434V243.136H361.241V244.486ZM367.453 253.162C366.529 253.162 365.689 252.952 364.933 252.532C364.189 252.112 363.601 251.518 363.169 250.75C362.749 249.97 362.539 249.07 362.539 248.05C362.539 247.042 362.755 246.154 363.187 245.386C363.631 244.606 364.231 244.012 364.987 243.604C365.743 243.184 366.589 242.974 367.525 242.974C368.461 242.974 369.307 243.184 370.063 243.604C370.819 244.012 371.413 244.6 371.845 245.368C372.289 246.136 372.511 247.03 372.511 248.05C372.511 249.07 372.283 249.97 371.827 250.75C371.383 251.518 370.777 252.112 370.009 252.532C369.241 252.952 368.389 253.162 367.453 253.162ZM367.453 251.722C368.041 251.722 368.593 251.584 369.109 251.308C369.625 251.032 370.039 250.618 370.351 250.066C370.675 249.514 370.837 248.842 370.837 248.05C370.837 247.258 370.681 246.586 370.369 246.034C370.057 245.482 369.649 245.074 369.145 244.81C368.641 244.534 368.095 244.396 367.507 244.396C366.907 244.396 366.355 244.534 365.851 244.81C365.359 245.074 364.963 245.482 364.663 246.034C364.363 246.586 364.213 247.258 364.213 248.05C364.213 248.854 364.357 249.532 364.645 250.084C364.945 250.636 365.341 251.05 365.833 251.326C366.325 251.59 366.865 251.722 367.453 251.722ZM376.302 244.738C376.59 244.174 376.998 243.736 377.526 243.424C378.066 243.112 378.72 242.956 379.488 242.956V244.648H379.056C377.22 244.648 376.302 245.644 376.302 247.636V253H374.664V243.136H376.302V244.738Z" fill="#A0A0A0"/>
<defs>
<clipPath id="clip0_144_1411">
<rect width="326.588" height="214" fill="white" transform="translate(27)"/>
</clipPath>
</defs>
</svg>
