<svg width="416" height="260" viewBox="0 0 416 260" fill="none" xmlns="http://www.w3.org/2000/svg">
<g clip-path="url(#clip0_150_93)">
<path d="M365.924 50.4553L360.816 75.1888L357.531 71.9834L351.936 75.9711L347.663 70.6657L338.075 77.6341L329.886 63.9342L320.748 69.2877L317.125 64.2908L305.522 70.8285L302.03 63.3568L310.163 23.9644L353.766 32.9673L365.924 50.4553Z" fill="#EBEBEB"/>
<path d="M353.768 32.9641L365.925 50.4515L350.803 47.3295L353.768 32.9641Z" fill="#DBDBDB"/>
<path d="M359.73 80.1323L352.24 116.421L293.51 104.298L300.944 68.2982L304.436 75.7699L316.039 69.2322L319.662 74.2291L328.801 68.8815L336.989 82.5814L346.577 75.6114L350.851 80.9168L356.445 76.9291L359.73 80.1323Z" fill="#EBEBEB"/>
<path d="M275.669 75.8799L215.815 79.5837L211.061 2.75012L255.502 0L271.82 13.6865L275.669 75.8799Z" fill="#EBEBEB"/>
<path d="M255.502 0L271.821 13.6865L256.408 14.6403L255.502 0Z" fill="#DBDBDB"/>
<path d="M238.909 51.6966L238.678 49.9637C238.074 46.3714 239.058 42.3543 242.179 38.151C244.993 34.4343 246.52 31.7296 246.352 28.718C246.161 25.3023 243.891 23.1478 239.67 23.317C237.257 23.4429 234.94 24.299 233.025 25.772L231.183 21.6444C233.302 19.9142 237.058 18.6296 240.605 18.431C248.303 17.9998 252.05 22.5575 252.335 27.6447C252.59 32.1971 250.23 35.6191 247.231 39.6149C244.481 43.2605 243.574 46.2658 243.966 49.6686L244.131 51.4052L238.909 51.6966ZM237.962 61.1504C237.823 58.6741 239.399 56.8398 241.742 56.7085C244.085 56.5772 245.789 58.228 245.927 60.7048C246.058 63.0472 244.62 64.9407 242.144 65.0811C239.801 65.2092 238.093 63.4912 237.962 61.1488V61.1504Z" fill="#DBDBDB"/>
<path d="M89.2223 38.6287L83.2017 35.8994L82.3665 37.7439C82.2449 38.0085 82.0522 38.2342 81.8098 38.3958C81.5674 38.5573 81.2849 38.6483 80.9938 38.6586C80.6641 38.673 80.3354 38.7052 80.0091 38.7552C79.7223 38.8011 79.4282 38.7666 79.1598 38.6554C78.8914 38.5442 78.659 38.3608 78.4887 38.1254L77.3092 36.4801L71.9312 40.3333L73.1101 41.9787C73.278 42.2159 73.3769 42.495 73.3957 42.785C73.4146 43.075 73.3526 43.3645 73.2168 43.6214C73.0647 43.9142 72.9284 44.2149 72.8086 44.5223C72.7053 44.7946 72.5284 45.0328 72.2976 45.2103C72.0668 45.3879 71.7912 45.4978 71.5016 45.5278L69.4863 45.7258L70.1358 52.3073L72.1575 52.1061C72.4476 52.0803 72.7392 52.1356 72.9998 52.2657C73.2605 52.3958 73.4799 52.5957 73.6337 52.8431C73.7206 52.9797 73.8119 53.1137 73.9069 53.2466C74.0019 53.3794 74.0996 53.5086 74.2004 53.6345C74.3845 53.8586 74.5029 54.1292 74.5425 54.4165C74.582 54.7037 74.5412 54.9963 74.4246 55.2618L73.5835 57.1196L79.6062 59.851L80.4452 58.0028C80.5671 57.7382 80.7602 57.5127 81.0028 57.3514C81.2455 57.1902 81.5282 57.0995 81.8194 57.0897C82.1477 57.0753 82.4749 57.0436 82.7998 56.9947C83.0866 56.9488 83.3804 56.9834 83.6486 57.0946C83.9169 57.2058 84.149 57.3892 84.3192 57.6244L85.4987 59.2703L90.8767 55.4176L89.6973 53.7712C89.5297 53.5341 89.4311 53.2554 89.4122 52.9657C89.3934 52.676 89.4551 52.3868 89.5905 52.1301C89.7418 51.8382 89.8772 51.5383 89.9961 51.2319C90.0993 50.9594 90.2761 50.7209 90.5069 50.5431C90.7377 50.3653 91.0134 50.2551 91.3031 50.2248L93.3226 50.0246L92.6731 43.4432L90.6526 43.6428C90.3633 43.6681 90.0727 43.6127 89.8131 43.4828C89.5534 43.3528 89.3349 43.1535 89.1817 42.9068C89.0935 42.7702 89.0015 42.6348 88.9058 42.5007C88.8101 42.3665 88.7122 42.237 88.6123 42.1121C88.4273 41.8871 88.3084 41.6151 88.2688 41.3265C88.2292 41.0379 88.2705 40.744 88.3881 40.4774L89.2223 38.6287ZM85.8066 44.7176C86.4303 45.5889 86.7815 46.6255 86.816 47.6965C86.8505 48.7674 86.5666 49.8245 86.0003 50.7341C85.434 51.6437 84.6107 52.3649 83.6345 52.8066C82.6583 53.2483 81.5731 53.3906 80.516 53.2155C79.4589 53.0404 78.4775 52.5557 77.6959 51.8229C76.9142 51.09 76.3674 50.1418 76.1247 49.0982C75.8819 48.0546 75.9541 46.9625 76.332 45.9599C76.7099 44.9573 77.3767 44.0892 78.248 43.4656C78.8263 43.0511 79.4806 42.7548 80.1735 42.5934C80.8664 42.432 81.5844 42.4088 82.2863 42.5251C82.9882 42.6414 83.6603 42.8949 84.2642 43.2711C84.868 43.6473 85.3918 44.1388 85.8056 44.7176H85.8066Z" fill="#EBEBEB"/>
<path d="M361.354 125.94L357.341 128.256L358.05 129.483C358.152 129.661 358.202 129.862 358.195 130.066C358.188 130.27 358.124 130.468 358.011 130.638C357.885 130.832 357.769 131.032 357.665 131.239C357.574 131.421 357.434 131.574 357.261 131.682C357.088 131.789 356.889 131.847 356.686 131.848H355.268V136.483H356.686C356.889 136.484 357.088 136.541 357.261 136.649C357.434 136.756 357.574 136.91 357.665 137.092C357.769 137.298 357.885 137.498 358.011 137.692C358.124 137.862 358.188 138.06 358.195 138.264C358.202 138.468 358.152 138.67 358.05 138.847L357.341 140.075L361.354 142.39L362.064 141.156C362.168 140.981 362.319 140.837 362.499 140.742C362.68 140.647 362.883 140.603 363.087 140.617C363.2 140.623 363.314 140.626 363.428 140.625C363.541 140.625 363.656 140.625 363.768 140.617C363.971 140.603 364.173 140.646 364.353 140.741C364.533 140.836 364.683 140.978 364.787 141.153L365.501 142.39L369.514 140.075L368.804 138.843C368.703 138.665 368.653 138.464 368.661 138.26C368.668 138.056 368.731 137.858 368.845 137.688C368.97 137.495 369.086 137.296 369.191 137.091C369.282 136.909 369.421 136.756 369.594 136.648C369.767 136.541 369.966 136.483 370.169 136.482H371.588V131.847H370.168C369.965 131.846 369.766 131.789 369.593 131.681C369.42 131.574 369.281 131.421 369.189 131.239C369.085 131.034 368.97 130.835 368.844 130.642C368.73 130.472 368.667 130.274 368.659 130.07C368.652 129.866 368.702 129.664 368.803 129.487L369.513 128.255L365.5 125.939L364.789 127.171C364.686 127.347 364.535 127.489 364.356 127.584C364.176 127.679 363.973 127.722 363.77 127.709C363.657 127.703 363.542 127.7 363.427 127.7C363.311 127.7 363.199 127.703 363.086 127.709C362.882 127.722 362.679 127.679 362.498 127.584C362.317 127.489 362.167 127.345 362.063 127.17L361.354 125.94ZM363.428 130.37C364.178 130.37 364.912 130.593 365.536 131.011C366.16 131.428 366.646 132.021 366.933 132.714C367.219 133.408 367.294 134.171 367.147 134.907C367.001 135.643 366.639 136.319 366.108 136.85C365.577 137.38 364.9 137.741 364.164 137.887C363.428 138.034 362.665 137.958 361.972 137.67C361.278 137.383 360.686 136.896 360.269 136.272C359.852 135.648 359.63 134.914 359.631 134.163C359.63 133.665 359.729 133.171 359.92 132.711C360.11 132.25 360.39 131.832 360.743 131.48C361.095 131.127 361.514 130.848 361.975 130.658C362.436 130.467 362.929 130.37 363.428 130.37V130.37Z" fill="#EBEBEB"/>
<path d="M101.401 18.9082L97.7181 21.7224L98.58 22.849C98.703 23.0117 98.7785 23.2054 98.798 23.4084C98.8175 23.6115 98.7803 23.816 98.6905 23.9991C98.59 24.2076 98.5009 24.4214 98.4236 24.6395C98.3571 24.8319 98.2385 25.002 98.0811 25.131C97.9236 25.26 97.7335 25.3428 97.5318 25.3702L96.125 25.5532L96.7233 30.1488L98.1301 29.9658C98.3323 29.9409 98.5374 29.9727 98.7227 30.0575C98.9079 30.1423 99.066 30.2768 99.1793 30.4461C99.3097 30.6372 99.4502 30.821 99.6004 30.9969C99.7344 31.1508 99.8229 31.3389 99.8561 31.5402C99.8892 31.7415 99.8658 31.9481 99.7883 32.1369L99.2434 33.4465L103.521 35.2248L104.067 33.9092C104.147 33.7217 104.278 33.5601 104.445 33.4424C104.611 33.3247 104.807 33.2556 105.011 33.2427C105.123 33.2338 105.237 33.2218 105.35 33.2069C105.464 33.192 105.577 33.1742 105.687 33.1535C105.886 33.1141 106.093 33.1306 106.283 33.2012C106.473 33.2719 106.641 33.3939 106.766 33.5538L107.634 34.6884L111.317 31.8743L110.453 30.7444C110.33 30.5814 110.256 30.3874 110.237 30.1842C110.218 29.9811 110.256 29.7767 110.346 29.5938C110.447 29.3864 110.536 29.1737 110.613 28.9566C110.68 28.7645 110.799 28.5947 110.956 28.466C111.114 28.3372 111.304 28.2545 111.505 28.227L112.912 28.044L112.314 23.4483L110.907 23.6314C110.705 23.6564 110.5 23.6251 110.315 23.5409C110.13 23.4566 109.972 23.3229 109.858 23.1543C109.728 22.9643 109.588 22.7815 109.438 22.6067C109.303 22.453 109.213 22.2647 109.18 22.063C109.146 21.8612 109.169 21.654 109.246 21.4646L109.791 20.1512L105.513 18.3729L104.967 19.6863C104.886 19.8733 104.756 20.0344 104.59 20.1518C104.424 20.2692 104.228 20.3382 104.025 20.3513C103.912 20.3599 103.798 20.3721 103.684 20.3871C103.569 20.402 103.458 20.4191 103.346 20.4404C103.146 20.4802 102.939 20.4635 102.747 20.3924C102.556 20.3213 102.388 20.1984 102.262 20.0375L101.401 18.9082ZM104.028 23.0337C104.773 22.9371 105.529 23.0634 106.202 23.3967C106.875 23.7301 107.433 24.2554 107.808 24.9062C108.182 25.5571 108.354 26.3043 108.304 27.0533C108.253 27.8023 107.982 28.5195 107.524 29.1142C107.065 29.7089 106.441 30.1544 105.73 30.3943C105.018 30.6342 104.252 30.6578 103.527 30.4621C102.802 30.2663 102.152 29.8601 101.658 29.2947C101.164 28.7292 100.849 28.0301 100.753 27.2856C100.688 26.7911 100.722 26.2888 100.852 25.8074C100.982 25.326 101.205 24.8749 101.51 24.4799C101.814 24.085 102.193 23.754 102.626 23.5058C103.058 23.2576 103.535 23.0972 104.03 23.0337H104.028Z" fill="#EBEBEB"/>
<path d="M73.9253 139.32C74.1285 134.155 74.0572 128.982 73.7118 123.824C72.9486 113.187 71.3244 102.629 68.8552 92.2546C67.5017 86.4123 65.835 80.6687 64.0978 74.9315C64.0445 74.7586 63.7691 74.8072 63.8171 74.9881C69.1882 95.2124 73.5949 116.082 73.2912 137.11C73.2064 142.994 72.5254 148.773 71.9666 154.619C71.9517 154.776 72.2089 154.838 72.2447 154.677C73.3569 149.672 73.7171 144.429 73.9253 139.32Z" fill="#EBEBEB"/>
<path d="M63.8202 74.9881C63.8202 74.9881 55.6836 95.642 57.5051 100.495C59.3266 105.348 63.0811 106.385 63.0811 106.385C63.0811 106.385 58.1028 113.493 61.5819 120.159C65.0611 126.826 72.7895 126.51 73.304 134.069C73.305 134.069 73.7357 102.464 63.8202 74.9881Z" fill="#EBEBEB"/>
<path d="M72.421 121.019C72.4306 120.984 72.4278 120.946 72.413 120.912C71.3441 106.811 68.6973 92.8748 64.5223 79.3638C64.5101 79.3238 64.4444 79.3371 64.4556 79.3782C66.0674 85.4196 67.4906 91.4938 68.7252 97.6006C67.6325 96.5647 66.2971 95.82 64.8415 95.4349C64.836 95.4329 64.8299 95.4332 64.8246 95.4357C64.8193 95.4382 64.8152 95.4427 64.8132 95.4482C64.8112 95.4538 64.8115 95.4598 64.814 95.4651C64.8165 95.4704 64.821 95.4745 64.8265 95.4765C66.3568 96.0392 67.7314 96.9576 68.8367 98.1562C69.0747 99.3527 69.306 100.551 69.5305 101.75C67.7122 99.7178 65.19 98.7075 62.6672 97.7506C62.6607 97.7499 62.6542 97.7514 62.6486 97.7548C62.6431 97.7583 62.6389 97.7635 62.6366 97.7696C62.6343 97.7757 62.6342 97.7824 62.6361 97.7886C62.6381 97.7949 62.6421 97.8003 62.6475 97.804C65.2754 98.874 67.8926 100.253 69.6735 102.517C70.2944 105.944 70.8391 109.383 71.3077 112.834C69.9933 111.457 68.3077 110.491 66.4554 110.053C66.3988 110.039 66.3673 110.123 66.425 110.14C68.3363 110.691 70.0461 111.786 71.3456 113.292C71.3546 113.301 71.3648 113.308 71.376 113.315C71.539 114.528 71.6923 115.743 71.8361 116.96C70.8187 116.1 69.6708 115.407 68.4354 114.909C68.4023 114.895 68.382 114.947 68.4172 114.962C69.676 115.508 70.8289 116.271 71.8233 117.216C71.8371 117.23 71.8521 117.228 71.8665 117.234C72.002 118.391 72.1371 119.547 72.2539 120.706C70.4211 118.492 68.0425 116.793 65.3528 115.779C65.2994 115.758 65.2722 115.84 65.3234 115.862C67.9797 117.032 70.3133 118.828 72.1248 121.095C72.1439 121.121 72.1708 121.141 72.2017 121.15C72.2325 121.16 72.2656 121.159 72.2961 121.149C72.4719 122.926 72.6265 124.706 72.7599 126.489C72.7599 126.513 72.802 126.516 72.8004 126.489C72.6962 124.667 72.5697 122.844 72.421 121.019Z" fill="white"/>
<path d="M65.8828 93.3823C64.4098 92.466 62.7269 91.9415 60.9941 91.8586C60.9536 91.8549 60.9504 91.912 60.9899 91.9205C62.6635 92.232 64.2887 92.7628 65.8235 93.4992C65.8934 93.5291 65.9436 93.4245 65.8828 93.3823Z" fill="white"/>
<path d="M66.8704 115.248C65.7377 114.601 64.4924 114.175 63.2007 113.994C63.1559 113.986 63.1522 114.055 63.1959 114.063C64.4593 114.315 65.6809 114.744 66.825 115.336C66.8768 115.36 66.9184 115.277 66.8704 115.248Z" fill="white"/>
<path d="M95.3163 100.832C91.8756 103.211 88.716 105.973 85.8983 109.065C82.9927 112.336 80.7496 116.14 79.2933 120.266C76.202 128.868 74.5399 137.918 74.3732 147.057C74.269 152.118 74.7558 157.174 75.8237 162.122C75.8308 162.16 75.8524 162.193 75.8838 162.214C75.9152 162.235 75.9538 162.244 75.991 162.236C76.0283 162.229 76.0613 162.208 76.0827 162.176C76.104 162.145 76.1121 162.106 76.105 162.069C74.7776 153.337 74.8275 144.451 76.2528 135.734C77.6516 127.19 79.8462 117.895 85.2776 110.952C88.2348 107.171 91.922 104.197 95.5666 101.123C95.7577 100.957 95.5127 100.693 95.3163 100.832Z" fill="#EBEBEB"/>
<path d="M75.5693 140.903C77.5278 137.734 79.8301 134.791 82.4342 132.128C86.5047 128.058 89.9331 125.166 90.462 122.474C90.9909 119.783 86.3846 117.801 86.3846 117.801C86.3846 117.801 92.0177 118.812 93.559 116.449C95.1003 114.085 95.8443 100.392 95.8443 100.392C95.8443 100.392 85.5974 107.709 80.8219 117.965C76.0465 128.221 75.5693 140.903 75.5693 140.903Z" fill="#EBEBEB"/>
<path d="M92.2995 103.903C87.9878 108.137 83.6483 112.65 81.109 118.214C80.2419 120.136 79.4862 122.106 78.8456 124.115C78.8456 124.118 78.8456 124.121 78.8424 124.124C78.7117 124.529 78.5793 124.933 78.4555 125.34C78.4436 125.361 78.4364 125.383 78.4347 125.407C77.2294 129.565 76.2577 133.788 75.5239 138.055C75.5186 138.082 75.5597 138.096 75.5655 138.068C76.0074 135.934 76.4942 133.775 77.0385 131.624C77.0594 131.624 77.0801 131.62 77.0994 131.612C77.9549 131.246 78.8622 131.016 79.7886 130.929C79.85 130.924 79.8452 130.817 79.7828 130.822C78.8784 130.864 77.9837 131.027 77.1229 131.308C77.6192 129.369 78.1593 127.435 78.7656 125.528C80.7571 125.046 82.7947 124.78 84.8433 124.734C84.8641 124.734 84.8678 124.702 84.8465 124.701C82.8404 124.608 80.8308 124.779 78.8691 125.208C78.9758 124.881 79.0826 124.556 79.1941 124.23C80.5255 123.912 81.8766 123.683 83.2384 123.545C83.263 123.542 83.2614 123.501 83.2384 123.501C81.9056 123.527 80.5787 123.688 79.2784 123.982C79.8361 122.333 80.4387 120.706 81.1069 119.121C81.661 117.825 82.3076 116.57 83.0415 115.366C84.1206 115.097 85.2166 114.901 86.3221 114.779C86.3536 114.776 86.3499 114.726 86.3194 114.726C85.2872 114.647 84.2491 114.749 83.2523 115.029C83.7913 114.158 84.3576 113.306 84.9639 112.479C87.2619 111.971 89.5915 111.499 91.9419 111.94C91.9825 111.947 91.9953 111.879 91.9574 111.868C89.7196 111.281 87.4984 111.62 85.2718 112.06C85.5146 111.737 85.7633 111.42 86.0142 111.099C87.4058 110.671 88.8517 110.443 90.3077 110.425C90.3136 110.425 90.3192 110.422 90.3235 110.418C90.3278 110.414 90.3304 110.409 90.3309 110.403C90.3315 110.397 90.3298 110.391 90.3263 110.386C90.3228 110.382 90.3177 110.378 90.312 110.377C88.9672 110.254 87.6112 110.374 86.3093 110.733C88.2098 108.372 90.3077 106.155 92.3827 103.963C92.4767 103.861 92.4019 103.802 92.2995 103.903Z" fill="white"/>
<path d="M92.1845 113.236C91.5099 113.138 90.8267 113.114 90.1469 113.165C90.1298 113.168 90.1146 113.178 90.104 113.192C90.0934 113.206 90.0881 113.223 90.089 113.24C90.0899 113.258 90.0969 113.274 90.1089 113.287C90.1209 113.3 90.137 113.308 90.1543 113.31C90.8289 113.33 91.503 113.279 92.1781 113.316C92.1883 113.316 92.1981 113.312 92.2055 113.305C92.213 113.299 92.2176 113.289 92.2184 113.279C92.2192 113.269 92.2162 113.259 92.2099 113.251C92.2036 113.243 92.1946 113.237 92.1845 113.236Z" fill="white"/>
<path d="M84.8091 126.52C83.7273 126.545 82.6583 126.76 81.6508 127.154C81.6257 127.163 81.6401 127.208 81.6657 127.199C82.7091 126.951 83.7636 126.85 84.8145 126.676C84.8329 126.673 84.8494 126.663 84.861 126.648C84.8727 126.633 84.8787 126.615 84.8781 126.596C84.8775 126.577 84.8702 126.559 84.8575 126.546C84.8449 126.532 84.8277 126.523 84.8091 126.52Z" fill="white"/>
<path d="M82.5985 121.931C82.1486 121.926 81.6995 121.966 81.2578 122.052C81.2483 122.054 81.2399 122.059 81.234 122.067C81.2281 122.074 81.2251 122.084 81.2256 122.094C81.2262 122.103 81.2301 122.112 81.2368 122.119C81.2435 122.126 81.2525 122.131 81.2621 122.132C81.7108 122.156 82.1608 122.135 82.6054 122.069C82.6219 122.066 82.6367 122.057 82.647 122.043C82.6574 122.03 82.6626 122.014 82.6618 121.997C82.661 121.98 82.6541 121.964 82.6424 121.952C82.6308 121.94 82.6152 121.932 82.5985 121.931Z" fill="white"/>
<path d="M45.5301 115.362C48.8641 116.492 52.0593 117.996 55.0544 119.845C58.162 121.821 60.8566 124.381 62.9888 127.384C67.4786 133.63 70.9153 140.569 73.1626 147.926C74.4167 151.998 75.1915 156.203 75.4713 160.454C75.4734 160.486 75.4631 160.517 75.4427 160.54C75.4222 160.564 75.3932 160.579 75.3619 160.582C75.3306 160.585 75.2993 160.576 75.2749 160.556C75.2505 160.536 75.2348 160.507 75.2311 160.476C74.2868 153.103 72.1926 145.923 69.0248 139.198C65.9177 132.607 61.9929 125.592 55.9931 121.228C52.7259 118.852 49.0551 117.297 45.394 115.651C45.2029 115.567 45.3385 115.296 45.5301 115.362Z" fill="#EBEBEB"/>
<path d="M70.7715 143.225C68.454 141.114 65.9109 139.266 63.1882 137.712C58.9534 135.36 55.5105 133.812 54.4602 131.756C53.4099 129.7 56.6799 127.031 56.6799 127.031C56.6799 127.031 52.3569 129.151 50.5611 127.595C48.7652 126.038 45 115.129 45 115.129C45 115.129 54.9843 118.681 61.2189 125.878C67.4535 133.074 70.7715 143.225 70.7715 143.225Z" fill="#EBEBEB"/>
<path d="M70.2515 140.977C65.2577 131.604 58.5945 123.125 49.4641 117.528C49.4634 117.528 49.4625 117.528 49.4617 117.528C49.4609 117.528 49.4602 117.529 49.4597 117.529C49.4592 117.53 49.459 117.531 49.459 117.532C49.459 117.533 49.4593 117.533 49.4599 117.534C51.8443 119.067 54.0815 120.818 56.1428 122.764C54.285 122.664 52.4335 123.054 50.7749 123.897C50.7712 123.899 50.7679 123.902 50.7652 123.905C50.7625 123.908 50.7604 123.911 50.7591 123.915C50.7577 123.919 50.7572 123.923 50.7574 123.927C50.7576 123.931 50.7587 123.935 50.7605 123.939C50.7623 123.943 50.7648 123.946 50.7678 123.949C50.7709 123.951 50.7744 123.953 50.7783 123.955C50.7822 123.956 50.7863 123.957 50.7903 123.956C50.7944 123.956 50.7984 123.955 50.8021 123.953C52.5664 123.291 54.4414 122.974 56.3253 123.02C56.348 123.019 56.3698 123.01 56.3877 122.996C56.7119 123.304 57.0321 123.615 57.3484 123.931C56.3831 123.976 55.4234 124.104 54.4798 124.312C54.475 124.313 54.471 124.317 54.4685 124.321C54.466 124.325 54.4652 124.33 54.4662 124.335C54.4672 124.34 54.4699 124.344 54.4739 124.347C54.4779 124.35 54.4828 124.352 54.4878 124.351C55.4863 124.163 56.5017 124.08 57.5176 124.102C59.1876 125.793 60.7601 127.578 62.2274 129.448C61.5561 129.354 60.8725 129.404 60.2218 129.594C60.2117 129.596 60.2028 129.602 60.1971 129.61C60.1913 129.619 60.1892 129.629 60.1911 129.639C60.193 129.649 60.1988 129.658 60.2073 129.664C60.2157 129.669 60.2261 129.672 60.2362 129.67C60.9471 129.588 61.6644 129.579 62.3774 129.64C62.6506 129.988 62.9271 130.334 63.195 130.686C61.1566 130.561 59.1113 130.759 57.1349 131.273C57.1319 131.274 57.1289 131.275 57.1264 131.277C57.1238 131.279 57.1215 131.281 57.1198 131.283C57.1181 131.286 57.1169 131.289 57.1163 131.292C57.1156 131.295 57.1156 131.298 57.1162 131.301C57.1168 131.304 57.118 131.307 57.1197 131.31C57.1214 131.312 57.1236 131.315 57.1262 131.316C57.1288 131.318 57.1317 131.319 57.1347 131.32C57.1378 131.32 57.1409 131.32 57.144 131.32C59.1928 130.919 61.2845 130.784 63.3679 130.916C63.6225 131.254 63.8637 131.601 64.1151 131.943C62.8993 131.913 61.6853 132.052 60.5078 132.356C60.4625 132.367 60.4753 132.438 60.5217 132.428C61.748 132.161 63.0048 132.064 64.2576 132.137C65.3319 133.617 66.3603 135.129 67.3492 136.661C66.8215 136.566 66.2789 136.599 65.7663 136.756C65.761 136.758 65.7565 136.761 65.7536 136.766C65.7508 136.771 65.7498 136.776 65.7509 136.782C65.7519 136.787 65.755 136.792 65.7594 136.795C65.7638 136.799 65.7693 136.8 65.7748 136.8C66.347 136.755 66.9225 136.782 67.488 136.88C68.3775 138.265 69.235 139.661 70.0604 141.069C70.126 141.19 70.3176 141.101 70.2515 140.977Z" fill="white"/>
<path d="M62.484 133.202C61.5034 133.135 60.519 133.256 59.5834 133.557C59.5567 133.566 59.5631 133.606 59.5914 133.6C60.5446 133.44 61.5073 133.341 62.4733 133.305C62.4849 133.303 62.4955 133.297 62.5036 133.289C62.5116 133.28 62.5166 133.269 62.5179 133.257C62.5191 133.246 62.5164 133.234 62.5103 133.224C62.5042 133.214 62.4949 133.206 62.484 133.202Z" fill="white"/>
<path d="M53.7742 121.78C53.3269 121.745 52.8771 121.771 52.4368 121.857C52.3834 121.865 52.401 121.942 52.4517 121.936C52.8915 121.89 53.3254 121.906 53.7657 121.893C53.7802 121.893 53.7943 121.888 53.805 121.878C53.8157 121.868 53.8223 121.855 53.8234 121.84C53.8245 121.826 53.82 121.812 53.8109 121.8C53.8017 121.789 53.7886 121.782 53.7742 121.78Z" fill="white"/>
<path d="M83.6496 174.222H61.1123L64.3257 150.682L65.147 144.646H79.6149L80.4362 150.682L83.6496 174.222Z" fill="#DBDBDB"/>
<path d="M80.4352 150.682H64.3252L65.1465 144.647H79.6144L80.4352 150.682Z" fill="#C7C7C7"/>
<path d="M81.6837 142.553H63.0781V147.665H81.6837V142.553Z" fill="#DBDBDB"/>
<path d="M46.7842 174.222H371.308" stroke="#263238" stroke-linecap="round" stroke-linejoin="round"/>
<path d="M210.114 214.001C294.631 214.001 363.146 206.493 363.146 197.232C363.146 187.971 294.631 180.463 210.114 180.463C125.597 180.463 57.082 187.971 57.082 197.232C57.082 206.493 125.597 214.001 210.114 214.001Z" fill="#EBEBEB"/>
<path d="M174.49 194.452C173.246 194.874 137.589 194.999 136.225 194.145C135.706 193.824 135.385 188.631 135.175 182.346C135.129 180.989 135.09 179.588 135.06 178.164L132.168 159.145L156.005 158.992L158.255 178.015L158.164 182.199C158.164 182.199 171.838 188.257 173.232 189.355C174.626 190.453 175.735 194.032 174.49 194.452Z" fill="#EB9481"/>
<path d="M174.49 194.452C173.246 194.874 137.589 194.999 136.225 194.145C135.595 193.75 135.251 186.168 135.06 178.164L158.255 178.015L158.164 182.199C158.164 182.199 171.838 188.257 173.232 189.355C174.626 190.453 175.735 194.032 174.49 194.452Z" fill="white"/>
<path d="M174.49 194.452C173.246 194.874 137.589 194.999 136.225 194.145C135.706 193.824 135.385 188.631 135.175 182.346L158.164 182.199C158.164 182.199 171.838 188.257 173.232 189.355C174.626 190.453 175.735 194.032 174.49 194.452Z" fill="#A6A6A6"/>
<path d="M173.974 193.028C167.997 192.903 143.874 192.959 137.955 193.289C137.907 193.289 137.907 193.325 137.955 193.327C143.879 193.581 167.999 193.327 173.974 193.126C174.101 193.122 174.1 193.031 173.974 193.028Z" fill="#263238"/>
<path d="M170.935 188.08C170.27 188.065 169.61 188.188 168.995 188.442C168.381 188.695 167.825 189.073 167.365 189.553C166.529 190.408 166.054 191.553 166.04 192.749C166.04 192.784 166.107 192.785 166.112 192.749C166.311 191.565 166.889 190.477 167.758 189.649C168.628 188.82 169.743 188.297 170.936 188.156C170.946 188.156 170.955 188.152 170.962 188.145C170.969 188.138 170.973 188.128 170.973 188.118C170.973 188.108 170.969 188.098 170.962 188.091C170.955 188.084 170.945 188.08 170.935 188.08Z" fill="#263238"/>
<path d="M160.486 182.785C158.094 182.76 155.323 183.615 153.843 185.577C153.786 185.652 153.897 185.733 153.965 185.696C156.054 184.593 158.255 183.716 160.53 183.081C160.565 183.071 160.596 183.049 160.616 183.018C160.636 182.987 160.645 182.95 160.639 182.914C160.634 182.877 160.615 182.844 160.587 182.821C160.559 182.797 160.523 182.784 160.486 182.785Z" fill="#263238"/>
<path d="M162.335 183.499C159.942 183.474 157.172 184.328 155.692 186.29C155.634 186.366 155.745 186.447 155.814 186.41C157.902 185.306 160.103 184.429 162.378 183.795C162.414 183.785 162.445 183.763 162.465 183.732C162.485 183.701 162.493 183.664 162.488 183.628C162.482 183.591 162.464 183.558 162.436 183.534C162.408 183.511 162.372 183.498 162.335 183.499Z" fill="#263238"/>
<path d="M164.185 184.213C161.792 184.187 159.021 185.042 157.541 187.004C157.484 187.08 157.595 187.16 157.664 187.123C159.752 186.02 161.953 185.143 164.228 184.508C164.264 184.499 164.295 184.476 164.315 184.445C164.335 184.414 164.343 184.377 164.338 184.341C164.332 184.304 164.314 184.271 164.286 184.248C164.257 184.224 164.221 184.211 164.185 184.213Z" fill="#263238"/>
<path d="M166.034 184.926C163.641 184.901 160.871 185.755 159.391 187.717C159.333 187.793 159.444 187.874 159.513 187.837C161.602 186.733 163.802 185.856 166.078 185.222C166.113 185.212 166.144 185.19 166.164 185.159C166.184 185.128 166.192 185.091 166.187 185.054C166.182 185.018 166.163 184.985 166.135 184.961C166.107 184.937 166.071 184.925 166.034 184.926Z" fill="#263238"/>
<path d="M139.458 187.606C136.773 187.624 136.796 191.795 139.484 191.778C142.173 191.761 142.146 187.589 139.458 187.606Z" fill="#263238"/>
<path d="M163.049 176.392C161.834 175.392 160.312 176.379 159.569 177.424C158.327 179.242 157.584 181.354 157.416 183.55C157.415 183.559 157.417 183.569 157.42 183.579C157.424 183.588 157.43 183.596 157.437 183.603C157.444 183.609 157.453 183.614 157.462 183.617C157.472 183.619 157.482 183.62 157.492 183.618C157.501 183.663 157.521 183.705 157.55 183.74C157.579 183.776 157.616 183.804 157.658 183.823C157.7 183.842 157.746 183.85 157.792 183.848C157.838 183.846 157.882 183.832 157.922 183.81C159.622 182.625 161.585 181.568 162.87 179.9C163.62 178.925 164.197 177.338 163.049 176.392ZM160.131 181.487C159.31 182.09 158.463 182.649 157.664 183.282C158.049 182.077 158.494 180.892 158.999 179.732C159.251 179.174 159.541 178.634 159.867 178.115C160.384 177.323 162.725 175.315 162.973 177.917C163.11 179.352 161.111 180.769 160.131 181.487Z" fill="#263238"/>
<path d="M151.476 184.457C153.558 184.77 155.707 184.169 157.753 183.845C157.797 183.834 157.839 183.812 157.873 183.782C157.908 183.752 157.935 183.714 157.953 183.672C157.97 183.629 157.977 183.583 157.973 183.537C157.969 183.492 157.955 183.447 157.93 183.408C157.939 183.403 157.946 183.396 157.951 183.387C157.956 183.379 157.959 183.369 157.96 183.36C157.96 183.35 157.959 183.34 157.955 183.331C157.951 183.322 157.945 183.314 157.937 183.307C156.294 181.842 154.295 180.834 152.139 180.385C150.879 180.147 149.097 180.492 148.916 182.054C148.744 183.532 150.26 184.275 151.476 184.457ZM150.027 183.101C148.401 181.054 151.48 180.878 152.402 181.09C152.997 181.238 153.58 181.427 154.149 181.654C155.317 182.14 156.46 182.685 157.573 183.286C156.559 183.384 155.561 183.568 154.55 183.703C153.347 183.864 150.923 184.23 150.027 183.101Z" fill="#263238"/>
<path d="M97.1406 71.2298C97.1406 71.2298 124.823 118.323 125.565 121.629C126.703 126.709 132.741 176.885 132.741 176.885L161.545 176.366C161.545 176.366 156.582 132.127 151.879 117.553C148.492 107.055 124.062 72.2379 124.062 72.2379L97.1406 71.2298Z" fill="#37474F"/>
<path d="M158.926 171.951C154.789 171.922 140.131 171.757 134.625 172.272C134.583 172.276 134.584 172.345 134.625 172.351C136.52 172.623 154.792 172.2 158.927 172.067C158.934 172.067 158.942 172.066 158.949 172.063C158.956 172.06 158.962 172.055 158.967 172.05C158.973 172.044 158.977 172.038 158.98 172.031C158.983 172.024 158.984 172.016 158.984 172.009C158.984 172.001 158.982 171.994 158.979 171.987C158.976 171.98 158.972 171.973 158.967 171.968C158.961 171.963 158.955 171.958 158.948 171.956C158.941 171.953 158.933 171.951 158.926 171.951Z" fill="#263238"/>
<path d="M101.866 75.5527C103.68 78.3978 105.593 81.1837 107.448 84.0043C109.303 86.8248 111.153 89.6518 112.977 92.4932C116.624 98.1717 120.185 103.902 123.662 109.684C125.35 112.347 126.794 115.157 127.977 118.079C129.061 121.012 129.874 124.037 130.407 127.118C130.971 130.209 131.343 133.33 131.695 136.45C132.068 139.773 132.439 143.095 132.807 146.418L135.084 166.814C135.178 167.648 135.267 168.482 135.351 169.317C135.363 169.439 135.144 169.463 135.129 169.341C134.281 162.585 133.578 155.809 132.807 149.045L131.66 138.942C131.304 135.811 130.967 132.676 130.479 129.561C130.031 126.492 129.353 123.46 128.451 120.492C127.454 117.416 126.119 114.46 124.47 111.679C121.131 105.922 117.599 100.264 114.065 94.6194C110.501 88.927 106.907 83.2518 103.178 77.6576C102.718 76.967 102.254 76.2807 101.776 75.6007C101.739 75.5484 101.83 75.4993 101.866 75.5527Z" fill="#263238"/>
<path d="M106.215 197.23C104.902 197.15 70.9915 183.411 70.0485 182.109C70.008 182.032 69.9895 181.945 69.9951 181.858C70.0015 180.692 72.3492 176.611 74.3121 171.256C74.4354 170.913 75.3102 169.325 76.5248 167.181C79.8642 161.296 85.7716 151.212 85.7716 151.212L107.935 160.018L97.3271 175.899L95.6759 179.741C95.6759 179.741 106.078 190.491 106.956 192.029C107.834 193.568 107.524 197.305 106.215 197.23Z" fill="#EB9481"/>
<path d="M106.215 197.23C104.902 197.15 70.9915 183.411 70.0485 182.109C70.008 182.032 69.9895 181.945 69.9951 181.858C70.0015 180.692 72.3492 176.611 74.3121 171.256C74.4354 170.913 75.3102 169.325 76.5248 167.181L97.3271 175.899L95.6759 179.742C95.6759 179.742 106.078 190.491 106.956 192.03C107.834 193.569 107.524 197.305 106.215 197.23Z" fill="white"/>
<path d="M106.213 197.228C104.901 197.151 70.9921 183.411 70.0491 182.108C69.6894 181.616 71.205 176.984 74.3111 171.257L95.677 179.743C95.677 179.743 106.079 190.489 106.96 192.029C107.84 193.569 107.524 197.304 106.213 197.228Z" fill="#A6A6A6"/>
<path d="M106.269 195.714C100.775 193.355 78.3925 184.358 72.7823 182.443C72.7369 182.428 72.7246 182.458 72.7684 182.478C78.163 184.936 100.618 193.751 106.231 195.805C106.351 195.847 106.385 195.763 106.269 195.714Z" fill="#263238"/>
<path d="M105.308 189.987C104.698 189.724 104.039 189.59 103.375 189.594C102.71 189.599 102.053 189.741 101.446 190.012C100.35 190.492 99.4813 191.375 99.0191 192.478C99.0073 192.511 99.0676 192.536 99.0863 192.504C99.7151 191.481 100.659 190.69 101.776 190.248C102.893 189.807 104.123 189.74 105.281 190.057C105.29 190.061 105.3 190.06 105.31 190.056C105.319 190.052 105.326 190.045 105.329 190.036C105.333 190.026 105.333 190.016 105.329 190.007C105.325 189.998 105.317 189.991 105.308 189.987Z" fill="#263238"/>
<path d="M97.6084 181.159C95.4 180.238 92.5111 179.99 90.4035 181.254C90.3219 181.303 90.3923 181.418 90.4719 181.411C92.8216 181.171 95.1903 181.183 97.5374 181.447C97.5731 181.45 97.6088 181.441 97.6379 181.42C97.667 181.399 97.6877 181.368 97.6963 181.333C97.7048 181.299 97.7007 181.262 97.6846 181.23C97.6685 181.198 97.6414 181.173 97.6084 181.159Z" fill="#263238"/>
<path d="M99.0526 182.514C96.8442 181.594 93.9553 181.346 91.8478 182.609C91.7661 182.658 91.8371 182.774 91.9166 182.766C94.2662 182.526 96.6347 182.538 98.9816 182.802C99.0175 182.806 99.0534 182.796 99.0828 182.776C99.1122 182.755 99.1331 182.724 99.1417 182.689C99.1504 182.654 99.1461 182.617 99.1297 182.585C99.1134 182.553 99.086 182.528 99.0526 182.514Z" fill="#263238"/>
<path d="M100.502 183.869C98.2929 182.949 95.404 182.701 93.297 183.964C93.2153 184.013 93.2863 184.129 93.3658 184.121C95.7154 183.881 98.0839 183.893 100.431 184.158C100.467 184.161 100.502 184.151 100.531 184.13C100.56 184.109 100.581 184.079 100.59 184.044C100.598 184.009 100.594 183.972 100.578 183.94C100.562 183.908 100.535 183.883 100.502 183.869Z" fill="#263238"/>
<path d="M101.948 185.227C99.7398 184.306 96.8509 184.058 94.7434 185.322C94.6617 185.371 94.7322 185.486 94.8122 185.478C97.1618 185.239 99.5303 185.251 101.877 185.515C101.913 185.518 101.949 185.508 101.978 185.488C102.007 185.467 102.028 185.436 102.036 185.401C102.045 185.366 102.041 185.33 102.024 185.298C102.008 185.266 101.981 185.24 101.948 185.227Z" fill="#263238"/>
<path d="M76.3071 177.739C73.8126 176.748 72.2686 180.621 74.7668 181.616C77.2651 182.611 78.8064 178.732 76.3071 177.739Z" fill="#263238"/>
<path d="M102.382 176.194C101.631 174.812 99.8503 175.155 98.7691 175.845C96.9357 177.064 95.4552 178.744 94.4761 180.716C94.4715 180.725 94.469 180.735 94.4688 180.744C94.4686 180.754 94.4707 180.764 94.4749 180.773C94.4792 180.782 94.4855 180.79 94.4933 180.796C94.5011 180.802 94.5102 180.806 94.5198 180.808C94.5038 180.985 94.6383 181.194 94.8475 181.146C96.867 180.686 99.0829 180.445 100.901 179.378C101.962 178.756 103.092 177.502 102.382 176.194ZM97.7663 179.823C96.7784 180.074 95.7847 180.274 94.8064 180.561C95.6155 179.589 96.4731 178.658 97.3761 177.772C97.8195 177.349 98.2912 176.957 98.7877 176.598C99.5643 176.057 102.488 175.075 101.741 177.579C101.329 178.96 98.9452 179.524 97.7663 179.823V179.823Z" fill="#263238"/>
<path d="M88.6284 179.329C90.443 180.4 92.6583 180.649 94.6762 181.115C94.8854 181.164 95.0205 180.955 95.005 180.777C95.0147 180.775 95.0238 180.771 95.0317 180.765C95.0395 180.759 95.0459 180.752 95.0502 180.743C95.0545 180.734 95.0567 180.724 95.0565 180.714C95.0563 180.704 95.0539 180.695 95.0493 180.686C94.0761 178.711 92.6005 177.027 90.7707 175.803C89.6921 175.109 87.9117 174.76 87.157 176.14C86.4429 177.446 87.569 178.703 88.6284 179.329ZM87.7943 177.527C87.0546 175.019 89.9749 176.012 90.7498 176.555C91.2452 176.915 91.7156 177.309 92.1577 177.732C93.0582 178.621 93.9132 179.555 94.7194 180.529C93.7423 180.24 92.7491 180.036 91.7623 179.782C90.5855 179.48 88.2015 178.91 87.7943 177.527Z" fill="#263238"/>
<path d="M99.0382 175.01L74.2295 164.993C74.2295 164.993 104.989 119.765 105.217 116.398C105.418 113.417 91.9081 87.4679 91.3754 79.9055C90.8006 71.7443 94.7308 65.4275 99.0489 61.5075L124.642 72.3863C124.642 72.3863 121.941 76.7092 117.686 79.1108C117.686 79.1108 130.811 109.104 130.068 118.327C129.318 127.602 99.0382 175.01 99.0382 175.01Z" fill="#37474F"/>
<path d="M100.14 170.292C96.5523 168.749 97.6037 169.142 93.9986 167.639C92.2374 166.904 80.6387 162.083 78.8732 161.686C78.8644 161.686 78.8555 161.688 78.848 161.692C78.8404 161.697 78.8345 161.704 78.8312 161.712C78.8278 161.72 78.8272 161.73 78.8294 161.738C78.8316 161.747 78.8365 161.754 78.8433 161.76C80.3868 162.705 92.065 167.323 93.8428 168.024C97.4756 169.456 96.4482 169.005 100.097 170.397C100.104 170.4 100.111 170.402 100.119 170.401C100.126 170.401 100.134 170.4 100.141 170.397C100.147 170.394 100.154 170.39 100.159 170.385C100.164 170.379 100.168 170.373 100.171 170.366C100.174 170.359 100.175 170.352 100.175 170.344C100.175 170.337 100.174 170.33 100.171 170.323C100.168 170.316 100.164 170.31 100.158 170.304C100.153 170.299 100.147 170.295 100.14 170.292Z" fill="#263238"/>
<path d="M121.899 78.5643C119.234 79.1842 116.628 80.0297 114.107 81.0919C114.087 81.0996 114.071 81.1147 114.062 81.1339C114.053 81.1531 114.052 81.175 114.059 81.1951C114.066 81.2151 114.08 81.2317 114.099 81.2414C114.118 81.2511 114.14 81.2532 114.16 81.2472C116.775 80.4835 119.437 79.7699 122.005 78.8674C122.046 78.8533 122.079 78.8237 122.097 78.7853C122.115 78.7469 122.118 78.7027 122.104 78.6625C122.089 78.6223 122.06 78.5894 122.021 78.571C121.983 78.5525 121.939 78.5501 121.899 78.5643Z" fill="#263238"/>
<path d="M118.862 77.5108C118.613 77.9527 118.394 78.4107 118.205 78.8818C118.021 79.24 117.907 79.6303 117.869 80.0314C117.869 80.1083 117.976 80.1269 118.021 80.08C118.289 79.7543 118.505 79.3888 118.661 78.9966C118.879 78.5739 119.106 78.1555 119.311 77.7275C119.45 77.443 119.018 77.2397 118.862 77.5108Z" fill="#263238"/>
<path d="M119.171 75.1049C119.328 74.711 119.486 74.3177 119.652 73.9276C119.823 73.5236 120.025 73.127 120.162 72.7097C120.184 72.6441 120.287 72.6878 120.261 72.754C120.105 73.1484 120.003 73.5689 119.877 73.9745C119.752 74.3802 119.618 74.7868 119.484 75.1914C119.233 75.9444 118.926 76.6921 118.603 77.4185C119.023 77.4405 119.442 77.3675 119.83 77.205C120.221 76.9568 120.524 76.5928 120.697 76.1638C120.922 75.7229 121.13 75.2725 121.363 74.8359C121.642 74.3625 121.88 73.8655 122.072 73.3507C122.094 73.2845 122.196 73.3288 122.172 73.395C121.824 74.4899 121.368 75.5471 120.809 76.5507C120.573 76.9419 120.382 77.3512 119.948 77.5023C119.473 77.6345 118.975 77.6677 118.487 77.5999C118.427 77.6165 118.35 77.578 118.371 77.5055C118.597 76.6923 118.864 75.8911 119.171 75.1049Z" fill="#263238"/>
<path d="M118.085 80.089C118.993 82.0173 119.793 83.9386 120.647 85.8599C121.478 87.7374 122.256 89.6363 123.011 91.5453C124.538 95.4023 125.905 99.3297 127.104 103.3C127.698 105.265 128.243 107.244 128.738 109.237C129.277 111.228 129.673 113.256 129.923 115.304C130.143 117.346 129.969 119.411 129.409 121.388C128.822 123.34 128.066 125.237 127.151 127.059C126.594 128.213 126.403 128.057 126.67 127.475C127.434 125.82 129.434 120.811 129.289 116.599C129.168 114.57 128.851 112.558 128.343 110.591C127.874 108.574 127.345 106.573 126.768 104.586C125.631 100.67 124.281 96.8315 122.892 92.9996C122.114 90.8525 121.278 88.7274 120.49 86.5851C119.694 84.4264 118.874 82.4843 117.991 80.1275C117.991 80.1162 117.993 80.105 117.999 80.0955C118.005 80.0859 118.014 80.0784 118.024 80.0742C118.035 80.0699 118.046 80.069 118.057 80.0717C118.068 80.0744 118.078 80.0805 118.085 80.089Z" fill="#263238"/>
<path d="M99.2489 73.7205C99.6935 73.5561 100.31 73.8273 100.763 73.9046C101.92 74.1006 103.098 74.1399 104.265 74.0215C104.849 74.0062 105.42 73.8551 105.935 73.5802C106.779 72.9657 107.501 72.199 108.063 71.3194C108.741 70.424 109.299 69.4443 109.724 68.4049C109.747 68.3425 109.836 68.3852 109.817 68.4471C109.63 69.0416 109.492 69.6415 109.254 70.2232C109.023 70.7686 108.749 71.2948 108.435 71.7971C107.92 72.8051 107.16 73.6676 106.225 74.3054C105.196 74.8925 103.87 74.8578 102.722 74.7916C102.058 74.7531 101.398 74.665 100.747 74.528C100.277 74.4293 99.4875 74.354 99.1876 73.9409C99.1745 73.9232 99.1656 73.9027 99.1616 73.881C99.1576 73.8593 99.1586 73.837 99.1645 73.8158C99.1704 73.7945 99.1811 73.7749 99.1957 73.7584C99.2104 73.7419 99.2286 73.7289 99.2489 73.7205Z" fill="#263238"/>
<path d="M81.3112 160.264C85.389 154.093 89.3917 147.873 93.3193 141.605C97.2594 135.321 101.133 128.997 104.94 122.632C105.853 121.111 106.907 119.59 107.494 117.905C108.135 116.073 107.77 114.299 107.192 112.507C106.106 109.228 104.835 106.013 103.385 102.878C101.954 99.7247 100.414 96.6234 98.8985 93.5104C97.3956 90.4235 95.7962 87.3259 94.6557 84.0811C93.5669 80.9819 93.1528 77.768 93.9885 74.5536C94.8174 71.3643 96.6111 68.5005 98.4844 65.8277C98.9786 65.1227 99.4818 64.4241 99.9787 63.7202C100.017 63.6668 100.098 63.7314 100.058 63.7848C97.9939 66.5712 95.9808 69.5198 94.7704 72.7919C94.1516 74.4053 93.8056 76.1104 93.7468 77.8374C93.7364 79.5893 94.0085 81.3314 94.5526 82.9966C95.5565 86.2409 97.1411 89.3134 98.6178 92.3619C100.127 95.4786 101.677 98.5756 103.132 101.718C104.62 104.87 105.942 108.098 107.092 111.389C107.593 112.857 108.152 114.394 108.119 115.968C108.082 117.692 107.259 119.244 106.408 120.697C102.697 127.024 98.8457 133.272 94.9465 139.483C91.0328 145.718 87.0464 151.908 82.9875 158.052C82.4766 158.827 81.9644 159.601 81.451 160.375C81.3859 160.473 81.2477 160.36 81.3112 160.264Z" fill="#263238"/>
<path d="M126.063 43.6208C128.373 48.6909 140.042 55.6785 145.508 56.4294C149.439 56.9695 161.379 57.1552 165.474 56.5303C170.269 55.7975 166.605 42.8512 163.77 43.1826C155.978 44.0936 149.363 45.1076 147.282 45.1076C144.743 45.1076 130.998 40.6961 129.342 40.0755C125.289 38.5571 124.753 40.7452 126.063 43.6208Z" fill="#AF9893"/>
<path d="M126.136 44.9636C129.06 49.2907 138.784 56.3659 138.784 56.3659L140.133 53.3772L144.598 43.4959C144.598 43.4959 135.67 40.6785 129.794 39.4238C129.103 39.2667 128.4 39.1665 127.692 39.1244C123.939 38.9211 123.614 41.2405 126.136 44.9636Z" fill="#BDBDBD"/>
<path d="M126.136 44.9636C129.06 49.2907 138.784 56.3659 138.784 56.3659L140.133 53.3772C136.507 49.169 130.911 42.7909 127.692 39.1244C123.939 38.9211 123.614 41.2405 126.136 44.9636Z" fill="#263238"/>
<path d="M137.029 54.3683C137.77 52.5537 141.071 45.224 141.89 43.6864C141.947 43.5797 142.028 43.5882 141.983 43.7067C140.551 47.3546 138.921 50.9219 137.102 54.3928C137.081 54.4366 137.011 54.4142 137.029 54.3683Z" fill="#263238"/>
<path d="M162.341 43.3252C167.083 42.7029 172.949 41.6398 177.916 43.7484C178.474 43.9685 178.942 44.3698 179.244 44.8878C181.485 45.7951 181.733 47.1245 181.733 47.1245C183.564 48.6082 183.628 50.0064 183.628 50.0064C183.628 50.0064 186.25 51.0984 185.853 52.7923C185.414 54.6939 181.817 52.7881 179.199 52.9498C173.2 53.3196 164.775 55.5238 163.055 55.8023L162.341 43.3252Z" fill="#AF9893"/>
<path d="M172.64 48.9167C174.394 48.7881 176.155 48.7794 177.91 48.8905C179.823 49.1317 181.715 49.5148 183.57 50.0369C183.582 50.0397 183.594 50.038 183.604 50.0322C183.615 50.0264 183.622 50.017 183.626 50.0057C183.63 49.9944 183.629 49.9822 183.624 49.9714C183.619 49.9607 183.61 49.9522 183.599 49.9477C180.115 48.5806 176.322 48.1962 172.635 48.8366C172.551 48.8515 172.551 48.9215 172.64 48.9167Z" fill="#263238"/>
<path d="M171.889 45.3281C173.614 45.3516 176.643 45.413 181.714 47.1795C181.731 47.1848 181.746 47.1587 181.728 47.1501C178.69 45.6146 175.283 44.9553 171.891 45.2459C171.783 45.2534 171.775 45.3265 171.889 45.3281Z" fill="#263238"/>
<path d="M171.523 43.3919C174.453 43.544 176.282 44.011 179.229 44.8964C179.246 44.9017 179.259 44.8739 179.241 44.8665C175.997 43.5082 174.666 43.3828 171.514 43.2905C171.407 43.2873 171.409 43.386 171.523 43.3919Z" fill="#263238"/>
<path d="M171.998 53.8506C171.236 54.2088 171.419 54.6112 172.877 54.9484C174.351 55.2937 180.393 55.3855 180.18 57.4958C179.966 59.606 171.422 59.3429 169.037 58.5946C166.652 57.8464 163.056 55.8002 163.056 55.8002C164.729 55.5179 168.723 54.4462 171.998 53.8506Z" fill="#AF9893"/>
<path d="M132.408 51.7041C132.371 52.6156 132.281 53.5443 132.153 54.4638C132.166 54.4307 132.18 54.3987 132.192 54.3656C132.37 53.8853 132.543 53.3922 132.758 52.9284C132.77 52.9038 132.812 52.9102 132.807 52.9401C132.702 53.4492 132.548 53.9466 132.345 54.4254C132.253 54.6522 132.16 54.879 132.061 55.1037C131.995 55.5136 131.922 55.9208 131.839 56.3216C131.681 57.0848 130.96 60.3312 130.797 60.8799C130.762 60.9957 130.625 60.969 130.633 60.8404C130.673 60.2426 131.277 56.8612 131.4 56.0959C131.637 54.6112 131.954 53.1405 132.351 51.6902C132.361 51.6566 132.408 51.6726 132.408 51.7041Z" fill="#263238"/>
<path d="M126.845 75.9663C125.422 76.7001 123.586 77.8374 115.314 76.2086C114.797 76.1019 114.277 75.9764 113.756 75.8217C105.999 73.4916 96.6955 64.3697 96.1709 63.7266C96.1709 63.7266 108.491 43.75 124.251 37.4689C126.199 36.6929 129.424 38.1894 131.209 40.0525C131.85 40.7181 133.231 45.619 132.699 49.5912C132.168 53.5635 128.279 75.2394 126.845 75.9663Z" fill="#21201E"/>
<path d="M125.744 49.4108L125.397 51.8989" stroke="white" stroke-width="0.5" stroke-miterlimit="10"/>
<path d="M120.372 63.0146L120.025 65.5027" stroke="white" stroke-width="0.5" stroke-miterlimit="10"/>
<path d="M111.239 52.7336L110.893 55.2217" stroke="white" stroke-width="0.5" stroke-miterlimit="10"/>
<path d="M129.264 62.3246L128.918 64.8127" stroke="white" stroke-width="0.5" stroke-miterlimit="10"/>
<path d="M117.536 50.9687L120.024 51.3151" stroke="white" stroke-width="0.5" stroke-miterlimit="10"/>
<path d="M107.172 60.7977L109.66 61.144" stroke="white" stroke-width="0.5" stroke-miterlimit="10"/>
<path d="M119.365 71.4347L121.853 71.7811" stroke="white" stroke-width="0.5" stroke-miterlimit="10"/>
<path d="M103.977 67.5708L106.465 67.9172" stroke="white" stroke-width="0.5" stroke-miterlimit="10"/>
<path d="M125.666 39.8497L128.154 40.1961" stroke="white" stroke-width="0.5" stroke-miterlimit="10"/>
<path d="M122.654 43.2542L120.649 44.7688" stroke="white" stroke-width="0.5" stroke-miterlimit="10"/>
<path d="M106.219 52.9279L104.215 54.4425" stroke="white" stroke-width="0.5" stroke-miterlimit="10"/>
<path d="M126.736 57.2972L124.732 58.8118" stroke="white" stroke-width="0.5" stroke-miterlimit="10"/>
<path d="M113.45 65.6644L111.445 67.179" stroke="white" stroke-width="0.5" stroke-miterlimit="10"/>
<path d="M131.83 45.8629L129.825 47.3775" stroke="white" stroke-width="0.5" stroke-miterlimit="10"/>
<path d="M131.551 55.5622L130.036 53.5576" stroke="white" stroke-width="0.5" stroke-miterlimit="10"/>
<path d="M101.935 62.2408L100.42 60.2363" stroke="white" stroke-width="0.5" stroke-miterlimit="10"/>
<path d="M127.951 70.1917L126.437 68.1872" stroke="white" stroke-width="0.5" stroke-miterlimit="10"/>
<path d="M114.913 47.5354L113.398 45.5309" stroke="white" stroke-width="0.5" stroke-miterlimit="10"/>
<path d="M115.143 74.7159L113.628 72.7113" stroke="white" stroke-width="0.5" stroke-miterlimit="10"/>
<path d="M117.36 58.6822L115.846 56.6776" stroke="white" stroke-width="0.5" stroke-miterlimit="10"/>
<path d="M128.312 45.3713C126.304 44.9978 124.411 40.8408 124.173 38.0443C124.158 37.8527 125.113 36.3301 126.187 34.4253C126.833 33.2661 127.527 31.9613 128.073 30.7242C128.184 30.4696 128.842 31.3182 128.842 31.3182L130.272 32.4117L134.998 36.036C133.872 37.387 132.916 38.8706 132.15 40.4539C132.077 40.6262 132.02 40.8049 131.979 40.9876C131.972 41.0121 131.966 41.041 131.954 41.0767C131.685 42.1073 130.253 45.7311 128.312 45.3713Z" fill="#AF9893"/>
<path d="M131.98 40.9849C131.973 41.0095 131.967 41.0383 131.955 41.074C131.675 40.9929 131.402 40.8892 131.139 40.764C125.967 38.3399 128.248 31.4105 128.248 31.4105L130.273 32.4117L134.999 36.036C133.873 37.3869 132.917 38.8706 132.151 40.4539C132.078 40.6253 132.021 40.8031 131.98 40.9849Z" fill="#263238"/>
<path d="M140.422 21.2666C140.422 21.2666 142.785 22.7668 142.8 25.4347C142.815 28.1027 141.753 30.7124 141.506 30.8058C141.26 30.8992 140.422 21.2666 140.422 21.2666Z" fill="#263238"/>
<path d="M128.695 22.651C127.274 25.4555 127.346 34.2854 129.122 36.5611C131.693 39.8599 136.647 40.9966 139.638 37.7352C142.538 34.5736 142.24 23.0672 140.189 20.9239C137.167 17.7645 130.794 18.5079 128.695 22.651Z" fill="#AF9893"/>
<path d="M136.229 29.7257C136.224 29.7027 136.183 29.755 136.184 29.779C136.217 30.3805 136.153 31.0748 135.614 31.2872C135.597 31.2937 135.599 31.3241 135.62 31.3209C136.281 31.2125 136.356 30.2898 136.229 29.7257Z" fill="#263238"/>
<path d="M135.677 29.1092C134.708 29.0559 134.677 31.0017 135.575 31.0487C136.459 31.0962 136.49 29.1525 135.677 29.1092Z" fill="#263238"/>
<path d="M139.522 29.7032C139.527 29.6803 139.568 29.7326 139.567 29.7566C139.539 30.358 139.607 31.0518 140.149 31.2605C140.166 31.2669 140.163 31.2968 140.143 31.2936C139.48 31.1901 139.398 30.2684 139.522 29.7032Z" fill="#263238"/>
<path d="M140.07 29.0831C141.039 29.0249 141.084 30.9675 140.186 31.0214C139.302 31.0748 139.257 29.1316 140.07 29.0831Z" fill="#263238"/>
<path d="M135.069 27.6303C135.325 27.5594 135.578 27.4749 135.825 27.3774C136.104 27.3254 136.358 27.183 136.548 26.9723C136.594 26.8945 136.614 26.8033 136.603 26.7132C136.593 26.623 136.553 26.5388 136.489 26.4738C136.345 26.3641 136.174 26.2949 135.993 26.2735C135.813 26.2521 135.63 26.2793 135.464 26.3522C135.104 26.4475 134.793 26.6736 134.592 26.9862C134.55 27.06 134.53 27.1444 134.535 27.2292C134.54 27.314 134.57 27.3954 134.62 27.4637C134.671 27.5319 134.74 27.584 134.82 27.6136C134.899 27.6432 134.986 27.649 135.069 27.6303Z" fill="#263238"/>
<path d="M140.743 28.4918C140.483 28.4341 140.227 28.3628 139.974 28.2783C139.693 28.2413 139.432 28.1126 139.231 27.9122C139.181 27.8368 139.156 27.7469 139.162 27.6562C139.168 27.5656 139.203 27.4794 139.263 27.411C139.401 27.294 139.569 27.216 139.748 27.1852C139.926 27.1545 140.11 27.172 140.28 27.236C140.645 27.3116 140.969 27.521 141.187 27.823C141.233 27.8946 141.258 27.9781 141.257 28.0633C141.256 28.1485 141.231 28.2316 141.184 28.3025C141.137 28.3735 141.07 28.4292 140.992 28.4628C140.914 28.4964 140.827 28.5064 140.743 28.4918Z" fill="#263238"/>
<path d="M134.859 35.4281C135.001 35.5717 135.142 35.7681 135.36 35.7894C135.584 35.789 135.805 35.741 136.009 35.6485C136.013 35.6469 136.018 35.6467 136.022 35.6478C136.027 35.649 136.031 35.6515 136.033 35.655C136.036 35.6585 136.038 35.6628 136.038 35.6673C136.038 35.6718 136.037 35.6762 136.035 35.68C135.947 35.7969 135.829 35.8879 135.694 35.9432C135.558 35.9985 135.41 36.0162 135.266 35.9944C135.144 35.9606 135.034 35.8912 134.951 35.7952C134.869 35.6991 134.816 35.5807 134.801 35.4548C134.792 35.4191 134.838 35.4073 134.859 35.4281Z" fill="#263238"/>
<path d="M138.354 32.8573C138.354 32.8573 138.379 33.7582 138.334 34.1766C137.515 34.0909 136.689 34.1206 135.879 34.2647C135.688 34.3063 135.707 34.1515 135.927 34.0512C136.58 33.752 137.308 33.6555 138.016 33.7742C138.058 33.6616 137.951 32.3866 138.016 32.3904C138.338 32.4551 138.65 32.5628 138.943 32.7106C138.943 30.8325 138.644 28.9699 138.673 27.0999C138.673 27.0861 138.679 27.0729 138.688 27.0626C138.697 27.0523 138.709 27.0456 138.723 27.0438C138.736 27.042 138.75 27.0451 138.762 27.0527C138.773 27.0602 138.782 27.0717 138.785 27.0849C139.169 29.0719 139.352 31.0922 139.333 33.1156C139.341 33.3531 138.514 32.9443 138.354 32.8573Z" fill="#263238"/>
<path d="M137.153 33.8543C136.938 34.4125 136.544 34.8835 136.032 35.1933C135.225 35.5199 134.948 34.7899 135.772 34.1441C136.197 33.9221 136.675 33.8219 137.153 33.8543Z" fill="#263238"/>
<path d="M136.313 35.0289C136.227 35.098 136.132 35.1538 136.03 35.1944C135.288 35.4932 134.995 34.9008 135.592 34.3031C135.998 34.3351 136.441 34.4846 136.313 35.0289Z" fill="#FF99BA"/>
<path d="M128.286 30.2054C129.262 30.5048 130.384 27.5705 130.702 26.4418C130.982 25.4475 131.305 22.2934 131.352 22.0783C131.4 21.8632 135.607 24.8695 138.066 24.1506C140.526 23.4318 142.17 21.2239 142.204 20.1939C142.237 19.1638 139.183 16.5482 136.541 16.4142C133.898 16.2803 130.321 19.6393 130.321 19.6393C130.754 19.1482 131.146 18.6231 131.495 18.0692C131.454 17.9502 129.747 18.6323 129.432 19.8486C129.432 19.8486 129.77 18.3222 129.641 18.2934C129.512 18.2646 128.185 19.5742 128.485 20.5637C128.485 20.5637 126.95 21.8931 126.808 23.3506C126.666 24.8082 127.14 29.8537 128.286 30.2054Z" fill="#263238"/>
<path d="M139.814 23.6367C139.086 24.0289 138.302 24.3092 137.49 24.4682C136.585 24.5457 135.674 24.3991 134.839 24.0412C133.994 23.7115 133.208 23.2466 132.513 22.6648C131.897 22.1584 131.352 21.5473 130.695 21.0963C130.531 20.9832 130.34 21.2201 130.441 21.3712C131.539 22.9164 133.103 24.0681 134.905 24.6566C135.741 24.9304 136.634 24.9819 137.497 24.8062C138.359 24.6305 139.161 24.2335 139.823 23.6543C139.832 23.649 139.825 23.6308 139.814 23.6367Z" fill="#263238"/>
<path d="M129.307 29.9439C129.307 29.9439 127.793 26.8688 126.425 27.3678C125.057 27.8668 125.899 32.1149 127.294 32.8931C127.466 33.0051 127.659 33.0813 127.861 33.1169C128.063 33.1525 128.27 33.1469 128.47 33.1003C128.67 33.0537 128.858 32.9672 129.024 32.8459C129.189 32.7246 129.329 32.5711 129.433 32.3946L129.307 29.9439Z" fill="#AF9893"/>
<path d="M126.697 28.5792C126.692 28.5785 126.687 28.5794 126.683 28.5819C126.679 28.5844 126.676 28.5882 126.674 28.5927C126.672 28.5973 126.672 28.6022 126.674 28.6068C126.676 28.6113 126.679 28.6152 126.683 28.6177C127.655 29.1972 128.053 30.2433 128.284 31.2989C128.24 31.1858 128.171 31.0836 128.084 30.9995C127.996 30.9153 127.891 30.8512 127.777 30.8114C127.662 30.7717 127.54 30.7574 127.419 30.7694C127.298 30.7814 127.181 30.8195 127.076 30.881C127.046 30.896 127.066 30.9424 127.096 30.9408C127.287 30.9108 127.483 30.9409 127.657 31.0269C127.83 31.1129 127.973 31.2507 128.065 31.4211C128.217 31.7069 128.338 32.0082 128.425 32.3199C128.46 32.4202 128.635 32.3962 128.616 32.2841L128.611 32.2585C128.84 30.9392 128.097 28.9309 126.697 28.5792Z" fill="#263238"/>
<path d="M119.299 43.6688C118.255 49.7145 124.783 70.0866 128.986 73.8918C135.236 79.549 146.792 83.2715 150.979 84.4819C152.804 85.0097 157.853 72.1675 156.007 71.3216C152.053 69.5102 139.767 65.6783 138.609 64.6942C137.451 63.71 130.39 53.5533 127.254 47.695C123.045 39.8353 119.827 40.6108 119.299 43.6688Z" fill="#AF9893"/>
<path d="M152.901 70.1917C152.901 70.1917 158.35 71.5793 161.871 72.6563C163.835 73.2562 167.111 74.5856 168.353 75.6866C170.209 77.3336 176.924 85.4067 175.001 87.0772C173.262 88.5886 168.373 80.92 168.373 80.92C168.373 80.92 173.99 88.222 171.56 89.6576C169.129 91.0932 164.759 81.6939 164.759 81.6939C164.759 81.6939 170.363 89.3256 167.621 90.409C165.551 91.2283 161.113 82.9373 161.113 82.9373C161.113 82.9373 165.883 89.5306 163.79 90.4624C161.477 91.494 156.9 84.0992 156.9 84.0992C151.18 85.5775 147.851 83.9391 145.623 82.4955C145.08 82.1486 152.901 70.1917 152.901 70.1917Z" fill="#AF9893"/>
<path d="M166.59 78.2702C167.281 79.1038 167.986 79.9433 168.6 80.8356C169.214 81.728 169.798 82.6427 170.326 83.5884C171.042 84.8105 171.615 86.1107 172.034 87.4636C171.115 85.1153 168.966 81.8886 168.351 80.9957C167.737 80.1029 167.17 79.1839 166.558 78.2921C166.54 78.2697 166.574 78.2504 166.59 78.2702Z" fill="#263238"/>
<path d="M163.328 80.4295C164.512 81.3683 166.996 84.8592 167.953 87.2026C167.994 87.3008 167.941 87.2928 167.883 87.2026C167.132 86.0461 164.102 81.5615 163.3 80.4471C163.288 80.4301 163.312 80.4167 163.328 80.4295Z" fill="#263238"/>
<path d="M160.194 81.7798C161.67 83.3258 162.833 85.1419 163.621 87.1284C163.661 87.2256 163.584 87.2106 163.528 87.1188C162.422 85.3192 161.568 83.8996 160.138 81.8267C160.115 81.7968 160.162 81.7483 160.194 81.7798Z" fill="#263238"/>
<path d="M125.239 44.1134C120.366 37.2213 117.454 39.7766 118.431 47.2574C119.345 54.2535 121.797 62.5882 121.797 62.5882L134.095 56.6322C134.095 56.6322 128.357 48.5244 125.239 44.1134Z" fill="#6B6B6B"/>
<path d="M128.217 46.8234L128.646 49.2987" stroke="white" stroke-width="0.5" stroke-miterlimit="10"/>
<path d="M120.941 51.0135L123.417 50.5839" stroke="white" stroke-width="0.5" stroke-miterlimit="10"/>
<path d="M121.258 40.2964L119.812 42.3506" stroke="white" stroke-width="0.5" stroke-miterlimit="10"/>
<path d="M131.634 54.2322L130.188 56.2858" stroke="white" stroke-width="0.5" stroke-miterlimit="10"/>
<path d="M123.126 58.4126L121.072 56.9658" stroke="white" stroke-width="0.5" stroke-miterlimit="10"/>
<path d="M126.873 46.1879C127.528 47.0882 128.208 47.9709 128.881 48.8563C128.71 48.4091 128.561 47.9576 128.429 47.4954C128.428 47.4912 128.429 47.4867 128.431 47.4829C128.433 47.4791 128.437 47.4763 128.441 47.475C128.445 47.4737 128.449 47.474 128.453 47.476C128.457 47.4779 128.46 47.4812 128.462 47.4853C128.598 47.8396 128.75 48.1881 128.881 48.5441C128.944 48.7153 129.008 48.886 129.073 49.0565L129.117 49.1659C129.642 49.8559 130.166 50.5476 130.672 51.2521C131.275 52.0926 131.858 52.9471 132.444 53.8005C133.049 54.6827 133.622 55.7164 134.258 56.5757C133.88 56.8125 133.48 57.0122 133.063 57.1718C132.954 57.2326 132.88 57.1264 132.996 57.0912C133.103 57.0586 134.01 56.5015 134.02 56.4908C133.433 55.6305 132.755 54.8364 132.143 53.9937C131.53 53.151 130.921 52.3211 130.328 51.4704C129.128 49.7433 128.025 47.948 126.833 46.2146C126.822 46.1884 126.856 46.166 126.873 46.1879Z" fill="#263238"/>
<path d="M118.734 52.2063C118.921 52.5702 119.122 52.9305 119.287 53.3046C119.356 53.4594 119.423 53.6147 119.492 53.7689C119.211 52.4368 118.935 51.1038 118.663 49.77C118.66 49.754 118.684 49.746 118.688 49.762C119.252 51.9218 119.82 54.0795 120.342 56.2495C120.911 58.316 121.374 60.4101 121.73 62.5236C122.104 62.3619 122.49 62.2314 122.885 62.1335C122.49 62.3917 122.064 62.598 121.617 62.7472C120.972 60.5999 120.437 58.4208 120.016 56.2186C119.882 55.6208 119.758 55.0215 119.63 54.4227C119.492 54.0619 119.324 53.714 119.16 53.3638C118.986 52.9929 118.846 52.6044 118.694 52.2244C118.687 52.202 118.723 52.1849 118.734 52.2063Z" fill="#263238"/>
<path d="M121.992 60.5314C123.7 59.5675 130.838 55.8733 132.435 55.1768C132.546 55.1283 132.603 55.1848 132.495 55.2499C129.108 57.2201 125.616 59.0045 122.035 60.5954C121.99 60.6173 121.947 60.5559 121.992 60.5314Z" fill="#263238"/>
<path d="M317.555 200.837H154.95L178.463 67.4939H341.067L317.555 200.837Z" fill="#9398B0"/>
<path d="M234.114 53.6846H180.898L178.463 67.4939H235.411L234.114 53.6846Z" fill="#9398B0"/>
<g opacity="0.1">
<path d="M317.555 200.837H154.95L178.463 67.4939H341.067L317.555 200.837Z" fill="black"/>
<path d="M234.114 53.6846H180.898L178.463 67.4939H235.411L234.114 53.6846Z" fill="black"/>
</g>
<path d="M175.155 59.3183V54.6736" stroke="#263238" stroke-miterlimit="10"/>
<path d="M170.427 60.6851L168.104 56.6632" stroke="#263238" stroke-miterlimit="10"/>
<path d="M167.015 64.2341L162.993 61.912" stroke="#263238" stroke-miterlimit="10"/>
<path d="M165.835 69.0134H161.19" stroke="#263238" stroke-miterlimit="10"/>
<path d="M167.203 73.7424L163.181 76.0645" stroke="#263238" stroke-miterlimit="10"/>
<path d="M170.751 77.1538L168.429 81.1757" stroke="#263238" stroke-miterlimit="10"/>
<path d="M175.53 78.3338V82.9785" stroke="#263238" stroke-miterlimit="10"/>
<path d="M180.259 76.9664L182.581 80.9889" stroke="#263238" stroke-miterlimit="10"/>
<path d="M183.671 73.4174L187.693 75.7395" stroke="#263238" stroke-miterlimit="10"/>
<path d="M184.852 68.6382H189.496" stroke="#263238" stroke-miterlimit="10"/>
<path d="M183.483 63.9097L187.506 61.5876" stroke="#263238" stroke-miterlimit="10"/>
<path d="M179.935 60.4983L182.257 56.4759" stroke="#263238" stroke-miterlimit="10"/>
<path d="M317.317 200.838H154.362L131.226 72.3345H294.181L317.317 200.838Z" fill="#9398B0"/>
<path d="M187.693 150.89C191.434 150.89 194.466 147.857 194.466 144.117C194.466 140.376 191.434 137.344 187.693 137.344C183.952 137.344 180.92 140.376 180.92 144.117C180.92 147.857 183.952 150.89 187.693 150.89Z" fill="white"/>
<path d="M241.236 150.89C244.977 150.89 248.009 147.857 248.009 144.117C248.009 140.376 244.977 137.344 241.236 137.344C237.495 137.344 234.463 140.376 234.463 144.117C234.463 147.857 237.495 150.89 241.236 150.89Z" fill="white"/>
<path d="M224.193 151.971L223.819 151.262C223.785 151.198 220.286 144.73 213.246 144.73C206.825 144.73 205.26 150.82 205.196 151.081L205.006 151.857L203.453 151.483L203.64 150.707C203.658 150.631 205.548 143.133 213.246 143.133C221.272 143.133 225.079 150.22 225.237 150.522L225.611 151.231L224.193 151.971Z" fill="#EEEEEE"/>
<path d="M306.502 143.339C315.963 141.307 324.51 134.24 325.235 125.807C326.653 109.262 306.502 100.123 308.583 81.0049C310.569 62.7686 329.697 61.4669 337.365 63.9881C345.835 66.7724 342.933 74.9128 335.264 73.8614C321.97 72.0404 313.614 57.5875 319.928 41.193C325.916 25.646 343.25 22.39 343.25 22.39" stroke="#263238" stroke-miterlimit="10" stroke-dasharray="4 4"/>
<path d="M351.711 19.4424C350.349 15.2262 341.234 16.7398 343.012 22.2507C344.791 27.7616 353.073 23.6607 351.711 19.4424Z" fill="#263238"/>
<path d="M338.056 17.7415C338.124 15.8917 340.697 14.4684 344.336 15.1264C347.974 15.7845 351.4 18.2341 351.4 18.2341C351.4 18.2341 347.802 20.435 344.126 20.823C340.45 21.211 337.986 19.6004 338.056 17.7415Z" fill="#EBEBEB"/>
<path d="M351.399 18.2341C349.511 18.2474 347.625 18.1839 345.738 18.1274C343.853 18.0462 341.967 17.9721 340.084 17.8194C341.973 17.8055 343.859 17.8696 345.745 17.9262C347.631 18.0051 349.516 18.0804 351.399 18.2341Z" fill="#263238"/>
<path d="M341.712 16.1036C342.249 16.3589 342.77 16.6458 343.272 16.9628C343.778 17.2761 344.263 17.6195 344.727 17.9912C344.19 17.7368 343.669 17.4498 343.166 17.132C342.661 16.8185 342.176 16.4751 341.712 16.1036Z" fill="#263238"/>
<path d="M346.657 18.058C346.173 18.4507 345.667 18.8158 345.142 19.1515C344.619 19.491 344.078 19.8002 343.52 20.0775C344.49 19.2939 345.542 18.6168 346.657 18.058Z" fill="#263238"/>
<path d="M347.206 17.0162C347.744 17.2785 348.216 17.6589 348.586 18.1289C348.317 17.9993 348.064 17.8381 347.833 17.6486C347.6 17.463 347.39 17.2508 347.206 17.0162Z" fill="#263238"/>
<path d="M341.522 28.7211C342.659 30.1819 345.578 29.8312 348.146 27.1708C350.713 24.5103 352.059 20.5193 352.059 20.5193C352.059 20.5193 347.854 20.8396 344.645 22.6733C341.436 24.5071 340.38 27.2535 341.522 28.7211Z" fill="#EBEBEB"/>
<path d="M352.059 20.5193C350.519 21.6134 349.027 22.7678 347.53 23.9179C346.048 25.0862 344.562 26.2496 343.124 27.4739C344.664 26.3804 346.157 25.226 347.653 24.0759C349.135 22.9071 350.621 21.7436 352.059 20.5193Z" fill="#263238"/>
<path d="M345.446 27.911C345.732 27.3902 345.987 26.8529 346.21 26.3019C346.436 25.7524 346.63 25.1898 346.789 24.6171C346.502 25.1376 346.247 25.6749 346.025 26.2261C345.799 26.7758 345.605 27.3384 345.446 27.911Z" fill="#263238"/>
<path d="M348.315 23.4344C347.07 23.3666 345.82 23.4324 344.589 23.6308C345.211 23.6665 345.835 23.6665 346.457 23.6308C347.079 23.6004 347.7 23.5348 348.315 23.4344Z" fill="#263238"/>
<path d="M349.369 23.958C349.512 23.6959 349.622 23.4178 349.7 23.1297C349.781 22.8426 349.827 22.5467 349.838 22.2485C349.695 22.5104 349.584 22.7885 349.507 23.0768C349.426 23.3641 349.38 23.6598 349.369 23.958Z" fill="#263238"/>
<path d="M351.711 19.4424C351.41 19.5402 351.086 19.5464 350.782 19.4602C350.477 19.3739 350.204 19.1992 349.999 18.958C349.793 18.7169 349.664 18.4202 349.627 18.1055C349.59 17.7908 349.648 17.4723 349.792 17.1902C349.936 16.9081 350.161 16.6752 350.438 16.521C350.715 16.3667 351.031 16.2981 351.347 16.3237C351.662 16.3493 351.964 16.468 352.212 16.6648C352.46 16.8616 352.644 17.1277 352.741 17.4293C352.871 17.8329 352.836 18.2714 352.643 18.6488C352.45 19.0262 352.115 19.3116 351.711 19.4424Z" fill="#455A64"/>
<path d="M352.694 22.486C352.393 22.5837 352.069 22.5898 351.765 22.5035C351.46 22.4172 351.187 22.2424 350.982 22.0012C350.776 21.76 350.647 21.4633 350.61 21.1486C350.574 20.8339 350.631 20.5154 350.776 20.2334C350.92 19.9513 351.145 19.7185 351.421 19.5643C351.698 19.4101 352.015 19.3415 352.33 19.3671C352.646 19.3928 352.947 19.5115 353.195 19.7084C353.444 19.9052 353.628 20.1713 353.725 20.4729C353.855 20.8766 353.819 21.3152 353.626 21.6925C353.433 22.0699 353.098 22.3553 352.694 22.486Z" fill="#455A64"/>
<path d="M177.725 21.1268C177.47 23.5784 176.538 25.9107 175.034 27.8635C173.53 29.8162 171.512 31.3125 169.207 32.1852C166.902 33.0579 164.4 33.2727 161.979 32.8057C159.559 32.3387 157.316 31.2082 155.501 29.5404L148.847 30.5171L152.176 24.7644C151.413 22.8917 151.086 20.8695 151.222 18.8516C151.357 16.8337 151.951 14.8733 152.958 13.1193C153.965 11.3654 155.358 9.86407 157.032 8.72957C158.707 7.59507 160.617 6.85723 162.62 6.57215C164.622 6.28708 166.663 6.46227 168.587 7.08442C170.511 7.70656 172.269 8.75927 173.725 10.1625C175.181 11.5658 176.299 13.2826 176.992 15.1825C177.685 17.0824 177.936 19.1153 177.725 21.1268Z" fill="white"/>
<path d="M177.725 21.1267C177.468 23.5787 176.539 25.9122 175.041 27.8699C174.308 28.8571 173.428 29.7261 172.432 30.4466C171.451 31.1896 170.371 31.7909 169.222 32.2329C168.074 32.6826 166.869 32.97 165.641 33.0868C165.027 33.142 164.409 33.1538 163.793 33.122C163.175 33.107 162.56 33.0429 161.952 32.9304C159.5 32.4798 157.221 31.3547 155.371 29.6813L155.529 29.7299L148.881 30.7503L148.4 30.8245L148.645 30.3975L151.954 24.6336L151.938 24.8615C151.158 22.9546 150.826 20.8938 150.968 18.8382C151.11 16.7825 151.722 14.787 152.757 13.0055C153.793 11.2313 155.218 9.71475 156.923 8.56948C158.627 7.44139 160.564 6.71372 162.589 6.44105C164.614 6.16838 166.674 6.3578 168.616 6.99509C170.539 7.64708 172.292 8.72196 173.745 10.1407C175.197 11.5516 176.309 13.2733 176.998 15.1763C177.687 17.0792 177.936 19.1138 177.725 21.1267ZM177.725 21.1267C177.938 19.1235 177.688 17.0981 176.994 15.2067C176.301 13.3154 175.182 11.6085 173.725 10.2177C172.268 8.82688 170.51 7.78927 168.589 7.18484C166.667 6.5804 164.632 6.42529 162.641 6.73144C160.668 7.02628 158.789 7.76875 157.147 8.90197C155.521 10.0433 154.163 11.5246 153.167 13.243C152.187 14.9675 151.609 16.8918 151.479 18.8713C151.355 20.8486 151.675 22.8285 152.415 24.6662L152.463 24.7852L152.4 24.8919L149.05 30.6334L148.812 30.2828L155.473 29.3499L155.565 29.3371L155.631 29.3984C157.408 31.0626 159.614 32.1986 162 32.679C162.595 32.8001 163.199 32.8735 163.805 32.8984C164.411 32.9413 165.019 32.9413 165.625 32.8984C166.84 32.804 168.036 32.5407 169.178 32.116C170.327 31.7012 171.408 31.1185 172.386 30.3868C173.383 29.677 174.265 28.8183 175.001 27.8406C176.51 25.8961 177.453 23.5728 177.725 21.1267Z" fill="#263238"/>
<path d="M157.992 25.9454C157.982 25.7687 158.008 25.5919 158.069 25.4257C158.13 25.2595 158.224 25.1076 158.346 24.9794C158.468 24.8512 158.615 24.7494 158.778 24.6802C158.941 24.6111 159.117 24.5762 159.294 24.5776C159.644 24.5959 159.974 24.748 160.215 25.0024C160.457 25.2569 160.591 25.5943 160.591 25.9452C160.591 26.296 160.457 26.6334 160.215 26.8879C159.974 27.1423 159.644 27.2944 159.294 27.3127C159.117 27.3141 158.941 27.2792 158.778 27.2101C158.616 27.141 158.469 27.0392 158.347 26.9111C158.225 26.7829 158.13 26.6311 158.069 26.465C158.008 26.2989 157.982 26.122 157.992 25.9454ZM158.544 22.7908L158.235 12.2034H160.352L160.044 22.7913L158.544 22.7908Z" fill="#606060"/>
<path d="M163.067 25.9454C163.056 25.7687 163.083 25.5918 163.144 25.4256C163.205 25.2595 163.299 25.1076 163.421 24.9794C163.543 24.8512 163.69 24.7494 163.853 24.6802C164.016 24.6111 164.191 24.5762 164.368 24.5776C164.719 24.5959 165.049 24.748 165.29 25.0024C165.532 25.2569 165.666 25.5943 165.666 25.9452C165.666 26.296 165.532 26.6334 165.29 26.8879C165.049 27.1423 164.719 27.2944 164.368 27.3127C164.191 27.3142 164.016 27.2793 163.853 27.2103C163.69 27.1412 163.543 27.0394 163.421 26.9113C163.299 26.7831 163.205 26.6312 163.144 26.4651C163.083 26.299 163.056 26.1221 163.067 25.9454ZM163.618 22.7908L163.309 12.2034H165.427L165.118 22.7913L163.618 22.7908Z" fill="#606060"/>
<path d="M168.14 25.9454C168.13 25.7687 168.156 25.5918 168.217 25.4256C168.278 25.2595 168.372 25.1076 168.494 24.9794C168.616 24.8512 168.763 24.7494 168.926 24.6802C169.089 24.6111 169.265 24.5762 169.442 24.5776C169.792 24.5959 170.122 24.748 170.363 25.0024C170.605 25.2569 170.739 25.5943 170.739 25.9452C170.739 26.296 170.605 26.6334 170.363 26.8879C170.122 27.1423 169.792 27.2944 169.442 27.3127C169.265 27.3142 169.089 27.2793 168.926 27.2103C168.763 27.1412 168.616 27.0394 168.494 26.9113C168.372 26.7831 168.278 26.6312 168.217 26.4651C168.156 26.299 168.13 26.1221 168.14 25.9454ZM168.692 22.7908L168.383 12.2034H170.5L170.193 22.7908H168.692Z" fill="#606060"/>
</g>
<path d="M7.20388 253.126C6.03988 253.126 4.97788 252.856 4.01788 252.316C3.05788 251.764 2.29588 251.002 1.73188 250.03C1.17988 249.046 0.903883 247.942 0.903883 246.718C0.903883 245.494 1.17988 244.396 1.73188 243.424C2.29588 242.44 3.05788 241.678 4.01788 241.138C4.97788 240.586 6.03988 240.31 7.20388 240.31C8.37988 240.31 9.44788 240.586 10.4079 241.138C11.3679 241.678 12.1239 242.434 12.6759 243.406C13.2279 244.378 13.5039 245.482 13.5039 246.718C13.5039 247.954 13.2279 249.058 12.6759 250.03C12.1239 251.002 11.3679 251.764 10.4079 252.316C9.44788 252.856 8.37988 253.126 7.20388 253.126ZM7.20388 251.704C8.07988 251.704 8.86588 251.5 9.56188 251.092C10.2699 250.684 10.8219 250.102 11.2179 249.346C11.6259 248.59 11.8299 247.714 11.8299 246.718C11.8299 245.71 11.6259 244.834 11.2179 244.09C10.8219 243.334 10.2759 242.752 9.57988 242.344C8.88388 241.936 8.09188 241.732 7.20388 241.732C6.31588 241.732 5.52388 241.936 4.82788 242.344C4.13188 242.752 3.57988 243.334 3.17188 244.09C2.77588 244.834 2.57788 245.71 2.57788 246.718C2.57788 247.714 2.77588 248.59 3.17188 249.346C3.57988 250.102 4.13188 250.684 4.82788 251.092C5.53588 251.5 6.32788 251.704 7.20388 251.704ZM19.9683 253.162C19.0443 253.162 18.2043 252.952 17.4483 252.532C16.7043 252.112 16.1163 251.518 15.6843 250.75C15.2643 249.97 15.0543 249.07 15.0543 248.05C15.0543 247.042 15.2703 246.154 15.7023 245.386C16.1463 244.606 16.7463 244.012 17.5023 243.604C18.2583 243.184 19.1043 242.974 20.0403 242.974C20.9763 242.974 21.8223 243.184 22.5783 243.604C23.3343 244.012 23.9283 244.6 24.3603 245.368C24.8043 246.136 25.0263 247.03 25.0263 248.05C25.0263 249.07 24.7983 249.97 24.3423 250.75C23.8983 251.518 23.2923 252.112 22.5243 252.532C21.7563 252.952 20.9043 253.162 19.9683 253.162ZM19.9683 251.722C20.5563 251.722 21.1083 251.584 21.6243 251.308C22.1403 251.032 22.5543 250.618 22.8663 250.066C23.1903 249.514 23.3523 248.842 23.3523 248.05C23.3523 247.258 23.1963 246.586 22.8843 246.034C22.5723 245.482 22.1643 245.074 21.6603 244.81C21.1563 244.534 20.6103 244.396 20.0223 244.396C19.4223 244.396 18.8703 244.534 18.3663 244.81C17.8743 245.074 17.4783 245.482 17.1783 246.034C16.8783 246.586 16.7283 247.258 16.7283 248.05C16.7283 248.854 16.8723 249.532 17.1603 250.084C17.4603 250.636 17.8563 251.05 18.3483 251.326C18.8403 251.59 19.3803 251.722 19.9683 251.722ZM31.4819 253.162C30.5579 253.162 29.7179 252.952 28.9619 252.532C28.2179 252.112 27.6299 251.518 27.1979 250.75C26.7779 249.97 26.5679 249.07 26.5679 248.05C26.5679 247.042 26.7839 246.154 27.2159 245.386C27.6599 244.606 28.2599 244.012 29.0159 243.604C29.7719 243.184 30.6179 242.974 31.5539 242.974C32.4899 242.974 33.3359 243.184 34.0919 243.604C34.8479 244.012 35.4419 244.6 35.8739 245.368C36.3179 246.136 36.5399 247.03 36.5399 248.05C36.5399 249.07 36.3119 249.97 35.8559 250.75C35.4119 251.518 34.8059 252.112 34.0379 252.532C33.2699 252.952 32.4179 253.162 31.4819 253.162ZM31.4819 251.722C32.0699 251.722 32.6219 251.584 33.1379 251.308C33.6539 251.032 34.0679 250.618 34.3799 250.066C34.7039 249.514 34.8659 248.842 34.8659 248.05C34.8659 247.258 34.7099 246.586 34.3979 246.034C34.0859 245.482 33.6779 245.074 33.1739 244.81C32.6699 244.534 32.1239 244.396 31.5359 244.396C30.9359 244.396 30.3839 244.534 29.8799 244.81C29.3879 245.074 28.9919 245.482 28.6919 246.034C28.3919 246.586 28.2419 247.258 28.2419 248.05C28.2419 248.854 28.3859 249.532 28.6739 250.084C28.9739 250.636 29.3699 251.05 29.8619 251.326C30.3539 251.59 30.8939 251.722 31.4819 251.722ZM40.3316 244.954C40.6556 244.39 41.1356 243.922 41.7716 243.55C42.4196 243.166 43.1696 242.974 44.0216 242.974C44.8976 242.974 45.6896 243.184 46.3976 243.604C47.1176 244.024 47.6816 244.618 48.0896 245.386C48.4976 246.142 48.7016 247.024 48.7016 248.032C48.7016 249.028 48.4976 249.916 48.0896 250.696C47.6816 251.476 47.1176 252.082 46.3976 252.514C45.6896 252.946 44.8976 253.162 44.0216 253.162C43.1816 253.162 42.4376 252.976 41.7896 252.604C41.1536 252.22 40.6676 251.746 40.3316 251.182V257.68H38.6936V243.136H40.3316V244.954ZM47.0276 248.032C47.0276 247.288 46.8776 246.64 46.5776 246.088C46.2776 245.536 45.8696 245.116 45.3536 244.828C44.8496 244.54 44.2916 244.396 43.6796 244.396C43.0796 244.396 42.5216 244.546 42.0056 244.846C41.5016 245.134 41.0936 245.56 40.7816 246.124C40.4816 246.676 40.3316 247.318 40.3316 248.05C40.3316 248.794 40.4816 249.448 40.7816 250.012C41.0936 250.564 41.5016 250.99 42.0056 251.29C42.5216 251.578 43.0796 251.722 43.6796 251.722C44.2916 251.722 44.8496 251.578 45.3536 251.29C45.8696 250.99 46.2776 250.564 46.5776 250.012C46.8776 249.448 47.0276 248.788 47.0276 248.032ZM54.3497 253.162C53.5937 253.162 52.9157 253.036 52.3157 252.784C51.7157 252.52 51.2417 252.16 50.8937 251.704C50.5457 251.236 50.3537 250.702 50.3177 250.102H52.0097C52.0577 250.594 52.2857 250.996 52.6937 251.308C53.1137 251.62 53.6597 251.776 54.3317 251.776C54.9557 251.776 55.4477 251.638 55.8077 251.362C56.1677 251.086 56.3477 250.738 56.3477 250.318C56.3477 249.886 56.1557 249.568 55.7717 249.364C55.3877 249.148 54.7937 248.938 53.9897 248.734C53.2577 248.542 52.6577 248.35 52.1897 248.158C51.7337 247.954 51.3377 247.66 51.0017 247.276C50.6777 246.88 50.5157 246.364 50.5157 245.728C50.5157 245.224 50.6657 244.762 50.9657 244.342C51.2657 243.922 51.6917 243.592 52.2437 243.352C52.7957 243.1 53.4257 242.974 54.1337 242.974C55.2257 242.974 56.1077 243.25 56.7797 243.802C57.4517 244.354 57.8117 245.11 57.8597 246.07H56.2217C56.1857 245.554 55.9757 245.14 55.5917 244.828C55.2197 244.516 54.7157 244.36 54.0797 244.36C53.4917 244.36 53.0237 244.486 52.6757 244.738C52.3277 244.99 52.1537 245.32 52.1537 245.728C52.1537 246.052 52.2557 246.322 52.4597 246.538C52.6757 246.742 52.9397 246.91 53.2517 247.042C53.5757 247.162 54.0197 247.3 54.5837 247.456C55.2917 247.648 55.8677 247.84 56.3117 248.032C56.7557 248.212 57.1337 248.488 57.4457 248.86C57.7697 249.232 57.9377 249.718 57.9497 250.318C57.9497 250.858 57.7997 251.344 57.4997 251.776C57.1997 252.208 56.7737 252.55 56.2217 252.802C55.6817 253.042 55.0577 253.162 54.3497 253.162ZM61.954 250.732L59.938 255.574H58.84L60.154 250.732H61.954ZM68.0172 248.032C68.0172 247.024 68.2212 246.142 68.6292 245.386C69.0372 244.618 69.5952 244.024 70.3032 243.604C71.0232 243.184 71.8272 242.974 72.7152 242.974C73.4832 242.974 74.1972 243.154 74.8572 243.514C75.5172 243.862 76.0212 244.324 76.3692 244.9V239.68H78.0252V253H76.3692V251.146C76.0452 251.734 75.5652 252.22 74.9292 252.604C74.2932 252.976 73.5492 253.162 72.6972 253.162C71.8212 253.162 71.0232 252.946 70.3032 252.514C69.5952 252.082 69.0372 251.476 68.6292 250.696C68.2212 249.916 68.0172 249.028 68.0172 248.032ZM76.3692 248.05C76.3692 247.306 76.2192 246.658 75.9192 246.106C75.6192 245.554 75.2112 245.134 74.6952 244.846C74.1912 244.546 73.6332 244.396 73.0212 244.396C72.4092 244.396 71.8512 244.54 71.3472 244.828C70.8432 245.116 70.4412 245.536 70.1412 246.088C69.8412 246.64 69.6912 247.288 69.6912 248.032C69.6912 248.788 69.8412 249.448 70.1412 250.012C70.4412 250.564 70.8432 250.99 71.3472 251.29C71.8512 251.578 72.4092 251.722 73.0212 251.722C73.6332 251.722 74.1912 251.578 74.6952 251.29C75.2112 250.99 75.6192 250.564 75.9192 250.012C76.2192 249.448 76.3692 248.794 76.3692 248.05ZM85.0952 253.162C84.1712 253.162 83.3312 252.952 82.5752 252.532C81.8312 252.112 81.2432 251.518 80.8112 250.75C80.3912 249.97 80.1812 249.07 80.1812 248.05C80.1812 247.042 80.3972 246.154 80.8292 245.386C81.2732 244.606 81.8732 244.012 82.6292 243.604C83.3852 243.184 84.2312 242.974 85.1672 242.974C86.1032 242.974 86.9492 243.184 87.7052 243.604C88.4612 244.012 89.0552 244.6 89.4872 245.368C89.9312 246.136 90.1532 247.03 90.1532 248.05C90.1532 249.07 89.9252 249.97 89.4692 250.75C89.0252 251.518 88.4192 252.112 87.6512 252.532C86.8832 252.952 86.0312 253.162 85.0952 253.162ZM85.0952 251.722C85.6832 251.722 86.2352 251.584 86.7512 251.308C87.2672 251.032 87.6812 250.618 87.9932 250.066C88.3172 249.514 88.4792 248.842 88.4792 248.05C88.4792 247.258 88.3232 246.586 88.0112 246.034C87.6992 245.482 87.2912 245.074 86.7872 244.81C86.2832 244.534 85.7372 244.396 85.1492 244.396C84.5492 244.396 83.9972 244.534 83.4932 244.81C83.0012 245.074 82.6052 245.482 82.3052 246.034C82.0052 246.586 81.8552 247.258 81.8552 248.05C81.8552 248.854 81.9992 249.532 82.2872 250.084C82.5872 250.636 82.9832 251.05 83.4752 251.326C83.9672 251.59 84.5072 251.722 85.0952 251.722ZM97.1129 242.956C98.3129 242.956 99.2849 243.322 100.029 244.054C100.773 244.774 101.145 245.818 101.145 247.186V253H99.5249V247.42C99.5249 246.436 99.2789 245.686 98.7869 245.17C98.2949 244.642 97.6229 244.378 96.7709 244.378C95.9069 244.378 95.2169 244.648 94.7009 245.188C94.1969 245.728 93.9449 246.514 93.9449 247.546V253H92.3069V243.136H93.9449V244.54C94.2689 244.036 94.7069 243.646 95.2589 243.37C95.8229 243.094 96.4409 242.956 97.1129 242.956ZM105.819 244.486V250.3C105.819 250.78 105.921 251.122 106.125 251.326C106.329 251.518 106.683 251.614 107.187 251.614H108.393V253H106.917C106.005 253 105.321 252.79 104.865 252.37C104.409 251.95 104.181 251.26 104.181 250.3V244.486H102.903V243.136H104.181V240.652H105.819V243.136H108.393V244.486H105.819ZM120.072 242.956C120.816 242.956 121.488 243.118 122.088 243.442C122.688 243.754 123.156 244.228 123.492 244.864C123.84 245.5 124.014 246.274 124.014 247.186V253H122.394V247.42C122.394 246.436 122.148 245.686 121.656 245.17C121.164 244.642 120.492 244.378 119.64 244.378C118.776 244.378 118.086 244.648 117.57 245.188C117.066 245.728 116.814 246.514 116.814 247.546V253H115.176V239.68H116.814V244.54C117.138 244.036 117.582 243.646 118.146 243.37C118.722 243.094 119.364 242.956 120.072 242.956ZM126.078 248.032C126.078 247.024 126.282 246.142 126.69 245.386C127.098 244.618 127.656 244.024 128.364 243.604C129.084 243.184 129.882 242.974 130.758 242.974C131.622 242.974 132.372 243.16 133.008 243.532C133.644 243.904 134.118 244.372 134.43 244.936V243.136H136.086V253H134.43V251.164C134.106 251.74 133.62 252.22 132.972 252.604C132.336 252.976 131.592 253.162 130.74 253.162C129.864 253.162 129.072 252.946 128.364 252.514C127.656 252.082 127.098 251.476 126.69 250.696C126.282 249.916 126.078 249.028 126.078 248.032ZM134.43 248.05C134.43 247.306 134.28 246.658 133.98 246.106C133.68 245.554 133.272 245.134 132.756 244.846C132.252 244.546 131.694 244.396 131.082 244.396C130.47 244.396 129.912 244.54 129.408 244.828C128.904 245.116 128.502 245.536 128.202 246.088C127.902 246.64 127.752 247.288 127.752 248.032C127.752 248.788 127.902 249.448 128.202 250.012C128.502 250.564 128.904 250.99 129.408 251.29C129.912 251.578 130.47 251.722 131.082 251.722C131.694 251.722 132.252 251.578 132.756 251.29C133.272 250.99 133.68 250.564 133.98 250.012C134.28 249.448 134.43 248.794 134.43 248.05ZM142.526 251.488L145.586 243.136H147.332L143.462 253H141.554L137.684 243.136H139.448L142.526 251.488ZM157.944 247.69C157.944 248.002 157.926 248.332 157.89 248.68H150.006C150.066 249.652 150.396 250.414 150.996 250.966C151.608 251.506 152.346 251.776 153.21 251.776C153.918 251.776 154.506 251.614 154.974 251.29C155.454 250.954 155.79 250.51 155.982 249.958H157.746C157.482 250.906 156.954 251.68 156.162 252.28C155.37 252.868 154.386 253.162 153.21 253.162C152.274 253.162 151.434 252.952 150.69 252.532C149.958 252.112 149.382 251.518 148.962 250.75C148.542 249.97 148.332 249.07 148.332 248.05C148.332 247.03 148.536 246.136 148.944 245.368C149.352 244.6 149.922 244.012 150.654 243.604C151.398 243.184 152.25 242.974 153.21 242.974C154.146 242.974 154.974 243.178 155.694 243.586C156.414 243.994 156.966 244.558 157.35 245.278C157.746 245.986 157.944 246.79 157.944 247.69ZM156.252 247.348C156.252 246.724 156.114 246.19 155.838 245.746C155.562 245.29 155.184 244.948 154.704 244.72C154.236 244.48 153.714 244.36 153.138 244.36C152.31 244.36 151.602 244.624 151.014 245.152C150.438 245.68 150.108 246.412 150.024 247.348H156.252ZM166.903 244.486V250.3C166.903 250.78 167.005 251.122 167.209 251.326C167.413 251.518 167.767 251.614 168.271 251.614H169.477V253H168.001C167.089 253 166.405 252.79 165.949 252.37C165.493 251.95 165.265 251.26 165.265 250.3V244.486H163.987V243.136H165.265V240.652H166.903V243.136H169.477V244.486H166.903ZM176.357 242.956C177.101 242.956 177.773 243.118 178.373 243.442C178.973 243.754 179.441 244.228 179.777 244.864C180.125 245.5 180.299 246.274 180.299 247.186V253H178.679V247.42C178.679 246.436 178.433 245.686 177.941 245.17C177.449 244.642 176.777 244.378 175.925 244.378C175.061 244.378 174.371 244.648 173.855 245.188C173.351 245.728 173.099 246.514 173.099 247.546V253H171.461V239.68H173.099V244.54C173.423 244.036 173.867 243.646 174.431 243.37C175.007 243.094 175.649 242.956 176.357 242.956ZM191.975 247.69C191.975 248.002 191.957 248.332 191.921 248.68H184.037C184.097 249.652 184.427 250.414 185.027 250.966C185.639 251.506 186.377 251.776 187.241 251.776C187.949 251.776 188.537 251.614 189.005 251.29C189.485 250.954 189.821 250.51 190.013 249.958H191.777C191.513 250.906 190.985 251.68 190.193 252.28C189.401 252.868 188.417 253.162 187.241 253.162C186.305 253.162 185.465 252.952 184.721 252.532C183.989 252.112 183.413 251.518 182.993 250.75C182.573 249.97 182.363 249.07 182.363 248.05C182.363 247.03 182.567 246.136 182.975 245.368C183.383 244.6 183.953 244.012 184.685 243.604C185.429 243.184 186.281 242.974 187.241 242.974C188.177 242.974 189.005 243.178 189.725 243.586C190.445 243.994 190.997 244.558 191.381 245.278C191.777 245.986 191.975 246.79 191.975 247.69ZM190.283 247.348C190.283 246.724 190.145 246.19 189.869 245.746C189.593 245.29 189.215 244.948 188.735 244.72C188.267 244.48 187.745 244.36 187.169 244.36C186.341 244.36 185.633 244.624 185.045 245.152C184.469 245.68 184.139 246.412 184.055 247.348H190.283ZM202.428 253.162C201.672 253.162 200.994 253.036 200.394 252.784C199.794 252.52 199.32 252.16 198.972 251.704C198.624 251.236 198.432 250.702 198.396 250.102H200.088C200.136 250.594 200.364 250.996 200.772 251.308C201.192 251.62 201.738 251.776 202.41 251.776C203.034 251.776 203.526 251.638 203.886 251.362C204.246 251.086 204.426 250.738 204.426 250.318C204.426 249.886 204.234 249.568 203.85 249.364C203.466 249.148 202.872 248.938 202.068 248.734C201.336 248.542 200.736 248.35 200.268 248.158C199.812 247.954 199.416 247.66 199.08 247.276C198.756 246.88 198.594 246.364 198.594 245.728C198.594 245.224 198.744 244.762 199.044 244.342C199.344 243.922 199.77 243.592 200.322 243.352C200.874 243.1 201.504 242.974 202.212 242.974C203.304 242.974 204.186 243.25 204.858 243.802C205.53 244.354 205.89 245.11 205.938 246.07H204.3C204.264 245.554 204.054 245.14 203.67 244.828C203.298 244.516 202.794 244.36 202.158 244.36C201.57 244.36 201.102 244.486 200.754 244.738C200.406 244.99 200.232 245.32 200.232 245.728C200.232 246.052 200.334 246.322 200.538 246.538C200.754 246.742 201.018 246.91 201.33 247.042C201.654 247.162 202.098 247.3 202.662 247.456C203.37 247.648 203.946 247.84 204.39 248.032C204.834 248.212 205.212 248.488 205.524 248.86C205.848 249.232 206.016 249.718 206.028 250.318C206.028 250.858 205.878 251.344 205.578 251.776C205.278 252.208 204.852 252.55 204.3 252.802C203.76 253.042 203.136 253.162 202.428 253.162ZM217.34 247.69C217.34 248.002 217.322 248.332 217.286 248.68H209.402C209.462 249.652 209.792 250.414 210.392 250.966C211.004 251.506 211.742 251.776 212.606 251.776C213.314 251.776 213.902 251.614 214.37 251.29C214.85 250.954 215.186 250.51 215.378 249.958H217.142C216.878 250.906 216.35 251.68 215.558 252.28C214.766 252.868 213.782 253.162 212.606 253.162C211.67 253.162 210.83 252.952 210.086 252.532C209.354 252.112 208.778 251.518 208.358 250.75C207.938 249.97 207.728 249.07 207.728 248.05C207.728 247.03 207.932 246.136 208.34 245.368C208.748 244.6 209.318 244.012 210.05 243.604C210.794 243.184 211.646 242.974 212.606 242.974C213.542 242.974 214.37 243.178 215.09 243.586C215.81 243.994 216.362 244.558 216.746 245.278C217.142 245.986 217.34 246.79 217.34 247.69ZM215.648 247.348C215.648 246.724 215.51 246.19 215.234 245.746C214.958 245.29 214.58 244.948 214.1 244.72C213.632 244.48 213.11 244.36 212.534 244.36C211.706 244.36 210.998 244.624 210.41 245.152C209.834 245.68 209.504 246.412 209.42 247.348H215.648ZM221.14 244.738C221.428 244.174 221.836 243.736 222.364 243.424C222.904 243.112 223.558 242.956 224.326 242.956V244.648H223.894C222.058 244.648 221.14 245.644 221.14 247.636V253H219.502V243.136H221.14V244.738ZM229.889 251.488L232.949 243.136H234.695L230.825 253H228.917L225.047 243.136H226.811L229.889 251.488ZM237.153 241.534C236.841 241.534 236.577 241.426 236.361 241.21C236.145 240.994 236.037 240.73 236.037 240.418C236.037 240.106 236.145 239.842 236.361 239.626C236.577 239.41 236.841 239.302 237.153 239.302C237.453 239.302 237.705 239.41 237.909 239.626C238.125 239.842 238.233 240.106 238.233 240.418C238.233 240.73 238.125 240.994 237.909 241.21C237.705 241.426 237.453 241.534 237.153 241.534ZM237.945 243.136V253H236.307V243.136H237.945ZM240.125 248.05C240.125 247.03 240.329 246.142 240.737 245.386C241.145 244.618 241.709 244.024 242.429 243.604C243.161 243.184 243.995 242.974 244.931 242.974C246.143 242.974 247.139 243.268 247.919 243.856C248.711 244.444 249.233 245.26 249.485 246.304H247.721C247.553 245.704 247.223 245.23 246.731 244.882C246.251 244.534 245.651 244.36 244.931 244.36C243.995 244.36 243.239 244.684 242.663 245.332C242.087 245.968 241.799 246.874 241.799 248.05C241.799 249.238 242.087 250.156 242.663 250.804C243.239 251.452 243.995 251.776 244.931 251.776C245.651 251.776 246.251 251.608 246.731 251.272C247.211 250.936 247.541 250.456 247.721 249.832H249.485C249.221 250.84 248.693 251.65 247.901 252.262C247.109 252.862 246.119 253.162 244.931 253.162C243.995 253.162 243.161 252.952 242.429 252.532C241.709 252.112 241.145 251.518 240.737 250.75C240.329 249.982 240.125 249.082 240.125 248.05ZM260.67 247.69C260.67 248.002 260.652 248.332 260.616 248.68H252.732C252.792 249.652 253.122 250.414 253.722 250.966C254.334 251.506 255.072 251.776 255.936 251.776C256.644 251.776 257.232 251.614 257.7 251.29C258.18 250.954 258.516 250.51 258.708 249.958H260.472C260.208 250.906 259.68 251.68 258.888 252.28C258.096 252.868 257.112 253.162 255.936 253.162C255 253.162 254.16 252.952 253.416 252.532C252.684 252.112 252.108 251.518 251.688 250.75C251.268 249.97 251.058 249.07 251.058 248.05C251.058 247.03 251.262 246.136 251.67 245.368C252.078 244.6 252.648 244.012 253.38 243.604C254.124 243.184 254.976 242.974 255.936 242.974C256.872 242.974 257.7 243.178 258.42 243.586C259.14 243.994 259.692 244.558 260.076 245.278C260.472 245.986 260.67 246.79 260.67 247.69ZM258.978 247.348C258.978 246.724 258.84 246.19 258.564 245.746C258.288 245.29 257.91 244.948 257.43 244.72C256.962 244.48 256.44 244.36 255.864 244.36C255.036 244.36 254.328 244.624 253.74 245.152C253.164 245.68 252.834 246.412 252.75 247.348H258.978ZM276.127 243.136L270.187 257.644H268.495L270.439 252.892L266.461 243.136H268.279L271.375 251.128L274.435 243.136H276.127ZM282.076 253.162C281.152 253.162 280.312 252.952 279.556 252.532C278.812 252.112 278.224 251.518 277.792 250.75C277.372 249.97 277.162 249.07 277.162 248.05C277.162 247.042 277.378 246.154 277.81 245.386C278.254 244.606 278.854 244.012 279.61 243.604C280.366 243.184 281.212 242.974 282.148 242.974C283.084 242.974 283.93 243.184 284.686 243.604C285.442 244.012 286.036 244.6 286.468 245.368C286.912 246.136 287.134 247.03 287.134 248.05C287.134 249.07 286.906 249.97 286.45 250.75C286.006 251.518 285.4 252.112 284.632 252.532C283.864 252.952 283.012 253.162 282.076 253.162ZM282.076 251.722C282.664 251.722 283.216 251.584 283.732 251.308C284.248 251.032 284.662 250.618 284.974 250.066C285.298 249.514 285.46 248.842 285.46 248.05C285.46 247.258 285.304 246.586 284.992 246.034C284.68 245.482 284.272 245.074 283.768 244.81C283.264 244.534 282.718 244.396 282.13 244.396C281.53 244.396 280.978 244.534 280.474 244.81C279.982 245.074 279.586 245.482 279.286 246.034C278.986 246.586 278.836 247.258 278.836 248.05C278.836 248.854 278.98 249.532 279.268 250.084C279.568 250.636 279.964 251.05 280.456 251.326C280.948 251.59 281.488 251.722 282.076 251.722ZM298.035 243.136V253H296.397V251.542C296.085 252.046 295.647 252.442 295.083 252.73C294.531 253.006 293.919 253.144 293.247 253.144C292.479 253.144 291.789 252.988 291.177 252.676C290.565 252.352 290.079 251.872 289.719 251.236C289.371 250.6 289.197 249.826 289.197 248.914V243.136H290.817V248.698C290.817 249.67 291.063 250.42 291.555 250.948C292.047 251.464 292.719 251.722 293.571 251.722C294.447 251.722 295.137 251.452 295.641 250.912C296.145 250.372 296.397 249.586 296.397 248.554V243.136H298.035ZM302.439 244.738C302.727 244.174 303.135 243.736 303.663 243.424C304.203 243.112 304.857 242.956 305.625 242.956V244.648H305.193C303.357 244.648 302.439 245.644 302.439 247.636V253H300.801V243.136H302.439V244.738ZM316.516 247.69C316.516 248.002 316.498 248.332 316.462 248.68H308.578C308.638 249.652 308.968 250.414 309.568 250.966C310.18 251.506 310.918 251.776 311.782 251.776C312.49 251.776 313.078 251.614 313.546 251.29C314.026 250.954 314.362 250.51 314.554 249.958H316.318C316.054 250.906 315.526 251.68 314.734 252.28C313.942 252.868 312.958 253.162 311.782 253.162C310.846 253.162 310.006 252.952 309.262 252.532C308.53 252.112 307.954 251.518 307.534 250.75C307.114 249.97 306.904 249.07 306.904 248.05C306.904 247.03 307.108 246.136 307.516 245.368C307.924 244.6 308.494 244.012 309.226 243.604C309.97 243.184 310.822 242.974 311.782 242.974C312.718 242.974 313.546 243.178 314.266 243.586C314.986 243.994 315.538 244.558 315.922 245.278C316.318 245.986 316.516 246.79 316.516 247.69ZM314.824 247.348C314.824 246.724 314.686 246.19 314.41 245.746C314.134 245.29 313.756 244.948 313.276 244.72C312.808 244.48 312.286 244.36 311.71 244.36C310.882 244.36 310.174 244.624 309.586 245.152C309.01 245.68 308.68 246.412 308.596 247.348H314.824ZM325.115 239.68V253H323.477V239.68H325.115ZM332.209 253.162C331.285 253.162 330.445 252.952 329.689 252.532C328.945 252.112 328.357 251.518 327.925 250.75C327.505 249.97 327.295 249.07 327.295 248.05C327.295 247.042 327.511 246.154 327.943 245.386C328.387 244.606 328.987 244.012 329.743 243.604C330.499 243.184 331.345 242.974 332.281 242.974C333.217 242.974 334.063 243.184 334.819 243.604C335.575 244.012 336.169 244.6 336.601 245.368C337.045 246.136 337.267 247.03 337.267 248.05C337.267 249.07 337.039 249.97 336.583 250.75C336.139 251.518 335.533 252.112 334.765 252.532C333.997 252.952 333.145 253.162 332.209 253.162ZM332.209 251.722C332.797 251.722 333.349 251.584 333.865 251.308C334.381 251.032 334.795 250.618 335.107 250.066C335.431 249.514 335.593 248.842 335.593 248.05C335.593 247.258 335.437 246.586 335.125 246.034C334.813 245.482 334.405 245.074 333.901 244.81C333.397 244.534 332.851 244.396 332.263 244.396C331.663 244.396 331.111 244.534 330.607 244.81C330.115 245.074 329.719 245.482 329.419 246.034C329.119 246.586 328.969 247.258 328.969 248.05C328.969 248.854 329.113 249.532 329.401 250.084C329.701 250.636 330.097 251.05 330.589 251.326C331.081 251.59 331.621 251.722 332.209 251.722ZM343.722 253.162C342.798 253.162 341.958 252.952 341.202 252.532C340.458 252.112 339.87 251.518 339.438 250.75C339.018 249.97 338.808 249.07 338.808 248.05C338.808 247.042 339.024 246.154 339.456 245.386C339.9 244.606 340.5 244.012 341.256 243.604C342.012 243.184 342.858 242.974 343.794 242.974C344.73 242.974 345.576 243.184 346.332 243.604C347.088 244.012 347.682 244.6 348.114 245.368C348.558 246.136 348.78 247.03 348.78 248.05C348.78 249.07 348.552 249.97 348.096 250.75C347.652 251.518 347.046 252.112 346.278 252.532C345.51 252.952 344.658 253.162 343.722 253.162ZM343.722 251.722C344.31 251.722 344.862 251.584 345.378 251.308C345.894 251.032 346.308 250.618 346.62 250.066C346.944 249.514 347.106 248.842 347.106 248.05C347.106 247.258 346.95 246.586 346.638 246.034C346.326 245.482 345.918 245.074 345.414 244.81C344.91 244.534 344.364 244.396 343.776 244.396C343.176 244.396 342.624 244.534 342.12 244.81C341.628 245.074 341.232 245.482 340.932 246.034C340.632 246.586 340.482 247.258 340.482 248.05C340.482 248.854 340.626 249.532 340.914 250.084C341.214 250.636 341.61 251.05 342.102 251.326C342.594 251.59 343.134 251.722 343.722 251.722ZM356.442 253L352.572 248.644V253H350.934V239.68H352.572V247.51L356.37 243.136H358.656L354.012 248.05L358.674 253H356.442ZM361.044 241.534C360.732 241.534 360.468 241.426 360.252 241.21C360.036 240.994 359.928 240.73 359.928 240.418C359.928 240.106 360.036 239.842 360.252 239.626C360.468 239.41 360.732 239.302 361.044 239.302C361.344 239.302 361.596 239.41 361.8 239.626C362.016 239.842 362.124 240.106 362.124 240.418C362.124 240.73 362.016 240.994 361.8 241.21C361.596 241.426 361.344 241.534 361.044 241.534ZM361.836 243.136V253H360.198V243.136H361.836ZM369.433 242.956C370.633 242.956 371.605 243.322 372.349 244.054C373.093 244.774 373.465 245.818 373.465 247.186V253H371.845V247.42C371.845 246.436 371.599 245.686 371.107 245.17C370.615 244.642 369.943 244.378 369.091 244.378C368.227 244.378 367.537 244.648 367.021 245.188C366.517 245.728 366.265 246.514 366.265 247.546V253H364.627V243.136H366.265V244.54C366.589 244.036 367.027 243.646 367.579 243.37C368.143 243.094 368.761 242.956 369.433 242.956ZM380.209 242.974C381.061 242.974 381.805 243.16 382.441 243.532C383.089 243.904 383.569 244.372 383.881 244.936V243.136H385.537V253.216C385.537 254.116 385.345 254.914 384.961 255.61C384.577 256.318 384.025 256.87 383.305 257.266C382.597 257.662 381.769 257.86 380.821 257.86C379.525 257.86 378.445 257.554 377.581 256.942C376.717 256.33 376.207 255.496 376.051 254.44H377.671C377.851 255.04 378.223 255.52 378.787 255.88C379.351 256.252 380.029 256.438 380.821 256.438C381.721 256.438 382.453 256.156 383.017 255.592C383.593 255.028 383.881 254.236 383.881 253.216V251.146C383.557 251.722 383.077 252.202 382.441 252.586C381.805 252.97 381.061 253.162 380.209 253.162C379.333 253.162 378.535 252.946 377.815 252.514C377.107 252.082 376.549 251.476 376.141 250.696C375.733 249.916 375.529 249.028 375.529 248.032C375.529 247.024 375.733 246.142 376.141 245.386C376.549 244.618 377.107 244.024 377.815 243.604C378.535 243.184 379.333 242.974 380.209 242.974ZM383.881 248.05C383.881 247.306 383.731 246.658 383.431 246.106C383.131 245.554 382.723 245.134 382.207 244.846C381.703 244.546 381.145 244.396 380.533 244.396C379.921 244.396 379.363 244.54 378.859 244.828C378.355 245.116 377.953 245.536 377.653 246.088C377.353 246.64 377.203 247.288 377.203 248.032C377.203 248.788 377.353 249.448 377.653 250.012C377.953 250.564 378.355 250.99 378.859 251.29C379.363 251.578 379.921 251.722 380.533 251.722C381.145 251.722 381.703 251.578 382.207 251.29C382.723 250.99 383.131 250.564 383.431 250.012C383.731 249.448 383.881 248.794 383.881 248.05ZM397.118 244.486H395.048V253H393.41V244.486H392.132V243.136H393.41V242.434C393.41 241.33 393.692 240.526 394.256 240.022C394.832 239.506 395.75 239.248 397.01 239.248V240.616C396.29 240.616 395.78 240.76 395.48 241.048C395.192 241.324 395.048 241.786 395.048 242.434V243.136H397.118V244.486ZM403.33 253.162C402.406 253.162 401.566 252.952 400.81 252.532C400.066 252.112 399.478 251.518 399.046 250.75C398.626 249.97 398.416 249.07 398.416 248.05C398.416 247.042 398.632 246.154 399.064 245.386C399.508 244.606 400.108 244.012 400.864 243.604C401.62 243.184 402.466 242.974 403.402 242.974C404.338 242.974 405.184 243.184 405.94 243.604C406.696 244.012 407.29 244.6 407.722 245.368C408.166 246.136 408.388 247.03 408.388 248.05C408.388 249.07 408.16 249.97 407.704 250.75C407.26 251.518 406.654 252.112 405.886 252.532C405.118 252.952 404.266 253.162 403.33 253.162ZM403.33 251.722C403.918 251.722 404.47 251.584 404.986 251.308C405.502 251.032 405.916 250.618 406.228 250.066C406.552 249.514 406.714 248.842 406.714 248.05C406.714 247.258 406.558 246.586 406.246 246.034C405.934 245.482 405.526 245.074 405.022 244.81C404.518 244.534 403.972 244.396 403.384 244.396C402.784 244.396 402.232 244.534 401.728 244.81C401.236 245.074 400.84 245.482 400.54 246.034C400.24 246.586 400.09 247.258 400.09 248.05C400.09 248.854 400.234 249.532 400.522 250.084C400.822 250.636 401.218 251.05 401.71 251.326C402.202 251.59 402.742 251.722 403.33 251.722ZM412.179 244.738C412.467 244.174 412.875 243.736 413.403 243.424C413.943 243.112 414.597 242.956 415.365 242.956V244.648H414.933C413.097 244.648 412.179 245.644 412.179 247.636V253H410.541V243.136H412.179V244.738Z" fill="#A0A0A0"/>
<defs>
<clipPath id="clip0_150_93">
<rect width="326.588" height="214" fill="white" transform="translate(45)"/>
</clipPath>
</defs>
</svg>
